SplineFontDB: 3.2
FontName: FreeSansBold
FullName: FreeSans Bold
FamilyName: FreeSans
Weight: Bold
Copyright: Copyright 2002, 2003, 2005, 2008, 2009, 2010, 2012, 2020 GNU Freefont contributors.
Version: $Revision: 4271 $
ItalicAngle: 0
UnderlinePosition: -155
UnderlineWidth: 69
Ascent: 800
Descent: 200
InvalidEm: 0
LayerCount: 2
Layer: 0 0 "Back" 1
Layer: 1 0 "Fore" 0
BaseHoriz: 1 'hang'
BaseScript: 'dev2' 0  633
BaseScript: 'deva' 0  633
BaseScript: 'gur2' 0  611
BaseScript: 'guru' 0  611
FSType: 0
OS2Version: 4
OS2_WeightWidthSlopeOnly: 0
OS2_UseTypoMetrics: 1
CreationTime: 1203284335
ModificationTime: 1635808471
PfmFamily: 33
TTFWeight: 600
TTFWidth: 5
LineGap: 100
VLineGap: 0
Panose: 2 11 7 4 2 2 2 2 2 4
OS2TypoAscent: 0
OS2TypoAOffset: 1
OS2TypoDescent: 0
OS2TypoDOffset: 1
OS2TypoLinegap: 100
OS2WinAscent: 0
OS2WinAOffset: 1
OS2WinDescent: 0
OS2WinDOffset: 1
HheadAscent: 0
HheadAOffset: 1
HheadDescent: 0
HheadDOffset: 1
OS2SubXSize: 650
OS2SubYSize: 666
OS2SubXOff: 0
OS2SubYOff: 200
OS2SupXSize: 650
OS2SupYSize: 666
OS2SupXOff: 0
OS2SupYOff: 390
OS2StrikeYSize: 49
OS2StrikeYPos: 258
OS2FamilyClass: 2053
OS2Vendor: 'GNU '
OS2CodePages: 600001bf.00000000
OS2UnicodeRanges: e4828eff.4240e5ff.08401020.00000004
Lookup: 1 0 0 "repl. candrakala by spacing glyph in Malay+AQEA-lam" { "repl. candrakala by spacing glyph Malay+AQEA-lam-1"  } []
Lookup: 1 0 0 "repl. smaller blwf u,uu in Malayalam" { "repl. smaller u,uu in Malay+AQEA-lam"  } []
Lookup: 1 0 0 "repl. post-base ya with swept form in Malayalam style" { "repl. post-base ya with swept in Malayalam"  } []
Lookup: 1 0 0 "repl. blwf with cons in Malayalam for Sanskrit" { "repl. blwf with cons in Malayalam for Sanskrit-1"  } []
Lookup: 1 0 0 "repl. cons with prepausal in Malayalam for Sanskrit" { "repl. cons with prepausal in Malayalam for Sanskrit"  } []

StartChar: exclam
Encoding: 33 33 1
Width: 333
Flags: HMW
AnchorPoint: "middle" 189 401 basechar 0
LayerCount: 2
Fore
SplineSet
262 726 m 1
 262 516 l 1
 220 207 l 1
 153 207 l 1
 112 516 l 1
 112 726 l 1
 262 726 l 1
262 146 m 1
 262 0 l 1
 112 0 l 1
 112 146 l 1
 262 146 l 1
EndSplineSet
Validated: 3073
EndChar

StartChar: quotedbl
Encoding: 34 34 2
Width: 474
Flags: MW
LayerCount: 2
Fore
SplineSet
188 729 m 1
 188 599 l 1
 146 470 l 1
 90 470 l 1
 50 599 l 1
 50 729 l 1
 188 729 l 1
424 729 m 1
 424 599 l 1
 382 470 l 1
 326 470 l 1
 286 599 l 1
 286 729 l 1
 424 729 l 1
EndSplineSet
Validated: 1
EndChar

StartChar: numbersign
Encoding: 35 35 3
Width: 556
Flags: HMW
AnchorPoint: "middle" 279 341 basechar 0
LayerCount: 2
Fore
SplineSet
146 -32 m 1
 40 -32 l 1
 80 172 l 1
 3 172 l 1
 3 271 l 1
 100 271 l 1
 130 424 l 1
 31 424 l 1
 31 523 l 1
 150 523 l 1
 184 697 l 1
 289 697 l 1
 255 523 l 1
 358 523 l 1
 392 697 l 1
 497 697 l 1
 463 523 l 1
 553 523 l 1
 553 424 l 1
 444 424 l 1
 413 271 l 1
 513 271 l 1
 513 172 l 1
 394 172 l 1
 354 -32 l 1
 249 -32 l 1
 289 172 l 1
 186 172 l 1
 146 -32 l 1
205 271 m 1
 308 271 l 1
 338 424 l 1
 235 424 l 1
 205 271 l 1
EndSplineSet
Validated: 3073
EndChar

StartChar: dollar
Encoding: 36 36 4
Width: 556
Flags: HMW
AnchorPoint: "middle" 279 341 basechar 0
LayerCount: 2
Fore
SplineSet
243 -21 m 1
 100 -7 22 79 22 198 c 2
 22 207 l 1
 153 207 l 1
 156 137 187 96 243 86 c 1
 243 299 l 1
 108 330 39 401 39 512 c 0
 39 624 114 697 243 709 c 1
 243 763 l 1
 311 763 l 1
 311 709 l 1
 437 702 515 623 517 498 c 1
 389 498 l 1
 389 504 l 0
 389 562 360 601 311 608 c 1
 311 407 l 1
 466 364 527 305 527 195 c 0
 527 65 446 -6 311 -21 c 1
 311 -126 l 1
 243 -126 l 1
 243 -21 l 1
243 427 m 1
 243 608 l 1
 188 597 162 567 162 516 c 0
 162 472 187 445 243 427 c 1
311 282 m 1
 311 86 l 1
 367 100 395 133 395 183 c 0
 395 231 367 265 311 282 c 1
EndSplineSet
Validated: 3073
EndChar

StartChar: percent
Encoding: 37 37 5
Width: 889
Flags: HMW
AnchorPoint: "middle" 449 341 basechar 0
LayerCount: 2
Fore
SplineSet
206 701 m 0
 309 701 390 620 390 517 c 0
 390 419 306 337 206 337 c 0
 105 337 22 419 22 519 c 0
 22 619 105 701 206 701 c 0
206 602 m 0
 159 602 121 564 121 519 c 0
 121 473 159 435 206 435 c 0
 252 435 291 473 291 518 c 0
 291 565 253 602 206 602 c 0
606 709 m 1
 682 709 l 1
 287 -20 l 1
 210 -20 l 1
 606 709 l 1
679 352 m 0
 782 352 863 271 863 167 c 0
 863 69 779 -13 679 -13 c 0
 578 -13 495 69 495 170 c 0
 495 270 578 352 679 352 c 0
679 253 m 0
 632 253 594 215 594 169 c 0
 594 123 632 85 679 85 c 0
 725 85 764 123 764 168 c 0
 764 215 726 253 679 253 c 0
EndSplineSet
Validated: 3073
EndChar

StartChar: ampersand
Encoding: 38 38 6
Width: 722
Flags: HMW
AnchorPoint: "middle" 309 341 basechar 0
LayerCount: 2
Fore
SplineSet
526 373 m 1
 639 373 l 1
 639 357 l 2
 637 281 611 200 571 154 c 1
 694 0 l 1
 533 0 l 1
 487 56 l 1
 406 -5 360 -23 292 -23 c 0
 150 -23 55 63 55 193 c 0
 55 287 95 340 212 401 c 1
 206 409 202 414 200 416 c 2
 172 450 l 2
 144 483 130 519 130 556 c 0
 130 650 212 723 319 723 c 0
 426 723 497 661 497 568 c 0
 497 496 469 453 380 392 c 1
 496 248 l 1
 518 290 526 320 526 363 c 2
 526 373 l 1
278 319 m 1
 231 290 l 2
 204 272 188 243 188 210 c 0
 188 150 240 93 294 93 c 0
 325 93 367 112 414 148 c 1
 278 319 l 1
317 470 m 1
 357 492 377 521 377 556 c 0
 377 593 356 614 320 614 c 0
 286 614 262 594 262 566 c 0
 262 541 267 533 317 470 c 1
EndSplineSet
Validated: 3073
EndChar

StartChar: quotesingle
Encoding: 39 39 7
Width: 250
Flags: MW
LayerCount: 2
Fore
SplineSet
194 729 m 1
 194 599 l 1
 152 470 l 1
 96 470 l 1
 56 599 l 1
 56 729 l 1
 194 729 l 1
EndSplineSet
Validated: 3073
EndChar

StartChar: parenleft
Encoding: 40 40 8
Width: 333
Flags: MW
LayerCount: 2
Fore
SplineSet
203 729 m 1
 303 729 l 1
 197 525 163 411 163 265 c 0
 163 118 197 6 303 -200 c 1
 203 -200 l 1
 88 -27 40 111 40 265 c 0
 40 418 88 556 203 729 c 1
EndSplineSet
Validated: 1
Substitution2: "'subs' subscript-punct" parenleftinferior
Substitution2: "'sups' superscript-punct" parenleftsuperior
Substitution2: "'dnom' denominators-1" parenleftinferior
Substitution2: "'numr' numerators-1" parenleftsuperior
EndChar

StartChar: parenright
Encoding: 41 41 9
Width: 333
Flags: MW
LayerCount: 2
Fore
SplineSet
122 -200 m 1
 22 -200 l 1
 128 4 162 118 162 264 c 0
 162 411 128 523 22 729 c 1
 122 729 l 1
 237 556 285 418 285 264 c 0
 285 111 237 -27 122 -200 c 1
EndSplineSet
Validated: 1
Substitution2: "'subs' subscript-punct" parenrightinferior
Substitution2: "'sups' superscript-punct" parenrightsuperior
Substitution2: "'dnom' denominators-1" parenrightinferior
Substitution2: "'numr' numerators-1" parenrightsuperior
EndChar

StartChar: asterisk
Encoding: 42 42 10
Width: 389
Flags: MW
LayerCount: 2
Fore
SplineSet
132 544 m 1
 23 580 l 1
 45 649 l 1
 154 613 l 1
 154 729 l 1
 226 729 l 1
 226 613 l 1
 335 649 l 1
 357 579 l 1
 248 544 l 1
 315 450 l 1
 257 407 l 1
 190 501 l 1
 123 407 l 1
 65 450 l 1
 132 544 l 1
EndSplineSet
Validated: 1
EndChar

StartChar: plus
Encoding: 43 43 11
Width: 584
Flags: HMW
AnchorPoint: "middle" 279 231 basechar 0
LayerCount: 2
Fore
SplineSet
533 291 m 1
 533 172 l 1
 351 172 l 1
 351 -10 l 1
 232 -10 l 1
 232 172 l 1
 50 172 l 1
 50 291 l 1
 232 291 l 1
 232 473 l 1
 351 473 l 1
 351 291 l 1
 533 291 l 1
EndSplineSet
Validated: 3073
Substitution2: "'dnom' denominators-1" plusinferior
Substitution2: "'numr' numerators-1" plussuperior
Substitution2: "'subs' subscript-numeric" plusinferior
Substitution2: "'sups' superscript-numeric" plussuperior
EndChar

StartChar: comma
Encoding: 44 44 12
Width: 250
Flags: MW
LayerCount: 2
Fore
SplineSet
50 146 m 1
 200 146 l 1
 200 9 l 2
 200 -69 186 -157 50 -174 c 1
 50 -118 l 1
 110.459 -105.703 126 -69.9824 126 0 c 1
 50 0 l 1
 50 146 l 1
EndSplineSet
Validated: 3073
Substitution2: "'subs' subscript-punct" sub.comma
Substitution2: "'sups' superscript-punct" sup.comma
Substitution2: "'numr' numerators-1" sup.comma
Substitution2: "'dnom' denominators-1" dnom_comma
EndChar

StartChar: hyphen
Encoding: 45 45 13
Width: 333
Flags: MW
LayerCount: 2
Fore
SplineSet
298 342 m 1
 298 207 l 1
 26 207 l 1
 26 342 l 1
 298 342 l 1
EndSplineSet
Validated: 1
EndChar

StartChar: period
Encoding: 46 46 14
Width: 250
Flags: MW
LayerCount: 2
Fore
SplineSet
200 146 m 1
 200 0 l 1
 50 0 l 1
 50 146 l 1
 200 146 l 1
EndSplineSet
Validated: 3073
Substitution2: "'subs' subscript-punct" sub.period
Substitution2: "'sups' superscript-punct" sup.period
Substitution2: "'numr' numerators-1" sub.period
Substitution2: "'dnom' denominators-1" dnom_period
EndChar

StartChar: slash
Encoding: 47 47 15
Width: 278
Flags: MW
LayerCount: 2
Fore
SplineSet
208 714 m 1
 275 714 l 1
 69 -14 l 1
 2 -14 l 1
 208 714 l 1
EndSplineSet
Validated: 1
EndChar

StartChar: zero
Encoding: 48 48 16
Width: 556
Flags: HMW
AnchorPoint: "middle" 274 343 basechar 0
LayerCount: 2
Fore
SplineSet
273 -23 m 0
 78 -23 29 144 29 350 c 0
 29 573.87 83.6492 724 273 724 c 0
 464.374 724 517 571.238 517 346 c 0
 517 147 470 -23 273 -23 c 0
377 349 m 0
 377 552.3 337 611 273 611 c 0
 201 611 169 552 169 351 c 0
 169 140 208 97 273 97 c 0
 336 97 377 138.3 377 349 c 0
EndSplineSet
Validated: 3073
Substitution2: "'dnom' denominators-1" dnom_zero
Substitution2: "'numr' numerators-1" zerosuperior
Substitution2: "'subs' subscript-numeric" zeroinferior
Substitution2: "'sups' superscript-numeric" zerosuperior
Substitution2: "'zero' slashed zero-1" zeroslashed
Substitution2: "'pnum' proportional-width numbers-2" fit.zero
EndChar

StartChar: one
Encoding: 49 49 17
Width: 556
Flags: MW
AnchorPoint: "middle" 291 343 basechar 0
LayerCount: 2
Fore
SplineSet
238 489 m 1
 68 489 l 1
 68 582 l 1
 190 582 263 625 285 709 c 1
 378 709 l 1
 378 0 l 1
 238 0 l 1
 238 489 l 1
EndSplineSet
Validated: 3073
Substitution2: "'dnom' denominators-1" dnom_one
Substitution2: "'numr' numerators-1" onesuperior
Substitution2: "'subs' subscript-numeric" oneinferior
Substitution2: "'sups' superscript-numeric" onesuperior
Substitution2: "'pnum' proportional-width numbers-2" fit.one
EndChar

StartChar: two
Encoding: 50 50 18
Width: 556
Flags: MW
AnchorPoint: "middle" 274 343 basechar 0
LayerCount: 2
Fore
SplineSet
515 499 m 0
 515 287 272 252 212 125 c 1
 512 125 l 1
 512 0 l 1
 30 0 l 1
 37 131 75 193 194 276 c 0
 351 386 375 418 375 496 c 0
 375 567 337 610 275 610 c 0
 211 610 174 564 174 485 c 2
 174 462 l 1
 40 462 l 1
 39 473 39 481 39 487 c 0
 39 637 125 724 272 724 c 0
 421 724 515 636 515 499 c 0
EndSplineSet
Validated: 3073
Substitution2: "'dnom' denominators-1" dnom_two
Substitution2: "'numr' numerators-1" twosuperior
Substitution2: "'subs' subscript-numeric" twoinferior
Substitution2: "'sups' superscript-numeric" twosuperior
Substitution2: "'pnum' proportional-width numbers-2" fit.two
EndChar

StartChar: three
Encoding: 51 51 19
Width: 556
Flags: MW
AnchorPoint: "middle" 274 343 basechar 0
LayerCount: 2
Fore
SplineSet
38 498 m 2
 38 690 177 724 268 724 c 0
 405 724 493 649 493 531 c 0
 493 466 466 421 400 380 c 1
 480 341 516 287 516 204 c 0
 516 66 419 -23 268 -23 c 0
 123 -23 30 66 29 208 c 1
 165 208 l 1
 169 135 205 97 271 97 c 0
 332 97 376 142 376 204 c 0
 376 256 346 297 299 310 c 0
 275 316 266 317 217 317 c 1
 217 411 l 1
 229 411 l 2
 312 411 353 447 353 518 c 0
 353 577 321 611 265 611 c 0
 186 611 170 562 168 486 c 1
 38 486 l 1
 38 498 l 2
EndSplineSet
Validated: 3073
Substitution2: "'dnom' denominators-1" dnom_three
Substitution2: "'numr' numerators-1" threesuperior
Substitution2: "'subs' subscript-numeric" threeinferior
Substitution2: "'sups' superscript-numeric" threesuperior
Substitution2: "'pnum' proportional-width numbers-2" fit.three
EndChar

StartChar: four
Encoding: 52 52 20
Width: 556
Flags: MW
AnchorPoint: "middle" 285 343 basechar 0
LayerCount: 2
Fore
SplineSet
522 273 m 1
 522 157 l 1
 448 157 l 1
 448 0 l 1
 308 0 l 1
 308 157 l 1
 24 157 l 1
 24 275 l 1
 283 709 l 1
 448 709 l 1
 448 273 l 1
 522 273 l 1
308 273 m 1
 308 576 l 1
 123 273 l 1
 308 273 l 1
EndSplineSet
Validated: 3073
Substitution2: "'dnom' denominators-1" dnom_four
Substitution2: "'numr' numerators-1" foursuperior
Substitution2: "'subs' subscript-numeric" fourinferior
Substitution2: "'sups' superscript-numeric" foursuperior
Substitution2: "'pnum' proportional-width numbers-2" fit.four
EndChar

StartChar: five
Encoding: 53 53 21
Width: 556
Flags: MW
AnchorPoint: "middle" 274 343 basechar 0
LayerCount: 2
Fore
SplineSet
489 709 m 1
 489 584 l 1
 196 584 l 1
 173 436 l 1
 214 467 249 479 296 479 c 0
 427 479 517 379 517 234 c 0
 517 81 413 -23 261 -23 c 0
 123 -23 29 61 27 185 c 1
 165 185 l 1
 168 128 202 97 263 97 c 0
 333 97 377 148 377 231 c 0
 377 317 334 368 263 368 c 0
 220 368 188 349 173 314 c 1
 47 314 l 1
 110 709 l 1
 489 709 l 1
EndSplineSet
Validated: 3073
Substitution2: "'dnom' denominators-1" dnom_five
Substitution2: "'numr' numerators-1" fivesuperior
Substitution2: "'subs' subscript-numeric" fiveinferior
Substitution2: "'sups' superscript-numeric" fivesuperior
Substitution2: "'pnum' proportional-width numbers-2" fit.five
EndChar

StartChar: six
Encoding: 54 54 22
Width: 556
Flags: MW
AnchorPoint: "middle" 286 343 basechar 0
LayerCount: 2
Fore
SplineSet
32 337 m 0
 32 555 94 724 294 724 c 0
 337 724 481 716 507 548 c 1
 377 548 l 1
 359 593 335 611 290 611 c 0
 192.053 611 176.733 522.327 172 404 c 1
 216 450 255 467 313 467 c 0
 435 467 519 373 519 237 c 0
 519 83 423 -23 282 -23 c 0
 151 -23 32 46 32 337 c 0
279 357 m 0
 214 357 170 303 170 225 c 0
 170 150 214 97 278 97 c 0
 340 97 386 152 386 228 c 0
 386 306 344 357 279 357 c 0
EndSplineSet
Validated: 3073
Substitution2: "'dnom' denominators-1" dnom_six
Substitution2: "'numr' numerators-1" sixsuperior
Substitution2: "'subs' subscript-numeric" sixinferior
Substitution2: "'sups' superscript-numeric" sixsuperior
Substitution2: "'pnum' proportional-width numbers-2" fit.six
EndChar

StartChar: seven
Encoding: 55 55 23
Width: 556
Flags: MW
AnchorPoint: "middle" 274 343 basechar 0
LayerCount: 2
Fore
SplineSet
528 709 m 1
 528 599 l 1
 360 396 287 224 274 0 c 1
 133 0 l 1
 165.43 257.732 235 403 382 584 c 1
 29 584 l 1
 29 709 l 1
 528 709 l 1
EndSplineSet
Validated: 3073
Substitution2: "'dnom' denominators-1" dnom_seven
Substitution2: "'numr' numerators-1" sevensuperior
Substitution2: "'subs' subscript-numeric" seveninferior
Substitution2: "'sups' superscript-numeric" sevensuperior
Substitution2: "'pnum' proportional-width numbers-2" fit.seven
EndChar

StartChar: eight
Encoding: 56 56 24
Width: 556
Flags: MW
AnchorPoint: "middle" 274 343 basechar 0
LayerCount: 2
Fore
SplineSet
501 532 m 0
 501 450 458 412 409 386 c 1
 491 342 525 288 525 204 c 0
 525 70 422 -23 274 -23 c 0
 125 -23 22 70 22 204 c 0
 22 288 56 342 138 386 c 1
 74 420 46 463 46 531 c 0
 46 643 142 724 274 724 c 0
 405 724 501 643 501 532 c 0
275 611 m 0
 212 611 169 573 169 519 c 0
 169 464 213 425 275 425 c 0
 336 425 380 464 380 518 c 0
 380 573 337 611 275 611 c 0
273 330 m 0
 206 330 162 284 162 212 c 0
 162 142 205 97 273 97 c 0
 341 97 385 142 385 210 c 0
 385 284 342 330 273 330 c 0
EndSplineSet
Validated: 3073
Substitution2: "'dnom' denominators-1" dnom_eight
Substitution2: "'numr' numerators-1" eightsuperior
Substitution2: "'subs' subscript-numeric" eightinferior
Substitution2: "'sups' superscript-numeric" eightsuperior
Substitution2: "'pnum' proportional-width numbers-2" fit.eight
EndChar

StartChar: nine
Encoding: 57 57 25
Width: 556
Flags: MW
AnchorPoint: "middle" 274 343 basechar 0
LayerCount: 2
Fore
SplineSet
516 370 m 0
 516 35 367 -24 255 -24 c 0
 133 -24 41 56 38 165 c 1
 173 165 l 1
 176 123 210 96 259 96 c 0
 338 96 376 163 376 298 c 1
 359 279 327 228 240 228 c 0
 114 228 28 328 28 474 c 0
 28 622 125 724 267 724 c 0
 367 724 516 671 516 370 c 0
263 610 m 0
 201 610 161 558 161 476 c 0
 161 395 201 344 265 344 c 0
 329 344 373 396 373 474 c 0
 373 557 331 610 263 610 c 0
EndSplineSet
Validated: 3073
Substitution2: "'dnom' denominators-1" dnom_nine
Substitution2: "'numr' numerators-1" ninesuperior
Substitution2: "'subs' subscript-numeric" nineinferior
Substitution2: "'sups' superscript-numeric" ninesuperior
Substitution2: "'pnum' proportional-width numbers-2" fit.nine
EndChar

StartChar: colon
Encoding: 58 58 26
Width: 250
Flags: MW
LayerCount: 2
Fore
SplineSet
200 146 m 1
 200 0 l 1
 50 0 l 1
 50 146 l 1
 200 146 l 1
200 520 m 5
 200 374 l 5
 50 374 l 5
 50 520 l 5
 200 520 l 5
EndSplineSet
Validated: 3073
EndChar

StartChar: semicolon
Encoding: 59 59 27
Width: 250
Flags: MW
LayerCount: 2
Fore
SplineSet
50 146 m 1
 200 146 l 1
 200 9 l 2
 200 -69 186 -157 50 -174 c 1
 50 -118 l 1
 110.459 -105.703 136 -69.9824 136 0 c 1
 50 0 l 1
 50 146 l 1
200 520 m 1
 200 374 l 1
 50 374 l 1
 50 520 l 1
 200 520 l 1
EndSplineSet
Validated: 3073
EndChar

StartChar: less
Encoding: 60 60 28
Width: 584
Flags: HMW
AnchorPoint: "middle" 315 233 basechar 0
LayerCount: 2
Fore
SplineSet
529 474 m 1
 529 365 l 1
 147 232 l 1
 529 101 l 1
 529 -10 l 1
 40 172 l 1
 40 293 l 1
 529 474 l 1
EndSplineSet
Validated: 3073
EndChar

StartChar: equal
Encoding: 61 61 29
Width: 584
Flags: HMW
AnchorPoint: "middle" 285 233 basechar 0
LayerCount: 2
Fore
SplineSet
534 411 m 1
 534 292 l 1
 50 292 l 1
 50 411 l 1
 534 411 l 1
534 171 m 1
 534 52 l 1
 50 52 l 1
 50 171 l 1
 534 171 l 1
EndSplineSet
Validated: 3073
Substitution2: "'subs' subscript-numeric" equalinferior
Substitution2: "'sups' superscript-numeric" equalsuperior
EndChar

StartChar: greater
Encoding: 62 62 30
Width: 584
Flags: HMW
AnchorPoint: "middle" 255 233 basechar 0
LayerCount: 2
Fore
SplineSet
40 -10 m 1
 40 99 l 1
 422 232 l 1
 40 363 l 1
 40 474 l 1
 529 292 l 1
 529 171 l 1
 40 -10 l 1
EndSplineSet
Validated: 3073
EndChar

StartChar: question
Encoding: 63 63 31
Width: 611
Flags: HMW
AnchorPoint: "middle" 319 341 basechar 0
LayerCount: 2
Fore
SplineSet
64 481 m 1
 67 707 210 744 307 744 c 0
 454 744 556 650 556 514 c 0
 556 430 529 386 436 320 c 0
 376 278 369 267 369 201 c 1
 245 201 l 1
 245 206 245 210 245 215 c 0
 245 395 415 391 415 511 c 0
 415 576 370 626 310 626 c 0
 247 626 200 569 200 492 c 0
 200 483 l 1
 200 481 l 1
 64 481 l 1
385 146 m 1
 385 0 l 1
 235 0 l 1
 235 146 l 1
 385 146 l 1
EndSplineSet
Validated: 3073
EndChar

StartChar: at
Encoding: 64 64 32
Width: 975
Flags: HMW
AnchorPoint: "middle" 489 311 basechar 0
LayerCount: 2
Fore
SplineSet
258 227 m 0
 258 289 312 518 514 518 c 0
 570 518 601 496 625 446 c 1
 641 508 l 1
 734 508 l 1
 656 228 l 2
 650.675 208.885 649 201 649 189 c 0
 649 159 667 142 697 142 c 0
 761 142 852 239 852 370 c 0
 852 524 686 658 511 658 c 0
 300 658 129 458 129 266 c 0
 129 74 308 -55 486 -55 c 0
 558 -55 634 -40 692 -14 c 1
 721 -92 l 1
 651 -124 578 -138 484 -138 c 0
 203 -138 27 42 27 264 c 0
 27 521 253 745 516 745 c 0
 766 745 947 594 947 355 c 0
 947 169 802 56 697 56 c 0
 627 56 585 90 572 129 c 1
 533 82 477 56 422 56 c 0
 331 56 258 132 258 227 c 0
444 140 m 0
 529 140 592 264 592 345 c 0
 592 408 563 444 511 444 c 0
 433 444 362 346 362 244 c 0
 362 184 394 140 444 140 c 0
EndSplineSet
Validated: 3073
EndChar

StartChar: A
Encoding: 65 65 33
Width: 697
Flags: HMW
AnchorPoint: "middle" 354 377 basechar 0
AnchorPoint: "ogonek" 620 0 basechar 0 {150-150 9} {}
AnchorPoint: "below" 344 0 basechar 0
AnchorPoint: "above" 351 730 basechar 0
LayerCount: 2
Fore
SplineSet
485 147 m 1
 212 147 l 1
 163 0 l 1
 10 0 l 1
 269 729 l 1
 435 729 l 1
 687 0 l 1
 533 0 l 1
 485 147 l 1
444 272 m 1
 349 557 l 1
 254 272 l 1
 444 272 l 1
EndSplineSet
Validated: 3073
Substitution2: "'c2sc' caps to small caps in Latin-1" sc.a
Substitution2: "'sups' superscript-latin" Asup
EndChar

StartChar: B
Encoding: 66 66 34
Width: 704
Flags: MW
AnchorPoint: "middle" 364 377 basechar 0
AnchorPoint: "below" 372 0 basechar 0
AnchorPoint: "above" 369 730 basechar 0
LayerCount: 2
Fore
SplineSet
664 210 m 0
 664 123 613 0 408 0 c 2
 80 0 l 1
 80 729 l 1
 405 729 l 2
 597 729 643 604 643 537 c 0
 643 475 615 433 543 387 c 1
 625 339 664 282 664 210 c 0
230 604 m 1
 230 439 l 1
 393 439 l 2
 462 439 499 468 499 521 c 0
 499 575 462 604 393 604 c 2
 230 604 l 1
230 314 m 1
 230 125 l 1
 409 125 l 2
 482 125 520 158 520 219 c 0
 520 281 482 314 409 314 c 2
 230 314 l 1
EndSplineSet
Validated: 3073
Substitution2: "'c2sc' caps to small caps in Latin-1" sc.b
Substitution2: "'sups' superscript-latin" Bsup
EndChar

StartChar: C
Encoding: 67 67 35
Width: 721
Flags: HMW
AnchorPoint: "middle" 375 377 basechar 0
AnchorPoint: "below" 374 0 basechar 0
AnchorPoint: "above" 371 740 basechar 0
LayerCount: 2
Fore
SplineSet
535 482 m 1
 527 519 504 613 379 613 c 0
 261 613 190 517 190 356 c 0
 190 197 258 103 374 103 c 0
 467 103 526 156 535 249 c 1
 681 249 l 1
 672 82 551 -23 370 -23 c 0
 167 -23 40 124 40 358 c 0
 40 594 168 741 374 741 c 0
 544 741 665 646 678 482 c 1
 535 482 l 1
EndSplineSet
Validated: 3073
Substitution2: "'c2sc' caps to small caps in Latin-1" sc.c
Substitution2: "'sups' superscript-latin" sup.C
EndChar

StartChar: D
Encoding: 68 68 36
Width: 724
Flags: MW
AnchorPoint: "middle" 369 377 basechar 0
AnchorPoint: "below" 346 0 basechar 0
AnchorPoint: "above" 328 730 basechar 0
LayerCount: 2
Fore
SplineSet
80 0 m 1
 80 729 l 1
 365 729 l 2
 477 729 546 704 595 645 c 0
 653 576 684 477 684 365 c 0
 684 252 653 153 595 85 c 0
 546 26 476 0 365 0 c 2
 80 0 l 1
230 125 m 1
 365 125 l 2
 478 125 534 204 534 364 c 0
 534 525 478 604 365 604 c 2
 230 604 l 1
 230 125 l 1
EndSplineSet
Validated: 3073
Substitution2: "'c2sc' caps to small caps in Latin-1" sc.d
Substitution2: "'sups' superscript-latin" Dsup
EndChar

StartChar: E
Encoding: 69 69 37
Width: 665
Flags: MW
AnchorPoint: "middle" 367 377 basechar 0
AnchorPoint: "ogonek" 584 0 basechar 0
AnchorPoint: "below" 361 0 basechar 0
AnchorPoint: "above" 359 730 basechar 0
LayerCount: 2
Fore
SplineSet
230 314 m 1
 230 125 l 1
 625 125 l 1
 625 0 l 1
 80 0 l 1
 80 729 l 1
 607 729 l 1
 607 604 l 1
 230 604 l 1
 230 439 l 1
 579 439 l 1
 579 314 l 1
 230 314 l 1
EndSplineSet
Validated: 3073
Substitution2: "'c2sc' caps to small caps in Latin-1" sc.e
Substitution2: "'sups' superscript-latin" Esup
EndChar

StartChar: F
Encoding: 70 70 38
Width: 632
Flags: MW
AnchorPoint: "middle" 345 377 basechar 0
AnchorPoint: "below" 333 0 basechar 0
AnchorPoint: "above" 347 730 basechar 0
LayerCount: 2
Fore
SplineSet
230 314 m 1
 230 0 l 1
 80 0 l 1
 80 729 l 1
 592 729 l 1
 592 604 l 1
 230 604 l 1
 230 439 l 1
 549 439 l 1
 549 314 l 1
 230 314 l 1
EndSplineSet
Validated: 3073
Substitution2: "'c2sc' caps to small caps in Latin-1" sc.f
Substitution2: "'sups' superscript-latin" sup.F
EndChar

StartChar: G
Encoding: 71 71 39
Width: 779
Flags: MW
AnchorPoint: "middle" 385 377 basechar 0
AnchorPoint: "below" 385 0 basechar 0
AnchorPoint: "above" 395 730 basechar 0
LayerCount: 2
Fore
SplineSet
568 498 m 1
 547 560 498 615 394 615 c 0
 267 615 190 520 190 363 c 0
 190 213 277 107 398 107 c 0
 435 107 570 131 583 269 c 1
 417 269 l 1
 417 394 l 1
 709 394 l 1
 709 0 l 1
 619 0 l 1
 601 96 l 1
 545 14 479 -21 381 -21 c 0
 184 -21 40 140 40 361 c 0
 40 588 183 743 393 743 c 0
 569 743 691 648 709 498 c 1
 568 498 l 1
EndSplineSet
Validated: 3073
Substitution2: "'c2sc' caps to small caps in Latin-1" sc.g
Substitution2: "'sups' superscript-latin" Gsup
EndChar

StartChar: H
Encoding: 72 72 40
Width: 749
Flags: MW
AnchorPoint: "middle" 369 377 basechar 0
AnchorPoint: "below" 372 0 basechar 0
AnchorPoint: "above" 373 730 basechar 0
LayerCount: 2
Fore
SplineSet
519 331 m 1
 230 331 l 1
 230 0 l 1
 80 0 l 1
 80 729 l 1
 230 729 l 1
 230 456 l 1
 518 456 l 1
 518 729 l 1
 669 729 l 1
 669 0 l 1
 519 0 l 1
 519 331 l 1
EndSplineSet
Validated: 3073
Substitution2: "'c2sc' caps to small caps in Latin-1" sc.h
Substitution2: "'sups' superscript-latin" Hsup
EndChar

StartChar: I
Encoding: 73 73 41
Width: 310
Flags: MW
AnchorPoint: "middle" 161 377 basechar 0
AnchorPoint: "ogonek" 197 0 basechar 0
AnchorPoint: "below" 159 0 basechar 0
AnchorPoint: "above" 159 730 basechar 0
LayerCount: 2
Fore
SplineSet
230 729 m 1
 230 0 l 1
 80 0 l 1
 80 729 l 1
 230 729 l 1
EndSplineSet
Validated: 3073
Substitution2: "'c2sc' caps to small caps in Latin-1" sc.i
Substitution2: "'sups' superscript-latin" Isup
EndChar

StartChar: J
Encoding: 74 74 42
Width: 572
Flags: MW
AnchorPoint: "middle" 274 377 basechar 0
AnchorPoint: "below" 262 0 basechar 0
AnchorPoint: "above" 417 730 basechar 0
LayerCount: 2
Fore
SplineSet
258 -23 m 0
 158 -23 30 21 30 198 c 2
 30 270 l 1
 180 270 l 1
 180 200 l 2
 180 133 204 105 261 105 c 0
 313 105 342 135 342 190 c 2
 342 729 l 1
 492 729 l 1
 492 190 l 2
 492 54 407 -23 258 -23 c 0
EndSplineSet
Validated: 3073
Substitution2: "'c2sc' caps to small caps in Latin-1" sc.j
Substitution2: "'sups' superscript-latin" Jsup
EndChar

StartChar: K
Encoding: 75 75 43
Width: 728
Flags: MW
AnchorPoint: "middle" 314 377 basechar 0
AnchorPoint: "below" 332 0 basechar 0
AnchorPoint: "above" 326 730 basechar 0
LayerCount: 2
Fore
SplineSet
230 244 m 1
 230 0 l 1
 80 0 l 1
 80 729 l 1
 230 729 l 1
 230 409 l 1
 515 729 l 1
 692 729 l 1
 401 415 l 1
 723 0 l 1
 544 0 l 1
 305 322 l 1
 230 244 l 1
EndSplineSet
Validated: 3073
Substitution2: "'c2sc' caps to small caps in Latin-1" sc.k
Substitution2: "'sups' superscript-latin" Ksup
EndChar

StartChar: L
Encoding: 76 76 44
Width: 619
Flags: MW
AnchorPoint: "middle" 313 377 basechar 0
AnchorPoint: "below" 319 0 basechar 0
AnchorPoint: "above" 320 730 basechar 0
LayerCount: 2
Fore
SplineSet
230 729 m 1
 230 125 l 1
 579 125 l 1
 579 0 l 1
 80 0 l 1
 80 729 l 1
 230 729 l 1
EndSplineSet
Validated: 3073
Substitution2: "'c2sc' caps to small caps in Latin-1" sc.l
Substitution2: "'sups' superscript-latin" Lsup
EndChar

StartChar: M
Encoding: 77 77 45
Width: 870
Flags: MW
AnchorPoint: "middle" 437 377 basechar 0
AnchorPoint: "below" 438 0 basechar 0
AnchorPoint: "above" 438 730 basechar 0
LayerCount: 2
Fore
SplineSet
230 568 m 1
 230 0 l 1
 80 0 l 1
 80 729 l 1
 304 729 l 1
 436 149 l 1
 564 729 l 1
 790 729 l 1
 790 0 l 1
 640 0 l 1
 640 568 l 1
 511 0 l 1
 361 0 l 1
 230 568 l 1
EndSplineSet
Validated: 3073
Substitution2: "'c2sc' caps to small caps in Latin-1" sc.m
Substitution2: "'sups' superscript-latin" Msup
EndChar

StartChar: N
Encoding: 78 78 46
Width: 753
Flags: MW
AnchorPoint: "middle" 378 377 basechar 0
AnchorPoint: "below" 371 0 basechar 0
AnchorPoint: "above" 377 730 basechar 0
LayerCount: 2
Fore
SplineSet
523 0 m 1
 230 504 l 1
 230 0 l 1
 80 0 l 1
 80 729 l 1
 234 729 l 1
 523 233 l 1
 523 729 l 1
 673 729 l 1
 673 0 l 1
 523 0 l 1
EndSplineSet
Validated: 3073
Substitution2: "'c2sc' caps to small caps in Latin-1" sc.n
Substitution2: "'sups' superscript-latin" Nsup
EndChar

StartChar: O
Encoding: 79 79 47
Width: 782
Flags: MW
AnchorPoint: "far-right-dot" 680 600 basechar 0
AnchorPoint: "middle" 388 377 basechar 0
AnchorPoint: "ogonek" 463 0 basechar 0
AnchorPoint: "below" 394 0 basechar 0
AnchorPoint: "above" 391 730 basechar 0
LayerCount: 2
Fore
SplineSet
40 359 m 0
 40 581 178 741 390 741 c 0
 601 741 742 586 742 354 c 0
 742 145 610 -23 391 -23 c 0
 177 -23 40 137 40 359 c 0
391 613 m 0
 270 613 190 512 190 359 c 0
 190 206 270 105 391 105 c 0
 511 105 592 206 592 355 c 0
 592 513 514 613 391 613 c 0
EndSplineSet
Validated: 3073
Substitution2: "'c2sc' caps to small caps in Latin-1" sc.o
Substitution2: "'sups' superscript-latin" Osup
EndChar

StartChar: P
Encoding: 80 80 48
Width: 677
Flags: MW
AnchorPoint: "middle" 344 377 basechar 0
AnchorPoint: "below" 326 0 basechar 0
AnchorPoint: "above" 347 730 basechar 0
LayerCount: 2
Fore
SplineSet
230 260 m 1
 230 0 l 1
 80 0 l 1
 80 729 l 1
 402 729 l 2
 554 729 637 649 637 503 c 0
 637 355 551 260 417 260 c 2
 230 260 l 1
230 385 m 1
 370 385 l 2
 450 385 487 420 487 494 c 0
 487 569 450 604 370 604 c 2
 230 604 l 1
 230 385 l 1
EndSplineSet
Validated: 3073
Substitution2: "'c2sc' caps to small caps in Latin-1" sc.p
Substitution2: "'sups' superscript-latin" Psup
EndChar

StartChar: Q
Encoding: 81 81 49
Width: 782
Flags: MW
AnchorPoint: "middle" 386 377 basechar 0
AnchorPoint: "below" 392 0 basechar 0
AnchorPoint: "above" 387 730 basechar 0
LayerCount: 2
Fore
SplineSet
391 741 m 0
 608 741 742 575 742 361 c 0
 742 263 711 163 662 103 c 1
 742 27 l 1
 666 -54 l 1
 580 27 l 1
 522 -8 466 -23 391 -23 c 0
 177 -23 40 139 40 359 c 0
 40 579 177 741 391 741 c 0
477 278 m 1
 559 200 l 1
 581 244 592 298 592 358 c 0
 592 513 513 613 391 613 c 0
 270 613 190 512 190 359 c 0
 190 206 270 105 390 105 c 0
 422 105 455 112 478 124 c 1
 401 197 l 1
 477 278 l 1
EndSplineSet
Validated: 3073
Substitution2: "'c2sc' caps to small caps in Latin-1" sc.q
Substitution2: "'sups' superscript-latin" sup.Q
EndChar

StartChar: R
Encoding: 82 82 50
Width: 722
Flags: MW
AnchorPoint: "middle" 366 377 basechar 0
AnchorPoint: "below" 356 0 basechar 0
AnchorPoint: "above" 371 730 basechar 0
LayerCount: 2
Fore
SplineSet
493 125 m 0
 493 179 495 171 495 202 c 0
 495 263 467 289 402 289 c 2
 230 289 l 1
 230 0 l 1
 80 0 l 1
 80 729 l 1
 471 729 l 2
 628 729 667 613 667 532 c 0
 667 443 626 384 544 352 c 1
 637 312 641 302 645 87 c 0
 645 55 654 40 677 27 c 1
 677 0 l 1
 516 0 l 1
 497 35 493 57 493 125 c 0
517 511 m 0
 517 592 474 604 411 604 c 2
 230 604 l 1
 230 414 l 1
 411 414 l 2
 473 414 517 426 517 511 c 0
EndSplineSet
Validated: 3073
Substitution2: "'c2sc' caps to small caps in Latin-1" sc.r
Substitution2: "'sups' superscript-latin" Rsup
EndChar

StartChar: S
Encoding: 83 83 51
Width: 681
Flags: MW
AnchorPoint: "middle" 336 377 basechar 0
AnchorPoint: "below" 346 0 basechar 0
AnchorPoint: "above" 328 730 basechar 0
LayerCount: 2
Fore
SplineSet
615 507 m 1
 475 507 l 1
 470 581 417 621 322 621 c 0
 245 621 196 586 196 531 c 0
 196 478 227 457 334 436 c 2
 448 414 l 2
 583 388 641 328 641 213 c 0
 641 65 530 -23 342 -23 c 0
 156 -23 49 62 40 218 c 1
 186 218 l 1
 191 140 248 97 350 97 c 0
 441 97 497 134 497 195 c 0
 497 254 460 282 360 301 c 2
 258 321 l 2
 110 349 53 404 53 517 c 0
 53 659 154 741 329 741 c 0
 442 741 615 706 615 507 c 1
EndSplineSet
Validated: 3073
Substitution2: "'c2sc' caps to small caps in Latin-1" sc.s
Substitution2: "'sups' superscript-latin" sup.S
EndChar

StartChar: T
Encoding: 84 84 52
Width: 644
Flags: MW
AnchorPoint: "middle" 325 377 basechar 0
AnchorPoint: "below" 325 0 basechar 0
AnchorPoint: "above" 328 730 basechar 0
LayerCount: 2
Fore
SplineSet
401 604 m 1
 401 0 l 1
 251 0 l 1
 251 604 l 1
 30 604 l 1
 30 729 l 1
 614 729 l 1
 614 604 l 1
 401 604 l 1
EndSplineSet
Validated: 3073
Substitution2: "'c2sc' caps to small caps in Latin-1" sc.t
Substitution2: "'sups' superscript-latin" Tsup
EndChar

StartChar: U
Encoding: 85 85 53
Width: 738
Flags: MW
AnchorPoint: "middle" 370 377 basechar 0
AnchorPoint: "ogonek" 455 0 basechar 0
AnchorPoint: "below" 374 0 basechar 0
AnchorPoint: "above" 366 730 basechar 0
LayerCount: 2
Fore
SplineSet
369 -23 m 0
 246 -23 80 29 80 235 c 2
 80 729 l 1
 230 729 l 1
 230 235 l 2
 230 147 275 105 369 105 c 0
 463 105 508 147 508 235 c 2
 508 729 l 1
 658 729 l 1
 658 235 l 2
 658 29 492 -23 369 -23 c 0
EndSplineSet
Validated: 3073
Substitution2: "'c2sc' caps to small caps in Latin-1" sc.u
Substitution2: "'sups' superscript-latin" Usup
EndChar

StartChar: V
Encoding: 86 86 54
Width: 663
Flags: MW
AnchorPoint: "middle" 331 377 basechar 0
AnchorPoint: "below" 328 0 basechar 0
AnchorPoint: "above" 337 730 basechar 0
LayerCount: 2
Fore
SplineSet
393 0 m 1
 266 0 l 1
 20 729 l 1
 171 729 l 1
 333 180 l 1
 492 729 l 1
 643 729 l 1
 393 0 l 1
EndSplineSet
Validated: 3073
Substitution2: "'c2sc' caps to small caps in Latin-1" sc.v
Substitution2: "'sups' superscript-latin" Vsup
EndChar

StartChar: W
Encoding: 87 87 55
Width: 959
Flags: MW
AnchorPoint: "middle" 477 377 basechar 0
AnchorPoint: "below" 479 0 basechar 0
AnchorPoint: "above" 475 730 basechar 0
LayerCount: 2
Fore
SplineSet
737 0 m 1
 602 0 l 1
 480 569 l 1
 361 0 l 1
 226 0 l 1
 20 729 l 1
 179 729 l 1
 292 183 l 1
 405 729 l 1
 553 729 l 1
 671 182 l 1
 780 729 l 1
 939 729 l 1
 737 0 l 1
EndSplineSet
Validated: 3073
Substitution2: "'c2sc' caps to small caps in Latin-1" sc.w
Substitution2: "'sups' superscript-latin" Wsup
EndChar

StartChar: X
Encoding: 88 88 56
Width: 675
Flags: HMW
AnchorPoint: "middle" 339 377 basechar 0
AnchorPoint: "below" 337 0 basechar 0
AnchorPoint: "above" 344 730 basechar 0
LayerCount: 2
Fore
SplineSet
419 372 m 1
 653 0 l 1
 475 0 l 1
 335 253 l 1
 196 0 l 1
 22 0 l 1
 252 367 l 1
 30 729 l 1
 208 729 l 1
 336 489 l 1
 470 729 l 1
 644 729 l 1
 419 372 l 1
EndSplineSet
Validated: 3073
Substitution2: "'c2sc' caps to small caps in Latin-1" sc.x
Substitution2: "'sups' superscript-latin" sup.X
EndChar

StartChar: Y
Encoding: 89 89 57
Width: 643
Flags: MW
AnchorPoint: "middle" 324 377 basechar 0
AnchorPoint: "ogonek" 370 0 basechar 0
AnchorPoint: "below" 330 0 basechar 0
AnchorPoint: "above" 325 730 basechar 0
LayerCount: 2
Fore
SplineSet
402 270 m 1
 402 0 l 1
 252 0 l 1
 252 270 l 1
 10 729 l 1
 177 729 l 1
 326 407 l 1
 465 729 l 1
 633 729 l 1
 402 270 l 1
EndSplineSet
Validated: 3073
Substitution2: "'c2sc' caps to small caps in Latin-1" sc.y
Substitution2: "'sups' superscript-latin" sup.Y
EndChar

StartChar: Z
Encoding: 90 90 58
Width: 608
Flags: MW
AnchorPoint: "middle" 317 377 basechar 0
AnchorPoint: "below" 301 0 basechar 0
AnchorPoint: "above" 320 730 basechar 0
LayerCount: 2
Fore
SplineSet
578 729 m 1
 578 604 l 1
 206 125 l 1
 578 125 l 1
 578 0 l 1
 30 0 l 1
 30 125 l 1
 403 604 l 1
 30 604 l 1
 30 729 l 1
 578 729 l 1
EndSplineSet
Validated: 3073
Substitution2: "'c2sc' caps to small caps in Latin-1" sc.z
Substitution2: "'sups' superscript-latin" sup.Z
EndChar

StartChar: bracketleft
Encoding: 91 91 59
Width: 333
Flags: MW
LayerCount: 2
Fore
SplineSet
308 729 m 1
 308 627 l 1
 196 627 l 1
 196 -98 l 1
 308 -98 l 1
 308 -200 l 1
 66 -200 l 1
 66 729 l 1
 308 729 l 1
EndSplineSet
Validated: 1
EndChar

StartChar: backslash
Encoding: 92 92 60
Width: 278
Flags: MW
LayerCount: 2
Fore
SplineSet
55 714 m 1
 289 -14 l 1
 222 -14 l 1
 -12 714 l 1
 55 714 l 1
EndSplineSet
Validated: 1
EndChar

StartChar: bracketright
Encoding: 93 93 61
Width: 333
Flags: MW
LayerCount: 2
Fore
SplineSet
18 -200 m 1
 18 -98 l 1
 130 -98 l 1
 130 627 l 1
 18 627 l 1
 18 729 l 1
 260 729 l 1
 260 -200 l 1
 18 -200 l 1
EndSplineSet
Validated: 1
EndChar

StartChar: asciicircum
Encoding: 94 94 62
Width: 584
Flags: MW
LayerCount: 2
Fore
SplineSet
522 270 m 1
 409 270 l 1
 288 570 l 1
 173 270 l 1
 61 270 l 1
 226 695 l 1
 351 695 l 1
 522 270 l 1
EndSplineSet
Validated: 1
EndChar

StartChar: underscore
Encoding: 95 95 63
Width: 500
Flags: HMW
LayerCount: 2
Fore
SplineSet
500 -120 m 1
 500 -200 l 1
 0 -200 l 1
 0 -120 l 1
 500 -120 l 1
EndSplineSet
Validated: 3073
EndChar

StartChar: grave
Encoding: 96 96 64
Width: 333
Flags: HMW
LayerCount: 2
Fore
SplineSet
36 757 m 1
 162 757 l 1
 232 607 l 1
 162 607 l 1
 36 757 l 1
EndSplineSet
Validated: 3073
EndChar

StartChar: a
Encoding: 97 97 65
Width: 566
Flags: MW
AnchorPoint: "topright" 425 550 basechar 0
AnchorPoint: "middle" 285 293 basechar 0
AnchorPoint: "ogonek" 463 0 basechar 0 {150-150 0} {}
AnchorPoint: "below" 266 0 basechar 0
AnchorPoint: "above" 286 550 basechar 0
LayerCount: 2
Fore
SplineSet
204 -23 m 0
 106 -23 40 42 40 139 c 0
 40 236 92 291 199 309 c 2
 255 319 l 2
 301 326 367 329 367 382 c 0
 367 418 340 436 286 436 c 0
 217 436 194 418 187 362 c 1
 52 362 l 1
 61 487 137 549 283 549 c 0
 429 549 504 493 504 383 c 2
 504 83 l 2
 504 55 511 40 536 17 c 1
 536 0 l 1
 384 0 l 1
 371 16 368 26 368 54 c 1
 319 3 264 -23 204 -23 c 0
367 217 m 2
 367 255 l 1
 351 247 345 245 308 238 c 2
 260 229 l 2
 202 217 180 197 180 155 c 0
 180 115 209 90 256 90 c 0
 327 90 367 136 367 217 c 2
EndSplineSet
Validated: 3073
Substitution2: "'smcp' lowercase to small caps in Latin-1" sc.a
Substitution2: "'subs' subscript-latin" asub
Substitution2: "'sups' superscript-latin" asup
EndChar

StartChar: b
Encoding: 98 98 66
Width: 621
Flags: HMW
AnchorPoint: "topright" 465 550 basechar 0
AnchorPoint: "middle" 328 293 basechar 0
AnchorPoint: "below" 330 0 basechar 0
AnchorPoint: "above" 326 730 basechar 0
LayerCount: 2
Fore
SplineSet
354 549 m 0
 482 549 581 432 581 263 c 0
 581 100 483 -23 354 -23 c 0
 286 -23 239 2 205 55 c 1
 205 0 l 1
 65 0 l 1
 65 729 l 1
 205 729 l 1
 205 470 l 1
 239 524 287 549 354 549 c 0
323 432 m 0
 253 432 205 363 205 265 c 0
 205 162 252 94 323 94 c 0
 392 94 441 164 441 262 c 0
 441 362 392 432 323 432 c 0
EndSplineSet
Validated: 3073
Substitution2: "'smcp' lowercase to small caps in Latin-1" sc.b
Substitution2: "'subs' subscript-latin" sub.b
Substitution2: "'sups' superscript-latin" bsup
EndChar

StartChar: c
Encoding: 99 99 67
Width: 558
Flags: HMW
AnchorPoint: "topright" 425 550 basechar 0
AnchorPoint: "middle" 292 293 basechar 0
AnchorPoint: "below" 295 0 basechar 0
AnchorPoint: "above" 295 550 basechar 0
LayerCount: 2
Fore
SplineSet
294 436 m 0
 197 436 180 334 180 259 c 0
 180 154 223 90 294 90 c 0
 348 90 376 117 394 187 c 1
 528 187 l 1
 515 58 424 -23 293 -23 c 0
 133 -23 40 81 40 259 c 0
 40 443 134 549 295 549 c 0
 430 549 518 470 528 338 c 1
 394 338 l 1
 378 409 351 436 294 436 c 0
EndSplineSet
Validated: 3073
Substitution2: "'smcp' lowercase to small caps in Latin-1" sc.c
Substitution2: "'subs' subscript-latin" sub.c
Substitution2: "'sups' superscript-latin" csuper
EndChar

StartChar: d
Encoding: 100 100 68
Width: 621
Flags: HMW
AnchorPoint: "topright" 605 550 basechar 0
AnchorPoint: "middle" 294 293 basechar 0
AnchorPoint: "below" 282 0 basechar 0
AnchorPoint: "above" 299 730 basechar 0
LayerCount: 2
Fore
SplineSet
267 -23 m 0
 131 -23 40 104 40 262 c 0
 40 425 138 549 267 549 c 0
 334 549 381 524 416 470 c 1
 416 729 l 1
 556 729 l 1
 556 0 l 1
 416 0 l 1
 416 55 l 1
 381 2 334 -23 267 -23 c 0
298 432 m 0
 228 432 180 362 180 262 c 0
 180 163 228 94 298 94 c 0
 368 94 416 162 416 260 c 0
 416 363 369 432 298 432 c 0
EndSplineSet
Validated: 3073
Substitution2: "'smcp' lowercase to small caps in Latin-1" sc.d
Substitution2: "'subs' subscript-latin" sub.d
Substitution2: "'sups' superscript-latin" dsup
EndChar

StartChar: e
Encoding: 101 101 69
Width: 583
Flags: HMW
AnchorPoint: "topright" 455 550 basechar 0
AnchorPoint: "middle" 291 293 basechar 0
AnchorPoint: "ogonek" 355 0 basechar 0
AnchorPoint: "below" 292 0 basechar 0
AnchorPoint: "above" 292 550 basechar 0
LayerCount: 2
Fore
SplineSet
290 549 m 0
 398 549 543 489 543 250 c 0
 543 243 543 238 542 226 c 1
 180 226 l 1
 183 153 198 84 292 84 c 0
 343 84 382 109 399 152 c 1
 537 152 l 1
 506 46 408 -23 287 -23 c 0
 134 -23 40 83 40 256 c 0
 40 437 135 549 290 549 c 0
397 319 m 1
 391 398 353 442 288 442 c 0
 226 442 191 401 182 319 c 1
 397 319 l 1
EndSplineSet
Validated: 3073
Substitution2: "'smcp' lowercase to small caps in Latin-1" sc.e
Substitution2: "'subs' subscript-latin" esub
Substitution2: "'sups' superscript-latin" esup
EndChar

StartChar: f
Encoding: 102 102 70
Width: 343
Flags: HMW
AnchorPoint: "topright" 345 550 basechar 0
AnchorPoint: "middle" 165 293 basechar 0
AnchorPoint: "below" 161 0 basechar 0
AnchorPoint: "above" 229 730 basechar 0
LayerCount: 2
Fore
SplineSet
313 529 m 1
 313 436 l 1
 230 436 l 1
 230 0 l 1
 90 0 l 1
 90 436 l 1
 14 436 l 1
 14 529 l 1
 90 529 l 1
 90 594 l 2
 90 685 135 729 228 729 c 0
 247 729 282 728 308 726 c 1
 308 621 l 1
 296 623 280 624 268 624 c 0
 242 624 230 610 230 582 c 2
 230 529 l 1
 313 529 l 1
EndSplineSet
Validated: 3073
Substitution2: "'smcp' lowercase to small caps in Latin-1" sc.f
Substitution2: "'subs' subscript-latin" sub.f
Substitution2: "'sups' superscript-latin" fsup
EndChar

StartChar: g
Encoding: 103 103 71
Width: 612
Flags: HMW
AnchorPoint: "topright" 435 550 basechar 0
AnchorPoint: "below" 295 -200 basechar 0
AnchorPoint: "middle" 292 293 basechar 0
AnchorPoint: "above" 285 550 basechar 0
LayerCount: 2
Fore
SplineSet
414 540 m 1
 547 540 l 1
 547 -18 l 2
 547 -145 453 -218 290 -218 c 0
 147 -218 53 -159 51 -65 c 1
 196 -65 l 1
 207 -106 242 -128 295 -128 c 0
 365 -128 414 -83 414 -18 c 2
 414 55 l 1
 362 -4 324 -23 261 -23 c 0
 128 -23 40 89 40 257 c 0
 40 424 136 549 264 549 c 0
 326 549 372 521 414 457 c 1
 414 540 l 1
294 432 m 0
 226 432 180 361 180 259 c 0
 180 161 226 94 292 94 c 0
 365 94 416 161 416 259 c 0
 416 359 364 432 294 432 c 0
EndSplineSet
Validated: 3073
Substitution2: "'smcp' lowercase to small caps in Latin-1" sc.g
Substitution2: "'subs' subscript-latin" sub.g
Substitution2: "'sups' superscript-latin" gsup
EndChar

StartChar: h
Encoding: 104 104 72
Width: 604
Flags: HMW
AnchorPoint: "topright" 435 550 basechar 0
AnchorPoint: "middle" 303 293 basechar 0
AnchorPoint: "below" 302 0 basechar 0
AnchorPoint: "above" 318 730 basechar 0
LayerCount: 2
Fore
SplineSet
399 330 m 2
 399 388 378 430 313 430 c 0
 250 430 205 386 205 324 c 2
 205 0 l 1
 65 0 l 1
 65 729 l 1
 205 729 l 1
 205 462 l 1
 244 521 294 549 363 549 c 0
 440 549 539 512 539 362 c 2
 539 0 l 1
 399 0 l 1
 399 330 l 2
EndSplineSet
Validated: 3073
Substitution2: "'smcp' lowercase to small caps in Latin-1" sc.h
Substitution2: "'subs' subscript-latin" hsub
Substitution2: "'sups' superscript-latin" hsuper
EndChar

StartChar: i
Encoding: 105 105 73
Width: 280
Flags: HMW
AnchorPoint: "topright" 265 550 basechar 0
AnchorPoint: "middle" 140 293 basechar 0
AnchorPoint: "ogonek" 167 0 basechar 0
AnchorPoint: "below" 137 0 basechar 0
AnchorPoint: "above" 141 730 basechar 0
LayerCount: 2
Fore
SplineSet
210 540 m 1
 210 0 l 1
 70 0 l 1
 70 540 l 1
 210 540 l 1
210 729 m 1
 210 604 l 1
 70 604 l 1
 70 729 l 1
 210 729 l 1
EndSplineSet
Validated: 3073
Substitution2: "subst. i,j with dotless form-1" dotlessi
Substitution2: "'smcp' lowercase to small caps in Latin-1" sc.i
Substitution2: "'subs' subscript-latin" isub
Substitution2: "'sups' superscript-latin" isuperior
Substitution2: "'smcp' Lowercase to Small Capitals in Latin for Turkish subtable" sc.i_dot
EndChar

StartChar: j
Encoding: 106 106 74
Width: 280
Flags: HMW
AnchorPoint: "topright" 265 550 basechar 0
AnchorPoint: "below" 119 -200 basechar 0
AnchorPoint: "middle" 138 293 basechar 0
AnchorPoint: "above" 142 730 basechar 0
LayerCount: 2
Fore
SplineSet
210 540 m 1
 210 -94 l 2
 210 -182 174 -218 87 -218 c 0
 67 -218 32 -216 4 -213 c 1
 4 -101 l 1
 14 -104 20 -105 29 -105 c 0
 59 -105 70 -94 70 -63 c 2
 70 540 l 1
 210 540 l 1
210 729 m 1
 210 604 l 1
 70 604 l 1
 70 729 l 1
 210 729 l 1
EndSplineSet
Validated: 3073
Substitution2: "subst. i,j with dotless form-1" dotlessj
Substitution2: "'smcp' lowercase to small caps in Latin-1" sc.j
Substitution2: "'subs' subscript-latin" sub.j
Substitution2: "'sups' superscript-latin" jsuper
EndChar

StartChar: k
Encoding: 107 107 75
Width: 564
Flags: HMW
AnchorPoint: "topright" 425 550 basechar 0
AnchorPoint: "middle" 262 293 basechar 0
AnchorPoint: "below" 279 0 basechar 0
AnchorPoint: "above" 304 730 basechar 0
LayerCount: 2
Fore
SplineSet
205 330 m 1
 382 540 l 1
 541 540 l 1
 357 336 l 1
 554 0 l 1
 390 0 l 1
 261 238 l 1
 205 177 l 1
 205 0 l 1
 65 0 l 1
 65 729 l 1
 205 729 l 1
 205 330 l 1
EndSplineSet
Validated: 3073
Substitution2: "'smcp' lowercase to small caps in Latin-1" sc.k
Substitution2: "'subs' subscript-latin" ksub
Substitution2: "'sups' superscript-latin" ksup
EndChar

StartChar: l
Encoding: 108 108 76
Width: 270
Flags: HMW
AnchorPoint: "topright" 265 550 basechar 0
AnchorPoint: "middle" 136 293 basechar 0
AnchorPoint: "below" 132 0 basechar 0
AnchorPoint: "above" 141 730 basechar 0
LayerCount: 2
Fore
SplineSet
205 729 m 1
 205 0 l 1
 65 0 l 1
 65 729 l 1
 205 729 l 1
EndSplineSet
Validated: 3073
Substitution2: "'smcp' lowercase to small caps in Latin-1" sc.l
Substitution2: "'subs' subscript-latin" lsub
Substitution2: "'sups' superscript-latin" lsuper
EndChar

StartChar: m
Encoding: 109 109 77
Width: 894
Flags: HMW
AnchorPoint: "topright" 725 550 basechar 0
AnchorPoint: "middle" 450 293 basechar 0
AnchorPoint: "below" 446 0 basechar 0
AnchorPoint: "above" 446 550 basechar 0
LayerCount: 2
Fore
SplineSet
65 540 m 1
 204 540 l 1
 204 473 l 1
 250 528 290 549 352 549 c 0
 419 549 473 520 499 469 c 1
 541 525 589 549 657 549 c 0
 765 549 829 487 829 382 c 2
 829 0 l 1
 689 0 l 1
 689 360 l 2
 689 403 660 430 613 430 c 0
 553 430 517 390 517 324 c 2
 517 0 l 1
 377 0 l 1
 377 360 l 2
 377 403 348 430 301 430 c 0
 241 430 205 390 205 324 c 2
 205 0 l 1
 65 0 l 1
 65 540 l 1
EndSplineSet
Validated: 3073
Substitution2: "'smcp' lowercase to small caps in Latin-1" sc.m
Substitution2: "'subs' subscript-latin" msub
Substitution2: "'sups' superscript-latin" msup
EndChar

StartChar: n
Encoding: 110 110 78
Width: 613
Flags: HMW
AnchorPoint: "topright" 445 550 basechar 0
AnchorPoint: "middle" 309 293 basechar 0
AnchorPoint: "below" 304 0 basechar 0
AnchorPoint: "above" 335 550 basechar 0
LayerCount: 2
Fore
SplineSet
65 540 m 1
 205 540 l 1
 205 462 l 1
 245 522 294 549 367 549 c 0
 482 549 548 481 548 362 c 2
 548 0 l 1
 408 0 l 1
 408 333 l 2
 408 397 378 430 318 430 c 0
 250 430 205 388 205 324 c 2
 205 0 l 1
 65 0 l 1
 65 540 l 1
EndSplineSet
Validated: 3073
Substitution2: "'smcp' lowercase to small caps in Latin-1" sc.n
EndChar

StartChar: o
Encoding: 111 111 79
Width: 614
Flags: HMW
AnchorPoint: "far-right-dot" 510 420 basechar 0
AnchorPoint: "topright" 455 550 basechar 0
AnchorPoint: "middle" 305 293 basechar 0
AnchorPoint: "ogonek" 384 0 basechar 0
AnchorPoint: "below" 312 0 basechar 0
AnchorPoint: "above" 310 550 basechar 0
LayerCount: 2
Fore
SplineSet
306 549 m 0
 475 549 574 442 574 259 c 0
 574 86 471 -23 307 -23 c 0
 141 -23 40 85 40 263 c 0
 40 440 141 549 306 549 c 0
307 436 m 0
 231 436 180 366 180 263 c 0
 180 160 231 90 307 90 c 0
 382 90 434 160 434 261 c 0
 434 367 384 436 307 436 c 0
EndSplineSet
Validated: 3073
Substitution2: "'smcp' lowercase to small caps in Latin-1" sc.o
Substitution2: "'subs' subscript-latin" osub
Substitution2: "'sups' superscript-latin" osup
EndChar

StartChar: p
Encoding: 112 112 80
Width: 621
Flags: HMW
AnchorPoint: "topright" 465 550 basechar 0
AnchorPoint: "middle" 322 293 basechar 0
AnchorPoint: "below" 362 -200 basechar 0
AnchorPoint: "above" 321 550 basechar 0
LayerCount: 2
Fore
SplineSet
355 549 m 0
 495 549 581 421 581 262 c 0
 581 98 485 -24 355 -24 c 0
 287 -24 239 4 205 64 c 1
 205 -218 l 1
 65 -218 l 1
 65 540 l 1
 205 540 l 1
 205 460 l 1
 239 520 287 549 355 549 c 0
323 432 m 0
 253 432 205 363 205 262 c 0
 205 161 253 93 323 93 c 0
 392 93 441 162 441 260 c 0
 441 363 394 432 323 432 c 0
EndSplineSet
Validated: 3073
Substitution2: "'smcp' lowercase to small caps in Latin-1" sc.p
Substitution2: "'subs' subscript-latin" psub
Substitution2: "'sups' superscript-latin" psup
EndChar

StartChar: q
Encoding: 113 113 81
Width: 621
Flags: HMW
AnchorPoint: "topright" 445 550 basechar 0
AnchorPoint: "below" 301 -200 basechar 0
AnchorPoint: "middle" 285 293 basechar 0
AnchorPoint: "above" 278 550 basechar 0
LayerCount: 2
Fore
SplineSet
265 -24 m 0
 130 -24 40 98 40 262 c 0
 40 427 136 549 266 549 c 0
 333 549 383 519 416 460 c 1
 416 540 l 1
 556 540 l 1
 556 -218 l 1
 416 -218 l 1
 416 64 l 1
 383 5 333 -24 265 -24 c 0
298 432 m 0
 228 432 180 363 180 262 c 0
 180 161 228 93 298 93 c 0
 368 93 416 161 416 259 c 0
 416 364 369 432 298 432 c 0
EndSplineSet
Validated: 3073
Substitution2: "'smcp' lowercase to small caps in Latin-1" sc.q
Substitution2: "'subs' subscript-latin" sub.q
Substitution2: "'sups' superscript-latin" sup.q
EndChar

StartChar: r
Encoding: 114 114 82
Width: 392
Flags: HMW
AnchorPoint: "topright" 315 550 basechar 0
AnchorPoint: "middle" 134 293 basechar 0
AnchorPoint: "below" 137 0 basechar 0
AnchorPoint: "above" 223 550 basechar 0
LayerCount: 2
Fore
SplineSet
65 540 m 1
 205 540 l 1
 205 434 l 1
 235 507 291 549 355 549 c 0
 359 549 364 549 372 548 c 1
 372 406 l 1
 353 409 343 410 328 410 c 0
 246 410 205 369 205 287 c 2
 205 0 l 1
 65 0 l 1
 65 540 l 1
EndSplineSet
Validated: 3073
Substitution2: "'smcp' lowercase to small caps in Latin-1" sc.r
Substitution2: "'subs' subscript-latin" rsub
Substitution2: "'sups' superscript-latin" rsuper
EndChar

StartChar: s
Encoding: 115 115 83
Width: 556
Flags: HMW
AnchorPoint: "topright" 415 550 basechar 0
AnchorPoint: "middle" 280 293 basechar 0
AnchorPoint: "below" 290 0 basechar 0
AnchorPoint: "above" 273 550 basechar 0
LayerCount: 2
Fore
SplineSet
167 157 m 1
 175 120 189 87 277 87 c 0
 342 87 381 107 381 140 c 0
 381 162 369 173 334 184 c 2
 167 236 l 2
 136 246 49 263 49 369 c 0
 49 480 134 549 271 549 c 0
 416 549 504 480 506 366 c 1
 371 366 l 1
 370 415 337 439 270 439 c 0
 221 439 189 419 189 389 c 0
 189 367 199 359 238 347 c 2
 415 296 l 2
 486 275 521 230 521 160 c 0
 521 85 474 -23 285 -23 c 0
 121 -23 34 39 30 157 c 1
 167 157 l 1
EndSplineSet
Validated: 3073
Substitution2: "'smcp' lowercase to small caps in Latin-1" sc.s
Substitution2: "'subs' subscript-latin" ssub
Substitution2: "'sups' superscript-latin" ssuper
EndChar

StartChar: t
Encoding: 116 116 84
Width: 338
Flags: HMW
AnchorPoint: "topright" 325 550 basechar 0
AnchorPoint: "middle" 160 293 basechar 0
AnchorPoint: "below" 216 0 basechar 0
AnchorPoint: "above" 162 674 basechar 0
LayerCount: 2
Fore
SplineSet
308 529 m 1
 308 436 l 1
 230 436 l 1
 230 142 l 2
 230 94 239 83 276 83 c 0
 286 83 294 84 308 86 c 1
 308 -12 l 1
 283 -20 258 -23 227 -23 c 0
 135 -23 90 19 90 104 c 2
 90 436 l 1
 21 436 l 1
 21 529 l 1
 90 529 l 1
 90 674 l 1
 230 674 l 1
 230 529 l 1
 308 529 l 1
EndSplineSet
Validated: 3073
Substitution2: "'smcp' lowercase to small caps in Latin-1" sc.t
Substitution2: "'subs' subscript-latin" tsub
Substitution2: "'sups' superscript-latin" tsup
EndChar

StartChar: u
Encoding: 117 117 85
Width: 613
Flags: HMW
AnchorPoint: "topright" 435 550 basechar 0
AnchorPoint: "middle" 300 293 basechar 0
AnchorPoint: "ogonek" 488 0 basechar 0 {150-150 -128} {}
AnchorPoint: "below" 296 0 basechar 0
AnchorPoint: "above" 313 550 basechar 0
LayerCount: 2
Fore
SplineSet
548 0 m 1
 408 0 l 1
 408 64 l 1
 368 4 319 -23 246 -23 c 0
 131 -23 65 45 65 164 c 2
 65 540 l 1
 205 540 l 1
 205 193 l 2
 205 128 235 96 295 96 c 0
 363 96 408 138 408 202 c 2
 408 540 l 1
 548 540 l 1
 548 0 l 1
EndSplineSet
Validated: 3073
Substitution2: "'smcp' lowercase to small caps in Latin-1" sc.u
Substitution2: "'subs' subscript-latin" usub
Substitution2: "'sups' superscript-latin" usup
EndChar

StartChar: v
Encoding: 118 118 86
Width: 542
Flags: HMW
AnchorPoint: "topright" 415 550 basechar 0
AnchorPoint: "above" 272 539 basechar 0
AnchorPoint: "middle" 270 293 basechar 0
AnchorPoint: "below" 273 0 basechar 0
LayerCount: 2
Fore
SplineSet
346 0 m 1
 199 0 l 1
 10 540 l 1
 158 540 l 1
 275 145 l 1
 384 540 l 1
 532 540 l 1
 346 0 l 1
EndSplineSet
Validated: 3073
Substitution2: "'smcp' lowercase to small caps in Latin-1" sc.v
Substitution2: "'subs' subscript-latin" vsub
Substitution2: "'sups' superscript-latin" vsup
EndChar

StartChar: w
Encoding: 119 119 87
Width: 781
Flags: HMW
AnchorPoint: "topright" 675 550 basechar 0
AnchorPoint: "middle" 391 293 basechar 0
AnchorPoint: "below" 392 0 basechar 0
AnchorPoint: "above" 390 539 basechar 0
LayerCount: 2
Fore
SplineSet
618 0 m 1
 473 0 l 1
 392 381 l 1
 306 0 l 1
 162 0 l 1
 10 540 l 1
 155 540 l 1
 241 162 l 1
 323 540 l 1
 463 540 l 1
 544 162 l 1
 626 540 l 1
 771 540 l 1
 618 0 l 1
EndSplineSet
Validated: 3073
Substitution2: "'smcp' lowercase to small caps in Latin-1" sc.w
Substitution2: "'subs' subscript-latin" sub.w
Substitution2: "'sups' superscript-latin" wsuper
EndChar

StartChar: x
Encoding: 120 120 88
Width: 549
Flags: HMW
AnchorPoint: "topright" 415 550 basechar 0
AnchorPoint: "middle" 272 293 basechar 0
AnchorPoint: "below" 277 0 basechar 0
AnchorPoint: "above" 282 539 basechar 0
LayerCount: 2
Fore
SplineSet
354 272 m 1
 534 0 l 1
 366 0 l 1
 275 168 l 1
 183 0 l 1
 15 0 l 1
 195 272 l 1
 19 540 l 1
 187 540 l 1
 275 377 l 1
 362 540 l 1
 530 540 l 1
 354 272 l 1
EndSplineSet
Validated: 3073
Substitution2: "'smcp' lowercase to small caps in Latin-1" sc.x
Substitution2: "'subs' subscript-latin" xsub
Substitution2: "'sups' superscript-latin" xsuper
EndChar

StartChar: y
Encoding: 121 121 89
Width: 549
Flags: HMW
AnchorPoint: "topright" 425 550 basechar 0
AnchorPoint: "middle" 274 293 basechar 0
AnchorPoint: "ogonek" 438 0 basechar 0 {150-150 -112} {}
AnchorPoint: "below" 456 0 basechar 0
AnchorPoint: "above" 279 550 basechar 0
LayerCount: 2
Fore
SplineSet
211 -26 m 2
 211 -22 l 1
 10 540 l 1
 164 540 l 1
 283 147 l 1
 395 540 l 1
 539 540 l 1
 317 -99 l 2
 304 -136 290 -219 137 -219 c 0
 120 -219 108 -218 87 -215 c 1
 87 -110 l 1
 105 -115 113 -116 124 -116 c 0
 173 -116 211 -77 211 -26 c 2
EndSplineSet
Validated: 3073
Substitution2: "'smcp' lowercase to small caps in Latin-1" sc.y
Substitution2: "'subs' subscript-latin" sub.y
Substitution2: "'sups' superscript-latin" ysuper
EndChar

StartChar: z
Encoding: 122 122 90
Width: 507
Flags: HMW
AnchorPoint: "topright" 385 550 basechar 0
AnchorPoint: "middle" 260 293 basechar 0
AnchorPoint: "below" 252 0 basechar 0
AnchorPoint: "above" 259 539 basechar 0
LayerCount: 2
Fore
SplineSet
468 540 m 1
 468 427 l 1
 203 113 l 1
 477 113 l 1
 477 0 l 1
 30 0 l 1
 30 113 l 1
 297 427 l 1
 48 427 l 1
 48 540 l 1
 468 540 l 1
EndSplineSet
Validated: 3073
Substitution2: "'smcp' lowercase to small caps in Latin-1" sc.z
Substitution2: "'subs' subscript-latin" sub.z
Substitution2: "'sups' superscript-latin" zsup
EndChar

StartChar: braceleft
Encoding: 123 123 91
Width: 389
Flags: MW
LayerCount: 2
Fore
SplineSet
118 150 m 2
 118 209 102 222 41 222 c 2
 37 223 l 1
 37 315 l 1
 53 315 l 2
 98 316 118 335 118 378 c 2
 118 589 l 2
 118 671 169 729 241 729 c 2
 317 729 l 1
 317 630 l 1
 280 630 l 2
 249 630 235 613 235 573 c 2
 235 378 l 2
 235 305 213 280 138 269 c 1
 213 257 235 232 235 159 c 2
 235 -36 l 2
 235 -85 246 -101 280 -101 c 2
 317 -101 l 1
 317 -200 l 1
 241 -200 l 2
 169 -200 118 -142 118 -60 c 2
 118 150 l 2
EndSplineSet
Validated: 1
EndChar

StartChar: bar
Encoding: 124 124 92
Width: 280
Flags: MW
LayerCount: 2
Fore
SplineSet
180 729 m 1
 180 -200 l 1
 100 -200 l 1
 100 729 l 1
 180 729 l 1
EndSplineSet
Validated: 1
EndChar

StartChar: braceright
Encoding: 125 125 93
Width: 389
Flags: MW
LayerCount: 2
Fore
SplineSet
271 379 m 2
 271 320 287 307 348 307 c 2
 352 306 l 1
 352 214 l 1
 336 214 l 2
 291 213 271 194 271 151 c 2
 271 -60 l 2
 271 -142 220 -200 148 -200 c 2
 72 -200 l 1
 72 -101 l 1
 109 -101 l 2
 140 -101 154 -84 154 -44 c 2
 154 151 l 2
 154 224 176 249 251 260 c 1
 176 272 154 297 154 370 c 2
 154 565 l 2
 154 614 143 630 109 630 c 2
 72 630 l 1
 72 729 l 1
 148 729 l 2
 220 729 271 671 271 589 c 2
 271 379 l 2
EndSplineSet
Validated: 1
EndChar

StartChar: asciitilde
Encoding: 126 126 94
Width: 500
Flags: HMW
AnchorPoint: "middle" 255 233 basechar 0
LayerCount: 2
Fore
SplineSet
348 222 m 0
 396 222 400 249 401 288 c 1
 479 288 l 1
 473 190 432 142 352 142 c 0
 319 142 295 150 269 168 c 2
 212 210 l 2
 189 227 172 234 151 234 c 0
 105 234 100 209 98 169 c 1
 20 169 l 1
 25 266 68 314 147 314 c 0
 180 314 206 306 230 289 c 2
 287 247 l 2
 313 228 327 222 348 222 c 0
EndSplineSet
Validated: 3073
EndChar

StartChar: cent
Encoding: 162 162 96
Width: 556
Flags: HMW
AnchorPoint: "middle" 279 271 basechar 0
LayerCount: 2
Fore
SplineSet
303 435 m 1
 303 91 l 1
 349 98 373 126 388 187 c 1
 522 187 l 1
 511 67 422 -18 303 -23 c 1
 303 -124 l 1
 259 -124 l 1
 259 -22 l 1
 120 -13 36 93 36 259 c 0
 36 431 114 533 259 548 c 1
 259 634 l 1
 303 634 l 1
 303 549 l 1
 426 547 514 462 522 338 c 1
 388 338 l 1
 375 400 350 428 303 435 c 1
259 94 m 1
 259 433 l 1
 205 419 176 359 176 260 c 0
 176 167 205 110 259 94 c 1
EndSplineSet
Validated: 3073
EndChar

StartChar: sterling
Encoding: 163 163 97
Width: 556
Flags: HMW
AnchorPoint: "middle" 279 351 basechar 0
LayerCount: 2
Fore
SplineSet
179 513 m 0
 179 476 212 431 236 371 c 1
 375 371 l 1
 375 316 l 1
 253 316 l 1
 265 290 268 277 268 257 c 0
 268 199 237 153 152 86 c 1
 215 116 235 123 264 123 c 0
 310 123 341 102 391 102 c 0
 424 102 456 111 496 131 c 1
 537 22 l 1
 481 -11 441 -23 392 -23 c 0
 322 -23 265 9 195 9 c 0
 157 9 130 1 86 -21 c 1
 31 80 l 1
 115 137 141 173 141 231 c 0
 141 256 136 277 120 316 c 1
 31 316 l 1
 31 371 l 1
 91 371 l 1
 46 450 38 472 38 516 c 0
 38 624 127 715 276 715 c 0
 485 715 514 581 522 484 c 1
 390 484 l 1
 389 495 l 2
 383 540 367 604 277 604 c 0
 220 604 179 566 179 513 c 0
EndSplineSet
Validated: 3073
EndChar

StartChar: currency
Encoding: 164 164 98
Width: 556
Flags: HMW
AnchorPoint: "middle" 279 351 basechar 0
LayerCount: 2
Fore
SplineSet
388 528 m 1
 461 601 l 1
 530 532 l 1
 455 457 l 1
 475 417 482 392 482 354 c 0
 482 315 473 281 453 246 c 1
 530 170 l 1
 461 102 l 1
 386 177 l 1
 340 152 322 147 286 147 c 0
 246 147 201 159 175 178 c 1
 96 100 l 1
 28 169 l 1
 106 246 l 1
 84 286 76 314 76 352 c 0
 76 390 86 427 105 457 c 1
 26 536 l 1
 95 604 l 1
 172 527 l 1
 203 546 244 558 281 558 c 0
 318 558 359 546 388 528 c 1
280 460 m 0
 220 460 172 413 172 352 c 0
 172 293 220 245 279 245 c 0
 338 245 386 293 386 353 c 0
 386 411 338 460 280 460 c 0
EndSplineSet
Validated: 3073
EndChar

StartChar: yen
Encoding: 165 165 99
Width: 556
Flags: HMW
AnchorPoint: "middle" 279 351 basechar 0
LayerCount: 2
Fore
SplineSet
497 351 m 1
 497 292 l 1
 355 292 l 1
 355 239 l 1
 497 239 l 1
 497 180 l 1
 355 180 l 1
 355 0 l 1
 215 0 l 1
 215 180 l 1
 70 180 l 1
 70 239 l 1
 215 239 l 1
 215 292 l 1
 70 292 l 1
 70 351 l 1
 208 351 l 1
 5 704 l 1
 144 704 l 1
 283 450 l 1
 417 704 l 1
 552 704 l 1
 360 351 l 1
 497 351 l 1
EndSplineSet
Validated: 3073
EndChar

StartChar: brokenbar
Encoding: 166 166 100
Width: 280
Flags: MW
LayerCount: 2
Fore
SplineSet
180 729 m 1
 180 340 l 1
 100 340 l 1
 100 729 l 1
 180 729 l 1
180 189 m 1
 180 -200 l 1
 100 -200 l 1
 100 189 l 1
 180 189 l 1
EndSplineSet
Validated: 1
EndChar

StartChar: section
Encoding: 167 167 101
Width: 556
Flags: MW
LayerCount: 2
Fore
SplineSet
125 428 m 1
 105 448 64 481 64 551 c 0
 64 651 152 723 273 723 c 0
 360 723 467 693 473 544 c 1
 346 544 l 1
 339 597 315 621 268 621 c 0
 230 621 204 601 204 570 c 0
 204 542 223 524 294 485 c 2
 421 415 l 2
 487 378 518 330 518 262 c 0
 518 195 491 155 424 124 c 1
 471 91 494 47 494 -10 c 0
 494 -124 406 -201 276 -201 c 0
 137 -201 66 -133 65 0 c 1
 196 0 l 1
 196 -10 l 2
 199 -57 215 -90 277 -90 c 0
 322 -90 353 -65 353 -29 c 0
 353 15 319 29 283 49 c 2
 112 149 l 2
 61 179 33 226 33 281 c 0
 33 341 54 374 125 428 c 1
337 306 m 2
 194 382 l 1
 164 364 152 346 152 317 c 0
 152 286 165 269 205 247 c 2
 352 167 l 1
 386 191 398 209 398 232 c 0
 398 264 384 281 337 306 c 2
EndSplineSet
Validated: 1
EndChar

StartChar: copyright
Encoding: 169 169 103
Width: 737
Flags: HMW
AnchorPoint: "middle" 369 361 basechar 0
LayerCount: 2
Fore
SplineSet
552 431 m 1
 462 431 l 1
 451 485 422 509 369 509 c 0
 298 509 255 453 255 359 c 0
 255 266 296 211 366 211 c 0
 423 211 457 241 462 297 c 1
 554 297 l 1
 549 192 476 128 364 128 c 0
 241 128 163 218 163 360 c 0
 163 503 241 592 367 592 c 0
 468 592 544 537 552 431 c 1
369 743 m 0
 579 743 751 572 751 361 c 0
 751 147 580 -22 364 -22 c 0
 158 -22 -14 152 -14 361 c 0
 -14 571 158 743 369 743 c 0
368 671 m 0
 201 671 64 532 64 361 c 0
 64 192 201 50 365 50 c 0
 537 50 673 188 673 361 c 0
 673 532 536 671 368 671 c 0
EndSplineSet
Validated: 3073
EndChar

StartChar: ordfeminine
Encoding: 170 170 104
Width: 370
Flags: MW
LayerCount: 2
Fore
SplineSet
321 340 m 1
 321 262 l 1
 37 262 l 1
 37 340 l 1
 321 340 l 1
329 410 m 1
 329 400 l 1
 237 400 l 1
 229 410 228 416 227 432 c 1
 199 402 165 386 129 386 c 0
 70 386 31 425 31 484 c 0
 31 543 61 576 126 587 c 2
 160 593 l 2
 188 598 227 600 227 630 c 0
 227 650 210 661 178 661 c 0
 138 661 123 649 119 617 c 1
 41 617 l 1
 42 691 88 729 176 729 c 0
 264 729 309 695 309 629 c 2
 309 450 l 2
 309 433 313 424 329 410 c 1
227 530 m 2
 227 553 l 1
 217 548 214 547 192 543 c 2
 163 537 l 2
 128 530 115 518 115 493 c 0
 115 469 132 454 161 454 c 0
 203 454 227 482 227 530 c 2
EndSplineSet
Validated: 1
Ligature2: "ordinal symbols in Latin-1" a
EndChar

StartChar: guillemotleft
Encoding: 171 171 105
Width: 556
Flags: MW
LayerCount: 2
Fore
SplineSet
88 218 m 1
 88 332 l 1
 255 481 l 1
 255 364 l 1
 154 275 l 1
 255 186 l 1
 255 72 l 1
 88 218 l 1
301 218 m 1
 301 332 l 1
 468 481 l 1
 468 364 l 1
 367 275 l 1
 468 186 l 1
 468 72 l 1
 301 218 l 1
EndSplineSet
Validated: 1
EndChar

StartChar: logicalnot
Encoding: 172 172 106
Width: 584
Flags: HMW
LayerCount: 2
Fore
SplineSet
40 376 m 1
 544 376 l 1
 544 86 l 1
 425 86 l 1
 425 256 l 1
 40 256 l 1
 40 376 l 1
EndSplineSet
Validated: 3073
EndChar

StartChar: registered
Encoding: 174 174 107
Width: 737
Flags: HMW
AnchorPoint: "middle" 369 351 basechar 0
LayerCount: 2
Fore
SplineSet
288 313 m 1
 288 140 l 1
 192 140 l 1
 192 583 l 1
 430 583 l 2
 506 583 551 538 551 462 c 0
 551 412 530 378 481 354 c 1
 533 330 535 323 538 195 c 0
 538 176 542 169 557 161 c 1
 557 140 l 1
 454 140 l 1
 442 163 440 177 440 221 c 0
 440 229 441 237 441 247 c 2
 441 264 l 2
 441 298 422 313 380 313 c 2
 288 313 l 1
288 394 m 1
 391 394 l 2
 439 394 455 407 455 448 c 0
 455 489 439 502 391 502 c 2
 288 502 l 1
 288 394 l 1
369 743 m 0
 579 743 751 572 751 361 c 0
 751 147 580 -22 364 -22 c 0
 158 -22 -14 152 -14 361 c 0
 -14 571 158 743 369 743 c 0
368 671 m 0
 201 671 64 532 64 361 c 0
 64 192 201 50 365 50 c 0
 537 50 673 188 673 361 c 0
 673 532 536 671 368 671 c 0
EndSplineSet
Validated: 3073
EndChar

StartChar: macron
Encoding: 175 175 108
Width: 333
Flags: HMW
LayerCount: 2
Fore
SplineSet
315 699 m 1
 315 620 l 1
 16 620 l 1
 16 699 l 1
 315 699 l 1
EndSplineSet
Validated: 3073
EndChar

StartChar: degree
Encoding: 176 176 109
Width: 606
Flags: MW
LayerCount: 2
Fore
SplineSet
303 686 m 0
 386 686 454 618 454 535 c 0
 454 450 386 383 301 383 c 0
 219 383 151 452 151 535 c 0
 151 618 219 686 303 686 c 0
303 623 m 0
 254 623 214 583 214 534 c 0
 214 487 254 446 301 446 c 0
 351 446 391 485 391 535 c 0
 391 583 351 623 303 623 c 0
EndSplineSet
Validated: 1
EndChar

StartChar: twosuperior
Encoding: 178 178 111
Width: 351
Flags: HMW
LayerCount: 2
Fore
SplineSet
328 675 m 0
 328 555 213 545 139 456 c 1
 326 456 l 1
 326 375 l 1
 16 375 l 1
 23 573 233 548 233 671 c 0
 233 711 210 735 172 735 c 0
 134 735 112 709 112 664 c 0
 112 662 113 655 114 648 c 1
 22 648 l 1
 21 656 21 663 21 666 c 0
 21 758 77 809 177 809 c 0
 274 809 328 761 328 675 c 0
EndSplineSet
Validated: 3073
EndChar

StartChar: threesuperior
Encoding: 179 179 112
Width: 351
Flags: HMW
LayerCount: 2
Fore
SplineSet
22 666 m 1
 27 795 109 813 170 813 c 0
 258 813 315 767 315 696 c 0
 315 658 297 628 263 607 c 1
 307 586 329 551 329 504 c 0
 329 420 266 366 170 366 c 0
 72 366 16 418 15 509 c 1
 107 509 l 1
 110 464 130 443 172 443 c 0
 208 443 234 468 234 503 c 0
 234 544 205 565 150 566 c 2
 134 566 l 1
 134 628 l 1
 145 628 l 2
 194 628 220 648 220 686 c 0
 220 719 199 740 167 740 c 0
 120 740 110 709 110 666 c 1
 22 666 l 1
EndSplineSet
Validated: 3073
EndChar

StartChar: acute
Encoding: 180 180 113
Width: 333
Flags: HMW
LayerCount: 2
Fore
SplineSet
317 757 m 1
 191 607 l 1
 121 607 l 1
 191 757 l 1
 317 757 l 1
EndSplineSet
Validated: 3073
EndChar

StartChar: micro
Encoding: 181 181 114
Width: 611
Flags: HMW
AnchorPoint: "middle" 289 291 basechar 0
LayerCount: 2
Fore
SplineSet
198 206 m 2
 198 142 219 96 282 96 c 0
 341 96 383 140 383 202 c 2
 383 540 l 1
 523 540 l 1
 523 150 l 2
 523 92 529 77 553 77 c 0
 559 77 563 78 573 81 c 1
 573 -6 l 1
 550 -18 531 -23 503 -23 c 0
 456 -23 432 -9 408 31 c 1
 369 -9 338 -23 292 -23 c 0
 251 -23 220 -12 192 15 c 1
 192 -220 l 1
 58 -220 l 1
 58 540 l 1
 198 540 l 1
 198 206 l 2
EndSplineSet
Validated: 3073
EndChar

StartChar: paragraph
Encoding: 182 182 115
Width: 556
Flags: MW
LayerCount: 2
Fore
SplineSet
19 495 m 0
 19 627 109 729 226 729 c 2
 529 729 l 1
 529 657 l 1
 486 657 l 1
 486 -191 l 1
 388 -191 l 1
 388 657 l 1
 325 657 l 1
 325 -191 l 1
 227 -191 l 1
 227 267 l 1
 104 273 19 367 19 495 c 0
EndSplineSet
Validated: 1
EndChar

StartChar: middot
Encoding: 183 183 116
Width: 278
Flags: MW
LayerCount: 2
Fore
SplineSet
64 292 m 1
 188 292 l 1
 188 169 l 1
 64 169 l 1
 64 292 l 1
EndSplineSet
Validated: 1
EndChar

StartChar: cedilla
Encoding: 184 184 117
Width: 333
Flags: MW
LayerCount: 2
Fore
SplineSet
162 0 m 1
 205 0 l 1
 176 -63 l 1
 191 -58 203 -56 218 -56 c 0
 265 -56 294 -83 294 -127 c 0
 294 -187 248 -220 165 -220 c 0
 121 -220 92 -214 27 -192 c 1
 46 -140 l 1
 99 -163 123 -170 151 -170 c 0
 183 -170 208 -152 208 -129 c 0
 208 -108 188 -94 157 -94 c 0
 137 -94 127 -97 108 -106 c 1
 162 0 l 1
EndSplineSet
Validated: 1
EndChar

StartChar: onesuperior
Encoding: 185 185 118
Width: 300
Flags: HMW
LayerCount: 2
Fore
SplineSet
147 664 m 1
 40 664 l 1
 40 725 l 1
 118 725 164 750 178 800 c 1
 242 800 l 1
 242 375 l 1
 147 375 l 1
 147 664 l 1
EndSplineSet
Validated: 3073
EndChar

StartChar: ordmasculine
Encoding: 186 186 119
Width: 365
Flags: MW
LayerCount: 2
Fore
SplineSet
334 340 m 1
 334 262 l 1
 33 262 l 1
 33 340 l 1
 334 340 l 1
183 729 m 0
 284 729 343 665 343 555 c 0
 343 451 281 386 183 386 c 0
 84 386 23 451 23 557 c 0
 23 664 84 729 183 729 c 0
183 661 m 0
 138 661 107 619 107 558 c 0
 107 496 138 454 183 454 c 0
 228 454 259 496 259 556 c 0
 259 619 229 661 183 661 c 0
EndSplineSet
Validated: 1
Ligature2: "ordinal symbols in Latin-1" o
EndChar

StartChar: guillemotright
Encoding: 187 187 120
Width: 556
Flags: MW
LayerCount: 2
Fore
SplineSet
255 335 m 1
 255 220 l 1
 88 72 l 1
 88 189 l 1
 189 278 l 1
 88 367 l 1
 88 481 l 1
 255 335 l 1
462 335 m 1
 462 220 l 1
 295 72 l 1
 295 189 l 1
 396 278 l 1
 295 367 l 1
 295 481 l 1
 462 335 l 1
EndSplineSet
Validated: 1
EndChar

StartChar: AE
Encoding: 198 198 131
Width: 1015
Flags: HMW
AnchorPoint: "below" 509 0 basechar 0
LayerCount: 2
Fore
SplineSet
439 152 m 1
 216 152 l 1
 163 0 l 1
 10 0 l 1
 273 729 l 1
 955 729 l 1
 955 604 l 1
 589 604 l 1
 589 439 l 1
 928 439 l 1
 928 314 l 1
 589 314 l 1
 589 125 l 1
 975 125 l 1
 975 0 l 1
 439 0 l 1
 439 152 l 1
439 277 m 1
 439 604 l 1
 372 604 l 1
 258 277 l 1
 439 277 l 1
EndSplineSet
Validated: 3073
Substitution2: "'c2sc' caps to small caps in Latin-1" sc.ae
Substitution2: "'sups' superscript-latin" AEsup
EndChar

StartChar: Ccedilla
Encoding: 199 199 132
Width: 721
Flags: HMW
AnchorPoint: "above" 371 740 basechar 0
LayerCount: 2
Fore
SplineSet
535 482 m 1
 527 519 504 613 379 613 c 0
 261 613 190 517 190 356 c 0
 190 197 258 103 374 103 c 0
 467 103 526 156 535 249 c 1
 681 249 l 1
 673 84 557 -19 375 -23 c 1
 356 -63 l 1
 370 -58 382 -56 398 -56 c 0
 445 -56 474 -83 474 -127 c 0
 474 -187 428 -220 345 -220 c 0
 301 -220 272 -214 207 -192 c 1
 226 -140 l 1
 279 -163 303 -170 331 -170 c 0
 363 -170 388 -152 388 -129 c 0
 388 -108 368 -94 337 -94 c 0
 317 -94 307 -97 288 -106 c 1
 331 -23 l 1
 238 -7 199 11 151 56 c 0
 78 126 40 230 40 358 c 0
 40 594 168 741 374 741 c 0
 544 741 665 646 678 482 c 1
 535 482 l 1
EndSplineSet
Validated: 3073
MultipleSubs2: "'c2sc' caps to small caps in Latin pre-decompose-basic" C cedilla.cmb
EndChar

StartChar: Eth
Encoding: 208 208 141
Width: 741
Flags: HMW
AnchorPoint: "below" 359 0 basechar 0
LayerCount: 2
Fore
SplineSet
97 317 m 1
 20 317 l 1
 20 442 l 1
 97 442 l 1
 97 729 l 1
 382 729 l 2
 611.717 729 701 579.42 701 365 c 0
 701 151.125 610.228 0 382 0 c 2
 97 0 l 1
 97 317 l 1
557 364 m 0
 557 544 489 604 382 604 c 2
 247 604 l 1
 247 442 l 1
 397 442 l 1
 397 317 l 1
 247 317 l 1
 247 125 l 1
 382 125 l 2
 479 125 557 173 557 364 c 0
EndSplineSet
Validated: 3073
Substitution2: "'c2sc' caps to small caps in Latin-1" sc.eth
EndChar

StartChar: multiply
Encoding: 215 215 148
Width: 584
Flags: HMW
AnchorPoint: "middle" 292 231 basechar 0
LayerCount: 2
Fore
SplineSet
421 444 m 1
 505 360 l 1
 376 231 l 1
 504 102 l 1
 420 18 l 1
 292 147 l 1
 164 19 l 1
 80 103 l 1
 208 231 l 1
 79 359 l 1
 163 444 l 1
 292 315 l 1
 421 444 l 1
EndSplineSet
Validated: 3073
EndChar

StartChar: Ostroke
Encoding: 216 216 149
Width: 783
Flags: HMW
LayerCount: 2
Fore
SplineSet
745 357 m 0
 745 145 611 -23 393 -23 c 0
 303 -23 228 2 170 52 c 1
 87 -39 l 1
 36 7 l 1
 122 102 l 1
 67 176 40 261 40 359 c 0
 40 579 178 741 393 741 c 0
 488 741 558 716 625 657 c 1
 708 749 l 1
 760 704 l 1
 671 605 l 1
 717 542 745 449 745 357 c 0
572 497 m 1
 261 153 l 1
 292 123 341 105 393 105 c 0
 515 105 595 206 595 361 c 0
 595 408 587 457 572 497 c 1
219 209 m 1
 533 555 l 1
 496 594 449 613 393 613 c 0
 269 613 190 512 190 356 c 0
 190 301 200 251 219 209 c 1
EndSplineSet
Validated: 3073
Substitution2: "'c2sc' caps to small caps in Latin-1" sc.ostroke
EndChar

StartChar: Thorn
Encoding: 222 222 155
Width: 677
Flags: HMW
LayerCount: 2
Fore
SplineSet
402 609 m 2
 602 609 637 481 637 382 c 0
 637 233 552 140 417 140 c 2
 230 140 l 1
 230 0 l 1
 80 0 l 1
 80 729 l 1
 230 729 l 1
 230 609 l 1
 402 609 l 2
230 265 m 1
 370 265 l 2
 450 265 487 300 487 374 c 0
 487 449 450 484 370 484 c 2
 230 484 l 1
 230 265 l 1
EndSplineSet
Validated: 3073
Substitution2: "'c2sc' caps to small caps in Latin-1" sc.thorn
EndChar

StartChar: ssharp
Encoding: 223 223 156
Width: 611
Flags: HMW
LayerCount: 2
Fore
SplineSet
445 411 m 1
 479 404 575 376 575 236 c 0
 575 74 498 -23 367 -23 c 0
 345 -23 313 -17 285 -11 c 1
 285 94 l 1
 297 89.5 314.25 87 328 87 c 0
 397.007 87 435 151 435 222 c 0
 435 305.152 382 349 285 349 c 1
 285 444 l 1
 348 444 392 474.743 392 533 c 0
 392 585 355 616 294 616 c 0
 239 616 207 587 207 537 c 2
 207 0 l 1
 67 0 l 1
 67 518 l 2
 67 631 114 729 303 729 c 0
 438 729 532 654 532 547 c 0
 532 480 502 433 445 411 c 1
EndSplineSet
Validated: 3073
Substitution2: "'smcp' lowercase to small caps in Latin-1" sc.ssharp
EndChar

StartChar: ae
Encoding: 230 230 163
Width: 889
Flags: HMW
AnchorPoint: "above" 443 550 basechar 0
AnchorPoint: "below" 419 0 basechar 0
LayerCount: 2
Fore
SplineSet
495 226 m 1
 495 105 561 84 609 84 c 0
 657 84 701 113 713 152 c 1
 851 152 l 1
 820 45 722 -23 601 -23 c 0
 513 -23 443 13 401 81 c 1
 339 8 277 -24 196 -24 c 0
 93 -24 28 40 28 141 c 0
 28 239 79 294 187 312 c 2
 243 322 l 2
 296 331 355 334 355 383 c 0
 355 419 327 436 270 436 c 0
 207 436 182 416 175 362 c 1
 44 362 l 1
 46 486 123 549 272 549 c 0
 350 549 409 532 447 499 c 1
 488 532 541 549 602 549 c 0
 714 549 858 489 858 250 c 0
 858 245 858 238 857 226 c 1
 495 226 l 1
355 216 m 2
 355 254 l 1
 338 244 326 240 296 235 c 2
 248 228 l 2
 195 221 168 196 168 155 c 0
 168 114 197 89 244 89 c 0
 316 89 355 134 355 216 c 2
496 319 m 1
 712 319 l 1
 705 400 668 442 603 442 c 0
 539 442 502 400 496 319 c 1
EndSplineSet
Validated: 3073
Substitution2: "'smcp' lowercase to small caps in Latin-1" sc.ae
EndChar

StartChar: ccedilla
Encoding: 231 231 164
Width: 558
Flags: HMW
LayerCount: 2
Fore
SplineSet
180 260 m 0
 180 187 203 90 295 90 c 0
 348 90 377 118 394 187 c 1
 528 187 l 1
 517 63 423 -23 299 -23 c 0
 298 -23 298 -23 297 -23 c 1
 280 -63 l 1
 293 -58 306 -56 321 -56 c 0
 369 -56 398 -83 398 -127 c 0
 398 -187 352 -220 269 -220 c 0
 225 -220 191 -213 131 -192 c 1
 150 -140 l 1
 201 -163 227 -170 254 -170 c 0
 286 -170 312 -152 312 -129 c 0
 312 -108 292 -94 261 -94 c 0
 241 -94 230 -97 211 -106 c 1
 254 -21 l 1
 116 -3 40 96 40 259 c 0
 40 443 134 549 295 549 c 0
 430 549 518 470 528 338 c 1
 394 338 l 1
 378 409 351 436 294 436 c 0
 197 436 180 334 180 260 c 0
EndSplineSet
Validated: 3073
MultipleSubs2: "'smcp' small caps in Latin pre-decompose-basic" c cedilla.cmb
EndChar

StartChar: eth
Encoding: 240 240 173
Width: 614
Flags: HMW
AnchorPoint: "below" 308 0 basechar 0
LayerCount: 2
Fore
SplineSet
197 741 m 1
 261 717 274 701 299 692 c 1
 386 744 l 1
 437 710 l 1
 353 660 l 1
 504 558 574 435 574 269 c 0
 574 85 475 -23 307 -23 c 0
 140 -23 40 85 40 265 c 0
 40 426 137 534 279 534 c 0
 305 534 325 530 364 515 c 1
 337 558 307 589 269 611 c 1
 192 565 l 1
 150 602 l 1
 220 646 l 1
 193 662 179 670 130 694 c 1
 197 741 l 1
307 429 m 0
 231 429 181 362 181 260 c 0
 181 157 231 90 307 90 c 0
 383 90 433 157 433 257 c 0
 433 362 384 429 307 429 c 0
EndSplineSet
Validated: 3073
Substitution2: "'smcp' lowercase to small caps in Latin-1" sc.eth
Substitution2: "'sups' superscript-phonetic" ethsup
EndChar

StartChar: divide
Encoding: 247 247 180
Width: 584
Flags: HMW
AnchorPoint: "middle" 292 231 basechar 0
LayerCount: 2
Fore
SplineSet
534 291 m 1
 534 172 l 1
 50 172 l 1
 50 291 l 1
 534 291 l 1
230 474 m 1
 354 474 l 1
 354 351 l 1
 230 351 l 1
 230 474 l 1
230 112 m 1
 354 112 l 1
 354 -11 l 1
 230 -11 l 1
 230 112 l 1
EndSplineSet
Validated: 3073
EndChar

StartChar: ostroke
Encoding: 248 248 181
Width: 614
Flags: HMW
AnchorPoint: "below" 309 0 basechar 0
LayerCount: 2
Fore
SplineSet
128 35 m 1
 56 -38 l 1
 13 2 l 1
 88 79 l 1
 54 128 38 188 38 263 c 0
 38 441 140 549 307 549 c 0
 380 549 438 529 489 487 c 1
 557 557 l 1
 600 516 l 1
 528 443 l 1
 560 393 575 335 575 263 c 0
 575 86 473 -23 308 -23 c 0
 237 -23 168 -1 128 35 c 1
423 336 m 1
 222 132 l 1
 246 104 275 90 308 90 c 0
 382 90 435 161 435 260 c 0
 435 287 431 312 423 336 c 1
192 184 m 1
 394 390 l 1
 366 424 340 437 305 437 c 0
 230 437 178 366 178 266 c 0
 178 236 183 207 192 184 c 1
EndSplineSet
Validated: 3073
Substitution2: "'smcp' lowercase to small caps in Latin-1" sc.ostroke
EndChar

StartChar: thorn
Encoding: 254 254 187
Width: 621
Flags: HMW
LayerCount: 2
Fore
SplineSet
205 729 m 1
 205 460 l 1
 239 520 287 549 355 549 c 0
 485 549 581 427 581 262 c 0
 581 99 485 -23 355 -23 c 0
 287 -23 239 5 205 64 c 1
 205 -218 l 1
 65 -218 l 1
 65 729 l 1
 205 729 l 1
323 432 m 0
 253 432 205 363 205 262 c 0
 205 162 253 94 323 94 c 0
 392 94 441 162 441 260 c 0
 441 363 394 432 323 432 c 0
EndSplineSet
Validated: 3073
Substitution2: "'smcp' lowercase to small caps in Latin-1" sc.thorn
EndChar

StartChar: Aogonek
Encoding: 260 260 193
Width: 717
Flags: HMW
AnchorPoint: "above" 355 730 basechar 0
LayerCount: 2
Fore
SplineSet
495 147 m 1
 222 147 l 1
 173 0 l 1
 20 0 l 1
 279 729 l 1
 446 729 l 1
 697 0 l 1
 628 -30 584 -80 584 -129 c 0
 584 -165 608 -182 660 -182 c 0
 679 -182 699 -180 717 -177 c 1
 717 -224 l 1
 689 -231 669 -233 642 -233 c 0
 548 -233 494 -198 494 -138 c 0
 494 -79 540 -28 618 0 c 1
 543 0 l 1
 495 147 l 1
455 272 m 1
 360 557 l 1
 264 272 l 1
 455 272 l 1
EndSplineSet
Validated: 3073
MultipleSubs2: "'c2sc' caps to small caps in Latin pre-decompose-A" A ogonek.cmb
EndChar

StartChar: aogonek
Encoding: 261 261 194
Width: 556
Flags: HMW
AnchorPoint: "above" 293 550 basechar 0
LayerCount: 2
Fore
SplineSet
204 -23 m 0
 106 -23 40 42 40 139 c 0
 40 236 92 291 199 309 c 2
 255 319 l 2
 301 326 367 329 367 382 c 0
 367 418 340 436 286 436 c 0
 217 436 194 418 187 362 c 1
 52 362 l 1
 61 487 137 549 283 549 c 0
 429 549 504 493 504 383 c 2
 504 83 l 2
 504 55 511 40 536 17 c 1
 536 0 l 1
 465 -38 427 -82 427 -129 c 0
 427 -165 451 -182 503 -182 c 0
 522 -182 541 -180 560 -177 c 1
 560 -224 l 1
 532 -231 512 -233 485 -233 c 0
 392 -233 337 -198 337 -139 c 0
 337 -80 384 -27 461 0 c 1
 384 0 l 1
 371 16 368 26 368 54 c 1
 319 3 264 -23 204 -23 c 0
367 217 m 2
 367 255 l 1
 351 247 345 245 308 238 c 2
 260 229 l 2
 202 217 180 197 180 155 c 0
 180 115 209 90 256 90 c 0
 327 90 367 136 367 217 c 2
EndSplineSet
Validated: 3073
MultipleSubs2: "'smcp' small caps in Latin pre-decompose-A" a ogonek.cmb
EndChar

StartChar: dcroat
Encoding: 273 273 206
Width: 626
Flags: HMW
AnchorPoint: "below" 300 0 basechar 0
LayerCount: 2
Fore
SplineSet
416 586 m 1
 283 586 l 1
 283 679 l 1
 416 679 l 1
 416 729 l 1
 556 729 l 1
 556 679 l 1
 616 679 l 1
 616 586 l 1
 556 586 l 1
 556 0 l 1
 416 0 l 1
 416 55 l 1
 381 2 334 -23 267 -23 c 0
 138 -23 40 100 40 262 c 0
 40 425 138 549 267 549 c 0
 335 549 381 524 416 470 c 1
 416 586 l 1
298 432 m 0
 229 432 180 362 180 262 c 0
 180 163 228 94 298 94 c 0
 368 94 416 162 416 260 c 0
 416 363 369 432 298 432 c 0
EndSplineSet
Validated: 3073
Substitution2: "'smcp' lowercase to small caps in Latin-1" sc.eth
EndChar

StartChar: Eogonek
Encoding: 280 280 213
Width: 665
Flags: HMW
AnchorPoint: "above" 362 730 basechar 0
LayerCount: 2
Fore
SplineSet
230 314 m 1
 230 125 l 1
 625 125 l 1
 625 0 l 1
 554 -38 516 -82 516 -129 c 0
 516 -165 540 -182 592 -182 c 0
 612 -182 631 -180 649 -177 c 1
 649 -224 l 1
 622 -230 602 -233 575 -233 c 0
 480 -233 426 -198 426 -138 c 0
 426 -82 465 -39 551 0 c 1
 80 0 l 1
 80 729 l 1
 607 729 l 1
 607 604 l 1
 230 604 l 1
 230 439 l 1
 579 439 l 1
 579 314 l 1
 230 314 l 1
EndSplineSet
Validated: 3073
MultipleSubs2: "'c2sc' caps to small caps in Latin pre-decompose-A" E ogonek.cmb
EndChar

StartChar: eogonek
Encoding: 281 281 214
Width: 584
Flags: HMW
AnchorPoint: "above" 300 550 basechar 0
LayerCount: 2
Fore
SplineSet
537 152 m 1
 502 25 364 -26 364 -131 c 0
 364 -166 388 -183 440 -183 c 0
 460 -183 478 -181 497 -177 c 1
 497 -224 l 1
 470 -231 446 -234 418 -234 c 0
 329 -234 274 -197 274 -137 c 0
 274 -92 298 -60 369 -11 c 1
 333 -21 315 -24 287 -24 c 0
 135 -24 40 83 40 256 c 0
 40 437 135 549 290 549 c 0
 401 549 544 489 544 250 c 0
 544 245 544 238 543 226 c 1
 181 226 l 1
 184 147 201 83 293 83 c 0
 344 83 382 108 399 152 c 1
 537 152 l 1
398 319 m 1
 391 400 351 442 289 442 c 0
 226 442 191 401 182 319 c 1
 398 319 l 1
EndSplineSet
Validated: 3073
MultipleSubs2: "'smcp' small caps in Latin pre-decompose-A" e ogonek.cmb
EndChar

StartChar: Hbar
Encoding: 294 294 227
Width: 729
Flags: HMW
LayerCount: 2
Fore
SplineSet
659 655 m 1
 719 655 l 1
 719 532 l 1
 659 532 l 1
 659 0 l 1
 509 0 l 1
 509 331 l 1
 220 331 l 1
 220 0 l 1
 70 0 l 1
 70 532 l 1
 10 532 l 1
 10 655 l 1
 70 655 l 1
 70 729 l 1
 220 729 l 1
 220 657 l 1
 508 657 l 1
 508 729 l 1
 659 729 l 1
 659 655 l 1
508 532 m 1
 220 532 l 1
 220 456 l 1
 508 456 l 1
 508 532 l 1
EndSplineSet
Validated: 3073
Substitution2: "'c2sc' caps to small caps in Latin-1" sc.hbar
Substitution2: "'sups' superscript-Latin-D" Hbarsup
EndChar

StartChar: hbar
Encoding: 295 295 228
Width: 606
Flags: HMW
LayerCount: 2
Fore
SplineSet
401 330 m 2
 401 388 380 430 315 430 c 0
 252 430 207 386 207 324 c 2
 207 0 l 1
 67 0 l 1
 67 596 l 1
 8 596 l 1
 8 689 l 1
 67 689 l 1
 67 729 l 1
 207 729 l 1
 207 689 l 1
 341 689 l 1
 341 596 l 1
 207 596 l 1
 207 462 l 1
 246 521 296 549 365 549 c 0
 442 549 541 512 541 362 c 2
 541 0 l 1
 401 0 l 1
 401 330 l 2
EndSplineSet
Validated: 3073
Substitution2: "'smcp' lowercase to small caps in Latin-1" sc.hbar
EndChar

StartChar: Iogonek
Encoding: 302 302 235
Width: 310
Flags: HMW
AnchorPoint: "above" 156 730 basechar 0
LayerCount: 2
Fore
SplineSet
228 729 m 1
 228 0 l 1
 171 -41 139 -88 139 -131 c 0
 139 -161 165 -182 202 -182 c 0
 215 -182 236 -180 252 -177 c 1
 252 -224 l 1
 226 -230 204 -233 182 -233 c 0
 100 -233 49 -196 49 -136 c 0
 49 -84 85 -41 162 0 c 1
 78 0 l 1
 78 729 l 1
 228 729 l 1
EndSplineSet
Validated: 3073
MultipleSubs2: "'c2sc' caps to small caps in Latin pre-decompose-A" I ogonek.cmb
EndChar

StartChar: iogonek
Encoding: 303 303 236
Width: 280
Flags: HMW
AnchorPoint: "above" 140 730 basechar 0
LayerCount: 2
Fore
SplineSet
125 -128 m 0
 125 -172 162 -182 188 -182 c 0
 199 -182 209 -181 232 -177 c 1
 232 -224 l 1
 201 -231 189 -233 169 -233 c 0
 86 -233 35 -196 35 -136 c 0
 35 -87 70 -44 145 0 c 1
 68 0 l 1
 68 540 l 1
 208 540 l 1
 208 0 l 1
 154 -38 125 -83 125 -128 c 0
208 729 m 1
 208 604 l 1
 68 604 l 1
 68 729 l 1
 208 729 l 1
EndSplineSet
Validated: 3073
MultipleSubs2: "'smcp' small caps in Latin pre-decompose-A" i ogonek.cmb
MultipleSubs2: "glyph decomp of iogonek-1" dotlessi ogonek.cmb
EndChar

StartChar: dotlessi
Encoding: 305 305 238
Width: 280
Flags: HMW
AnchorPoint: "below" 140 0 basechar 0
AnchorPoint: "above" 144 550 basechar 0
LayerCount: 2
Fore
SplineSet
210 540 m 1
 210 0 l 1
 70 0 l 1
 70 540 l 1
 210 540 l 1
EndSplineSet
Validated: 3073
Substitution2: "'smcp' lowercase to small caps in Latin-1" sc.i
Substitution2: "'smcp' Lowercase to Small Capitals in Latin for Turkish subtable" sc.i
EndChar

StartChar: IJ
Encoding: 306 306 239
Width: 622
Flags: HMW
LayerCount: 2
Fore
SplineSet
230 729 m 1
 230 350 l 1
 80 350 l 1
 80 729 l 1
 230 729 l 1
308 -23 m 0
 208 -23 80 21 80 198 c 2
 80 240 l 1
 230 240 l 1
 230 200 l 2
 230 133 254 105 311 105 c 0
 363 105 392 135 392 190 c 2
 392 729 l 1
 542 729 l 1
 542 190 l 2
 542 54 457 -23 308 -23 c 0
EndSplineSet
Validated: 3073
Substitution2: "'c2sc' caps to small caps in Latin-1" sc.ij
LCarets2: 1 0
Ligature2: "'liga' std. ligatures in Latin for Dutch-1" I J
EndChar

StartChar: Lslash
Encoding: 321 321 254
Width: 637
Flags: HMW
LayerCount: 2
Fore
SplineSet
240 423 m 1
 405 535 l 1
 405 447 l 1
 240 334 l 1
 240 125 l 1
 607 125 l 1
 607 0 l 1
 90 0 l 1
 90 257 l 1
 10 201 l 1
 10 290 l 1
 90 346 l 1
 90 729 l 1
 240 729 l 1
 240 423 l 1
EndSplineSet
Validated: 3073
Substitution2: "'c2sc' caps to small caps in Latin-1" sc.lslash
EndChar

StartChar: lslash
Encoding: 322 322 255
Width: 278
Flags: HMW
LayerCount: 2
Fore
SplineSet
206 442 m 1
 262 482 l 1
 262 403 l 1
 206 363 l 1
 206 0 l 1
 66 0 l 1
 66 294 l 1
 10 254 l 1
 10 333 l 1
 66 373 l 1
 66 729 l 1
 206 729 l 1
 206 442 l 1
EndSplineSet
Validated: 3073
Substitution2: "'smcp' lowercase to small caps in Latin-1" sc.lslash
EndChar

StartChar: Eng
Encoding: 330 330 263
Width: 752
Flags: HMW
LayerCount: 2
Fore
SplineSet
439 -16 m 0
 377 -16 345 -2 335 0 c 1
 335 123 l 1
 352 122 385 109 431 109 c 0
 493 109 562 206 562 391 c 0
 562 612 453 616 387 616 c 0
 301 616 230 546 230 439 c 2
 230 0 l 17
 80 0 l 9
 80 729 l 1
 230 729 l 1
 230 652 l 1
 276 725 334 741 412 741 c 0
 513 741 712 654 712 424 c 0
 712 100 569 -16 439 -16 c 0
EndSplineSet
Validated: 3073
Substitution2: "'c2sc' caps to small caps in Latin-1" sc.eng
Substitution2: "'locl' Localized Forms for Sami-1" Engsami
EndChar

StartChar: eng
Encoding: 331 331 264
Width: 613
Flags: HMW
AnchorPoint: "topright" 465 550 basechar 0
LayerCount: 2
Fore
SplineSet
65 540 m 1
 205 540 l 1
 205 462 l 1
 245 522 294 549 367 549 c 0
 482 549 548 481 548 362 c 2
 548 -94 l 2
 548 -182 512 -218 425 -218 c 0
 405 -218 370 -216 342 -213 c 1
 342 -101 l 1
 352 -104 358 -105 367 -105 c 0
 397 -105 408 -94 408 -63 c 2
 408 333 l 2
 408 397 378 430 318 430 c 0
 250 430 205 388 205 324 c 2
 205 0 l 1
 65 0 l 1
 65 540 l 1
EndSplineSet
Validated: 3073
Substitution2: "'smcp' lowercase to small caps in Latin-1" sc.eng
Substitution2: "'sups' superscript-phonetic" engsup
EndChar

StartChar: OE
Encoding: 338 338 271
Width: 1012
Flags: HMW
LayerCount: 2
Fore
SplineSet
636 314 m 1
 636 125 l 1
 982 125 l 1
 982 0 l 1
 492 0 l 1
 492 59 l 1
 443 -3 405 -23 337 -23 c 0
 164 -23 40 136 40 359 c 0
 40 584 163 741 341 741 c 0
 405 741 444 724 492 677 c 1
 492 729 l 1
 963 729 l 1
 963 604 l 1
 636 604 l 1
 636 439 l 1
 935 439 l 1
 935 314 l 1
 636 314 l 1
486 178 m 1
 486 540 l 1
 457 591 422 613 368 613 c 0
 261 613 190 512 190 359 c 0
 190 207 261 105 367 105 c 0
 421 105 457 127 486 178 c 1
EndSplineSet
Validated: 3073
Substitution2: "'c2sc' caps to small caps in Latin-1" OEsmallcap
EndChar

StartChar: oe
Encoding: 339 339 272
Width: 977
Flags: HMW
AnchorPoint: "below" 499 0 basechar 0
AnchorPoint: "above" 503 550 basechar 0
LayerCount: 2
Fore
SplineSet
574 226 m 1
 577 103 640 84 688 84 c 0
 737 84 780 112 793 152 c 1
 931 152 l 1
 899 46 802 -23 681 -23 c 0
 609 -23 545 3 502 52 c 1
 451 2 387 -23 307 -23 c 0
 141 -23 40 85 40 263 c 0
 40 441 141 549 307 549 c 0
 387 549 453 524 502 473 c 1
 545 523 607 549 682 549 c 0
 794 549 937 489 937 250 c 0
 937 243 937 238 936 226 c 1
 574 226 l 1
307 436 m 0
 231 436 180 366 180 263 c 0
 180 160 231 90 307 90 c 0
 382 90 434 160 434 261 c 0
 434 367 384 436 307 436 c 0
791 319 m 1
 783 398 746 442 683 442 c 0
 619 442 583 397 576 319 c 1
 791 319 l 1
EndSplineSet
Validated: 3073
Substitution2: "'smcp' lowercase to small caps in Latin-1" OEsmallcap
Substitution2: "'sups' superscript-Latin-D" oesup
EndChar

StartChar: Scedilla
Encoding: 350 350 283
Width: 681
Flags: HMW
LayerCount: 2
Fore
SplineSet
348 -23 m 1
 331 -62 l 1
 346 -58 357 -56 372 -56 c 0
 420 -56 449 -83 449 -127 c 0
 449 -187 403 -220 320 -220 c 0
 276 -220 243 -213 182 -192 c 1
 201 -140 l 1
 251 -162 278 -170 306 -170 c 0
 338 -170 363 -152 363 -129 c 0
 363 -108 343 -94 312 -94 c 0
 292 -94 282 -97 263 -106 c 1
 305 -23 l 1
 134 -5 50 72 40 218 c 1
 186 218 l 1
 191 140 248 97 350 97 c 0
 441 97 497 134 497 195 c 0
 497 254 460 282 360 301 c 2
 258 321 l 2
 110 349 53 404 53 517 c 0
 53 659 154 741 329 741 c 0
 442 741 615 706 615 507 c 1
 475 507 l 1
 470 581 417 621 322 621 c 0
 245 621 196 586 196 531 c 0
 196 478 227 457 334 436 c 2
 448 414 l 2
 583 388 641 328 641 214 c 0
 641 65 543 -14 348 -23 c 1
EndSplineSet
Validated: 3073
MultipleSubs2: "'c2sc' caps to small caps in Latin pre-decompose-A" S cedilla.cmb
EndChar

StartChar: scedilla
Encoding: 351 351 284
Width: 556
Flags: HMW
LayerCount: 2
Fore
SplineSet
167 157 m 1
 175 120 189 87 277 87 c 0
 342 87 381 107 381 140 c 0
 381 162 369 173 334 184 c 2
 167 236 l 2
 136 246 49 263 49 369 c 0
 49 480 134 549 271 549 c 0
 416 549 504 480 506 366 c 1
 371 366 l 1
 370 415 337 439 270 439 c 0
 221 439 189 419 189 389 c 0
 189 367 199 359 238 347 c 2
 415 296 l 2
 486 275 521 230 521 160 c 0
 521 52 431 -23 302 -23 c 2
 284 -23 l 1
 265 -63 l 1
 280 -58 292 -56 307 -56 c 0
 354 -56 383 -83 383 -127 c 0
 383 -187 337 -220 255 -220 c 0
 210 -220 181 -214 116 -192 c 1
 135 -140 l 1
 188 -163 212 -170 240 -170 c 0
 272 -170 297 -152 297 -129 c 0
 297 -108 277 -94 246 -94 c 0
 226 -94 216 -97 197 -106 c 1
 240 -22 l 1
 97 -5 35 48 30 157 c 1
 167 157 l 1
EndSplineSet
Validated: 3073
MultipleSubs2: "'smcp' small caps in Latin pre-decompose-A" s cedilla.cmb
EndChar

StartChar: Tcedilla
Encoding: 354 354 287
Width: 644
Flags: HMW
LayerCount: 2
Fore
SplineSet
401 604 m 1
 401 0 l 1
 371 0 l 1
 342 -63 l 1
 357 -58 369 -56 384 -56 c 0
 431 -56 460 -83 460 -127 c 0
 460 -187 414 -220 331 -220 c 0
 287 -220 258 -214 193 -192 c 1
 212 -140 l 1
 265 -163 289 -170 317 -170 c 0
 349 -170 374 -152 374 -129 c 0
 374 -108 354 -94 323 -94 c 0
 303 -94 293 -97 274 -106 c 1
 328 0 l 1
 251 0 l 1
 251 604 l 1
 30 604 l 1
 30 729 l 1
 614 729 l 1
 614 604 l 1
 401 604 l 1
EndSplineSet
Validated: 3073
MultipleSubs2: "'c2sc' caps to small caps in Latin pre-decompose-A" T cedilla.cmb
EndChar

StartChar: tcedilla
Encoding: 355 355 288
Width: 333
Flags: M
LayerCount: 2
Fore
SplineSet
301 529 m 1
 301 436 l 1
 223 436 l 1
 223 142 l 2
 223 94 232 83 269 83 c 0
 279 83 287 84 301 86 c 1
 301 -12 l 1
 280.508 -18.5575 260.016 -21.7555 236.219 -22.6956 c 1
 208 -84 l 1
 223 -79 235 -77 250 -77 c 0
 297 -77 326 -104 326 -148 c 0
 326 -208 280 -241 197 -241 c 0
 153 -241 124 -235 59 -213 c 1
 78 -161 l 1
 131 -184 155 -191 183 -191 c 0
 215 -191 240 -173 240 -150 c 0
 240 -129 220 -115 189 -115 c 0
 169 -115 159 -118 140 -127 c 1
 193.633 -21.7211 l 1
 119.393 -14.1044 83 27.5602 83 104 c 2
 83 436 l 1
 14 436 l 1
 14 529 l 1
 83 529 l 1
 83 674 l 1
 223 674 l 1
 223 529 l 1
 301 529 l 1
EndSplineSet
Validated: 1
MultipleSubs2: "'smcp' small caps in Latin pre-decompose-A" t cedilla.cmb
EndChar

StartChar: Tbar
Encoding: 358 358 291
Width: 644
Flags: HMW
LayerCount: 2
Fore
SplineSet
136 304 m 1
 136 429 l 1
 251 429 l 1
 251 604 l 1
 30 604 l 1
 30 729 l 1
 614 729 l 1
 614 604 l 1
 401 604 l 1
 401 429 l 1
 511 429 l 1
 511 304 l 1
 401 304 l 1
 401 0 l 1
 251 0 l 1
 251 304 l 1
 136 304 l 1
EndSplineSet
Validated: 3073
MultipleSubs2: "'c2sc' caps to small caps in Latin pre-decompose-B" T barshortoverlay.cmb
EndChar

StartChar: tbar
Encoding: 359 359 292
Width: 333
Flags: HMW
LayerCount: 2
Fore
SplineSet
301 529 m 1
 301 436 l 1
 223 436 l 1
 223 312 l 1
 296 312 l 1
 296 219 l 1
 223 219 l 1
 223 142 l 2
 223 94 232 83 269 83 c 0
 279 83 287 84 301 86 c 1
 301 -12 l 1
 276 -20 251 -23 220 -23 c 0
 128 -23 83 19 83 104 c 2
 83 219 l 1
 9 219 l 1
 9 312 l 1
 83 312 l 1
 83 436 l 1
 14 436 l 1
 14 529 l 1
 83 529 l 1
 83 674 l 1
 223 674 l 1
 223 529 l 1
 301 529 l 1
EndSplineSet
Validated: 3073
MultipleSubs2: "'smcp' small caps in Latin pre-decompose-B" t barshortoverlay.cmb
EndChar

StartChar: Uogonek
Encoding: 370 370 303
Width: 738
Flags: HMW
AnchorPoint: "above" 365 730 basechar 0
LayerCount: 2
Fore
SplineSet
658 235 m 2
 658 20 466 -9 466 -132 c 0
 466 -166 491 -183 543 -183 c 0
 564 -183 582 -181 601 -177 c 1
 601 -224 l 1
 574 -231 550 -234 521 -234 c 0
 462 -234 377 -215 377 -138 c 0
 377 -90 404 -55 481 -7 c 1
 433 -20 411 -23 372 -23 c 0
 244 -23 80 29 80 235 c 2
 80 729 l 1
 230 729 l 1
 230 235 l 2
 230 147 275 105 369 105 c 0
 463 105 508 147 508 235 c 2
 508 729 l 1
 658 729 l 1
 658 235 l 2
EndSplineSet
Validated: 3073
MultipleSubs2: "'c2sc' caps to small caps in Latin pre-decompose-A" U ogonek.cmb
EndChar

StartChar: uogonek
Encoding: 371 371 304
Width: 611
Flags: HMW
AnchorPoint: "above" 301 550 basechar 0
LayerCount: 2
Fore
SplineSet
340 -138 m 0
 340 -55 428 -14 465 0 c 1
 401 0 l 1
 401 64 l 1
 361 4 312 -23 239 -23 c 0
 124 -23 58 45 58 164 c 2
 58 540 l 1
 198 540 l 1
 198 193 l 2
 198 128 228 96 288 96 c 0
 356 96 401 138 401 202 c 2
 401 540 l 1
 541 540 l 1
 541 0 l 1
 468 -37 430 -82 430 -129 c 0
 430 -165 454 -182 506 -182 c 0
 526 -182 545 -180 564 -177 c 1
 564 -224 l 1
 536 -231 516 -233 489 -233 c 0
 395 -233 340 -198 340 -138 c 0
EndSplineSet
Validated: 3073
MultipleSubs2: "'smcp' small caps in Latin pre-decompose-A" u ogonek.cmb
EndChar

StartChar: longs
Encoding: 383 383 316
Width: 333
Flags: MW
LayerCount: 2
Fore
SplineSet
230 0 m 1
 90 0 l 1
 90 436 l 1
 14 436 l 1
 14 529 l 1
 90 529 l 1
 90 594 l 2
 90 685 135 729 228 729 c 0
 247 729 282 728 308 726 c 1
 308 621 l 1
 296 623 280 624 268 624 c 0
 242 624 230 610 230 582 c 2
 230 0 l 1
EndSplineSet
Validated: 1
Substitution2: "'smcp' lowercase to small caps in Latin-1" sc.s
EndChar

StartChar: fhook
Encoding: 402 402 317
Width: 333
Flags: MW
LayerCount: 2
Fore
SplineSet
313 529 m 1
 313 436 l 1
 230 436 l 1
 230 -94 l 2
 230 -182 194 -218 107 -218 c 0
 87 -218 52 -216 24 -213 c 1
 24 -101 l 1
 34 -104 40 -105 49 -105 c 0
 79 -105 90 -94 90 -63 c 2
 90 436 l 1
 14 436 l 1
 14 529 l 1
 90 529 l 1
 90 594 l 2
 90 685 135 729 228 729 c 0
 247 729 282 728 308 726 c 1
 308 621 l 1
 296 623 280 624 268 624 c 0
 242 624 230 610 230 582 c 2
 230 529 l 1
 313 529 l 1
EndSplineSet
Validated: 1
Substitution2: "'smcp' lowercase to small caps in Latin-1" sc.fhook
EndChar

StartChar: Oogonek
Encoding: 490 490 351
Width: 782
Flags: HMW
AnchorPoint: "above" 391 730 basechar 0
LayerCount: 2
Fore
SplineSet
391 613 m 0
 270 613 190 512 190 359 c 0
 190 206 270 105 391 105 c 0
 511 105 592 206 592 355 c 0
 592 513 514 613 391 613 c 0
40 359 m 0
 40 581 178 741 390 741 c 0
 601 741 742 586 742 354 c 0
 742 153.265 620.233 -9.64878 416.57 -22.2197 c 1
 340.827 -70.7356 319 -99.3639 319 -148 c 0
 319 -182 342 -198 395 -198 c 0
 415 -198 434 -196 452 -192 c 1
 452 -239 l 1
 425 -246 401 -249 373 -249 c 0
 284 -249 229 -212 229 -154 c 0
 229 -98.28 270.919 -48.8034 340.439 -19.8894 c 1
 155.66 3.385 40 155.021 40 359 c 0
EndSplineSet
Validated: 3073
MultipleSubs2: "'c2sc' caps to small caps in Latin pre-decompose-B" O ogonek.cmb
EndChar

StartChar: oogonek
Encoding: 491 491 352
Width: 611
Flags: HM
AnchorPoint: "above" 301 550 basechar 0
LayerCount: 2
Fore
SplineSet
302 436 m 0
 226 436 175 366 175 263 c 0
 175 160 226 90 302 90 c 0
 377 90 429 160 429 261 c 0
 429 367 379 436 302 436 c 0
301 549 m 0
 470 549 569 442 569 259 c 0
 569 95.6754 477.199 -10.6077 328.936 -21.9851 c 1
 252.897 -70.6434 231 -99.2855 231 -148 c 0
 231 -182 254 -198 307 -198 c 0
 327 -198 346 -196 364 -192 c 1
 364 -239 l 1
 337 -246 313 -249 285 -249 c 0
 196 -249 141 -212 141 -154 c 0
 141 -98.1178 183.164 -48.5154 253.047 -19.6375 c 1
 116.358 -0.126698 35 103.243 35 263 c 0
 35 440 136 549 301 549 c 0
EndSplineSet
Validated: 3073
MultipleSubs2: "'smcp' small caps in Latin pre-decompose-B" o ogonek.cmb
EndChar

StartChar: iota
Encoding: 953 953 378
Width: 341
Flags: HMW
AnchorPoint: "above" 136 550 basechar 0
AnchorPoint: "above_gk" 135 568 basechar 0
LayerCount: 2
Fore
SplineSet
199 159.5 m 2
 199 143 199 116 220 116 c 0
 229.055 116 252 125 283 141 c 1
 331 14 l 1
 281 -6 240 -17 209 -17 c 0
 142 -17 60 15 60 144 c 2
 60 540 l 1
 199 540 l 1
 199 159.5 l 2
EndSplineSet
Validated: 3073
Substitution2: "'smcp' lowercase to small caps in Greek-1" sc.i
EndChar

StartChar: kappa
Encoding: 954 954 379
Width: 567
Flags: HMW
AnchorPoint: "above" 296 550 basechar 0
LayerCount: 2
Fore
SplineSet
557 -8 m 1
 389 -8 l 1
 228 236 l 1
 197 206 l 1
 197 -8 l 1
 60 -8 l 1
 60 543 l 1
 197 543 l 1
 197 374 l 1
 367 543 l 1
 551 543 l 1
 326 329 l 1
 557 -8 l 1
EndSplineSet
Validated: 3073
Substitution2: "'locl' local. forms in Greek-1" kappasymbol
Substitution2: "'smcp' lowercase to small caps in Greek-1" sc.k
EndChar

StartChar: lambda
Encoding: 955 955 380
Width: 589
Flags: HMW
AnchorPoint: "above" 311 730 basechar 0
LayerCount: 2
Fore
SplineSet
276 334 m 1
 154 -2 l 1
 10 -2 l 1
 209 515 l 1
 205 527 l 2
 182 603 161 610 131 610 c 0
 100 610 98 603 52 599 c 1
 67 721 l 1
 100 733 124 739 143 739 c 0
 265 739 297 630 334 532 c 2
 480 143 l 2
 490 116 493 113 498 113 c 0
 511 113 541 131 546 134 c 1
 579 22 l 1
 533 -2 498 -13 472 -13 c 0
 408 -13 390 27 372 76 c 2
 372 76 280 323 276 334 c 1
EndSplineSet
Validated: 3073
Substitution2: "'smcp' lowercase to small caps in Greek-1" sc.lambda
EndChar

StartChar: uni03BC
Encoding: 956 956 381
Width: 613
Flags: HMW
AnchorPoint: "above" 306 550 basechar 0
LayerCount: 2
Fore
SplineSet
306 103 m 0
 346 103 406 120 406 218 c 2
 406 543 l 1
 542 543 l 1
 542 164 l 2
 542 102 564 109 567 104 c 2
 603 36 l 1
 550 1 536 0 521 0 c 0
 518 0 l 0
 478 0 445 17 430 46 c 1
 403 15 355 -9 303 -9 c 0
 261 -9 233 -1 198 22 c 1
 198 -202 l 1
 60 -202 l 1
 60 543 l 1
 198 543 l 1
 198 218 l 2
 198 154 240 103 306 103 c 0
EndSplineSet
Validated: 3073
Substitution2: "'smcp' lowercase to small caps in Greek-1" sc.m
EndChar

StartChar: nu
Encoding: 957 957 382
Width: 566
Flags: HMW
AnchorPoint: "above" 296 550 basechar 0
LayerCount: 2
Fore
SplineSet
556 543 m 1
 341 -25 l 1
 225 -25 l 1
 10 543 l 1
 156 543 l 1
 283 188 l 25
 412 543 l 1
 556 543 l 1
EndSplineSet
Validated: 3073
Substitution2: "'smcp' lowercase to small caps in Greek-1" sc.n
EndChar

StartChar: xi
Encoding: 958 958 383
Width: 539
Flags: HMW
AnchorPoint: "above" 281 730 basechar 0
LayerCount: 2
Fore
SplineSet
213 511 m 0
 213 475 234 427 354 427 c 2
 462 427 l 1
 462 316 l 1
 326 316 l 2
 237 316 175 266 175 202 c 0
 175 143 237 102 313 102 c 0
 430 102 519 93 519 -27 c 0
 519 -70 502 -130 469 -209 c 1
 349 -165 l 1
 361 -133 390 -57 390 -34 c 0
 390 -17 386 -14 321 -14 c 0
 165.481 -14 40 27.5996 40 194 c 0
 46 269 59 322 159 377 c 1
 134 390 86 431 86 511 c 0
 86 554 99 584 123 615 c 1
 62 615 l 1
 62 731 l 1
 488 731 l 1
 488 615 l 1
 295 615 l 2
 246 615 213 552 213 511 c 0
EndSplineSet
Validated: 3073
Substitution2: "'smcp' lowercase to small caps in Greek-1" sc.xi
EndChar

StartChar: pi
Encoding: 960 960 385
Width: 658
Flags: HMW
AnchorPoint: "above" 326 550 basechar 0
LayerCount: 2
Fore
SplineSet
565 95 m 1
 569 95 607 124 612 127 c 1
 643 10 l 1
 617 0 574 -18 540 -18 c 0
 452 -18 426 30 426 122 c 2
 426 427 l 1
 242 427 l 1
 242 -13 l 1
 100 -13 l 1
 100 427 l 1
 31 427 l 1
 30 545 l 1
 626 545 l 1
 626 427 l 1
 563 427 l 1
 563 124 l 2
 563 108 563 98 565 95 c 1
EndSplineSet
Validated: 3073
Substitution2: "'smcp' lowercase to small caps in Greek-1" sc.pi
EndChar

StartChar: rho
Encoding: 961 961 386
Width: 634
Flags: HMW
AnchorPoint: "above" 326 550 basechar 0
AnchorPoint: "above_gk" 330 564 basechar 0
LayerCount: 2
Fore
SplineSet
594 277 m 0
 594 49 433 -8 325 -8 c 0
 272 -8 234 5 198 28 c 1
 198 -203 l 1
 60 -203 l 1
 60 277 l 2
 60 499 213 555 325 555 c 0
 433 555 594 499 594 277 c 0
198 270 m 0
 198 144 268 112 325 112 c 0
 378 112 454 144 454 272 c 0
 454 404 379 437 325 437 c 0
 274 437 198 412 198 270 c 0
EndSplineSet
Validated: 3073
Substitution2: "'smcp' lowercase to small caps in Greek-1" sc.p
Substitution2: "'subs' subscript-phonetic" rhosub
EndChar

StartChar: sigmafinal
Encoding: 962 962 387
Width: 593
Flags: HMW
AnchorPoint: "above" 316 550 basechar 0
LayerCount: 2
Fore
SplineSet
182 273 m 0
 182 12 552 218 552 -23 c 0
 552 -61 538 -98 496 -205 c 1
 360 -157 l 1
 379 -117 395 -73 410 -28 c 0
 410 -25 404 -24 392 -24 c 0
 357.635 -20.21 40 -12 40 275 c 0
 40 443 149 554 313 554 c 0
 418 554 553 503 553 298 c 1
 417 298 l 1
 417 379 394 429 305 429 c 0
 253 429 182 398 182 273 c 0
EndSplineSet
Validated: 3073
Substitution2: "'smcp' lowercase to small caps in Greek-1" sc.sigma
EndChar

StartChar: sigma
Encoding: 963 963 388
Width: 662
Flags: HMW
AnchorPoint: "above" 306 550 basechar 0
LayerCount: 2
Fore
SplineSet
310 -12 m 0
 94 -12 40 157 40 270 c 0
 40 494 195 551 310 551 c 0
 329 551 346 547 362 547 c 0
 652 547 l 1
 652 421 l 1
 537 421 l 1
 566 376 579 325 579 270 c 0
 579 109 483 -12 310 -12 c 0
310 435 m 0
 207 435 181 334 181 270 c 0
 181 178 219 106 310 106 c 0
 360 106 438 131 438 270 c 0
 438 401 368 435 310 435 c 0
EndSplineSet
Validated: 3073
Substitution2: "'smcp' lowercase to small caps in Greek-1" sc.sigma
EndChar

StartChar: tau
Encoding: 964 964 389
Width: 557
Flags: HMW
AnchorPoint: "above" 266 550 basechar 0
LayerCount: 2
Fore
SplineSet
341 -12 m 0
 209 -12 189 58 189 156 c 2
 189 428 l 1
 20 428 l 1
 20 542 l 1
 537 542 l 1
 537 428 l 1
 331 428 l 1
 331 163 l 2
 331 119 334 118 357 118 c 0
 363 118 385 122 411 128 c 1
 442 3 l 1
 421 -1 377 -12 341 -12 c 0
EndSplineSet
Validated: 3073
Substitution2: "'smcp' lowercase to small caps in Greek-1" sc.t
EndChar

StartChar: upsilon
Encoding: 965 965 390
Width: 608
Flags: HMW
AnchorPoint: "above" 306 550 basechar 0
AnchorPoint: "above_gk" 305 556 basechar 0
LayerCount: 2
Fore
SplineSet
548 212 m 2
 548 73.0625 504.319 -16 307 -16 c 0
 96 -16 60 78 60 212 c 2
 60 540 l 1
 198 540 l 1
 198 238 l 2
 198 137 213 105 305 105 c 0
 396 105 410 135 410 244 c 2
 410 540 l 1
 548 540 l 1
 548 212 l 2
EndSplineSet
Validated: 3073
Substitution2: "'smcp' lowercase to small caps in Greek-1" sc.upsilon
EndChar

StartChar: phi
Encoding: 966 966 391
Width: 788
Flags: HMW
AnchorPoint: "above" 406 550 basechar 0
LayerCount: 2
Fore
SplineSet
468 112 m 1
 555 112 613 173 613 260 c 0
 613 343 557 411 468 411 c 1
 468 112 l 1
40 260 m 0
 40 420 155 500 201 527 c 1
 282 427 l 1
 221 386 175 333 175 264 c 0
 175 184 240 112 335 112 c 1
 335 545 l 1
 444 545 l 2
 630 545 748 419 748 259 c 0
 748 120.048 661 -14 469 -14 c 1
 469 -196 l 1
 330 -196 l 1
 330 -14 l 1
 145 -14 40 106 40 260 c 0
EndSplineSet
Validated: 3073
Substitution2: "'smcp' lowercase to small caps in Greek-1" sc.phi
Substitution2: "'subs' subscript-phonetic" phisub
Substitution2: "'sups' superscript-phonetic" phisup
EndChar

StartChar: chi
Encoding: 967 967 392
Width: 631
Flags: HMW
AnchorPoint: "above" 336 550 basechar 0
LayerCount: 2
Fore
SplineSet
611 -180 m 1
 578.25 -194.75 556 -199 530 -199 c 0
 473 -199 427 -157 397 -102 c 2
 321 48 l 1
 159 -188 l 1
 0 -188 l 1
 243 179 l 1
 106 413 l 2
 92 434 92 437 74 437 c 0
 63 434 46 433 23 433 c 1
 23 552 l 1
 69.6465 559.288 93.2217 561 102 561 c 0
 175 561 205 513 217 492 c 2
 324 298 l 1
 458 542 l 1
 606 542 l 1
 403 178 l 1
 525 -49 l 2
 539 -71 542 -71 554 -71 c 0
 563.138 -71 592.525 -60.1582 611 -54 c 1
 611 -180 l 1
EndSplineSet
Validated: 3073
Substitution2: "'smcp' lowercase to small caps in Greek-1" sc.x
Substitution2: "'subs' subscript-phonetic" chisub
Substitution2: "'sups' superscript-phonetic" chisup
EndChar

StartChar: psi
Encoding: 968 968 393
Width: 728
Flags: HMW
AnchorPoint: "above" 366 550 basechar 0
LayerCount: 2
Fore
SplineSet
432 108 m 1
 494 114 538 136 538 248 c 2
 538 540 l 1
 678 540 l 1
 678 221 l 2
 678 74 581 -6 432 -12 c 1
 432 -205 l 1
 296 -205 l 1
 296 -12 l 1
 146 -6 50 73 50 221 c 2
 50 540 l 1
 190 540 l 1
 190 248 l 2
 190 146 222 115 296 108 c 1
 296 523 l 1
 432 523 l 1
 432 108 l 1
EndSplineSet
Validated: 3073
Substitution2: "'smcp' lowercase to small caps in Greek-1" sc.psi
EndChar

StartChar: omega
Encoding: 969 969 394
Width: 798
Flags: HMW
AnchorPoint: "above" 396 550 basechar 0
AnchorPoint: "below_gk" 395 -24 basechar 0
AnchorPoint: "above_gk" 401 564 basechar 0
LayerCount: 2
Fore
SplineSet
540 101 m 0
 611 101 624 188 624 241 c 0
 624 363 572 427 497 504 c 1
 626 545 l 1
 728 463 758 312 758 247 c 0
 758 92 677 -15 543 -15 c 0
 478 -15 430 11 399 50 c 1
 368 11 319 -15 255 -15 c 0
 122 -15 40 90 40 247 c 0
 40 304 71 471 173 544 c 1
 302 505 l 1
 233 434 174 366 174 241 c 0
 174 180 190 101 257 101 c 0
 320 104 332 138 332 163 c 2
 332 399 l 1
 466 399 l 1
 466 163 l 2
 466 140 478 104 540 101 c 0
EndSplineSet
Validated: 3073
Substitution2: "'smcp' lowercase to small caps in Greek-1" sc.omega
EndChar

StartChar: Djecyr
Encoding: 1026 1026 402
Width: 824
Flags: HMW
AnchorPoint: "cyr-above" 286 728 basechar 0
LayerCount: 2
Fore
SplineSet
546 504 m 2
 728 504 764 361 764 324 c 2
 764 0 l 2
 742 -166 628.983 -161.786 544 -163 c 2
 474 -164 l 1
 474 -70 l 1
 534 -70 l 2
 582 -69 614 -51 614 0 c 2
 614 317 l 2
 614 360.403 590.5 379 534 379 c 2
 359 379 l 1
 359 0 l 1
 208 0 l 1
 208 605 l 1
 20 605 l 1
 20 729 l 1
 542 729 l 1
 542 605 l 1
 358 605 l 1
 358 504 l 1
 546 504 l 2
EndSplineSet
Validated: 3073
Substitution2: "'c2sc' caps to small caps in Cyrillic-1" sc.cyr_dje
EndChar

StartChar: Ecyr
Encoding: 1028 1028 404
Width: 721
Flags: HMW
AnchorPoint: "cyr-above" 377 728 basechar 0
LayerCount: 2
Fore
SplineSet
535 482 m 1
 527 519 504 613 379 613 c 0
 282 613 213 548 193 436 c 1
 484 436 l 1
 484 311 l 1
 192 311 l 1
 204 179 269 103 374 103 c 0
 467 103 526 156 535 249 c 1
 681 249 l 1
 672 82 551 -23 370 -23 c 0
 167 -23 40 124 40 358 c 0
 40 594 168 741 374 741 c 0
 544 741 665 646 678 482 c 1
 535 482 l 1
EndSplineSet
Validated: 3073
Substitution2: "'c2sc' caps to small caps in Cyrillic-invariant-B" ecyr
EndChar

StartChar: Ljecyr
Encoding: 1033 1033 409
Width: 1078
Flags: HMW
AnchorPoint: "cyr-above" 550 728 basechar 0
LayerCount: 2
Fore
SplineSet
1038 223 m 0
 1038 33.4502 899.938 0 803 0 c 2
 481 0 l 1
 481 604 l 1
 259 604 l 1
 259 414 l 2
 259 109 163 0 20 0 c 1
 20 145 l 17
 73 145 109 208 109 460 c 2
 109 729 l 1
 631 729 l 1
 631 435 l 1
 818 435 l 2
 994 435 1038 321 1038 223 c 0
791 125 m 2
 867 125 888 153 888 218 c 0
 888 285 855 310 789 310 c 2
 631 310 l 1
 631 125 l 1
 791 125 l 2
EndSplineSet
Validated: 3073
Substitution2: "'c2sc' caps to small caps in Cyrillic-invariant-B" ljecyr
EndChar

StartChar: Njecyr
Encoding: 1034 1034 410
Width: 1116
Flags: HMW
AnchorPoint: "cyr-above" 588 728 basechar 0
LayerCount: 2
Fore
SplineSet
669 729 m 1
 669 469 l 1
 856 469 l 2
 990 469 1076 374 1076 226 c 0
 1076 80 993 0 841 0 c 2
 519 0 l 1
 519 311 l 1
 230 311 l 1
 230 0 l 1
 80 0 l 1
 80 729 l 1
 230 729 l 1
 230 436 l 1
 518 436 l 1
 518 729 l 1
 669 729 l 1
669 344 m 1
 669 125 l 1
 809 125 l 2
 889 125 926 160 926 235 c 0
 926 309 889 344 809 344 c 2
 669 344 l 1
EndSplineSet
Validated: 3073
Substitution2: "'c2sc' caps to small caps in Cyrillic-invariant-B" njecyr
EndChar

StartChar: Tshecyr
Encoding: 1035 1035 411
Width: 824
Flags: HMW
LayerCount: 2
Fore
SplineSet
546 504 m 2
 728 504 764 361 764 324 c 2
 764 0 l 1
 614 0 l 1
 614 317 l 2
 614 360 582 379 534 379 c 2
 359 379 l 1
 359 0 l 1
 208 0 l 1
 208 605 l 1
 20 605 l 1
 20 729 l 1
 542 729 l 1
 542 605 l 1
 358 605 l 1
 358 504 l 1
 546 504 l 2
EndSplineSet
Validated: 3073
Substitution2: "'c2sc' caps to small caps in Cyrillic-1" sc.cyr_tshe
EndChar

StartChar: Dzhecyr
Encoding: 1039 1039 415
Width: 750
Flags: HMW
AnchorPoint: "cyr-above" 368 728 basechar 0
LayerCount: 2
Fore
SplineSet
440 0 m 1
 440 -150 l 1
 310 -150 l 1
 310 0 l 1
 80 0 l 1
 80 729 l 1
 230 729 l 1
 230 125 l 1
 520 125 l 1
 520 729 l 1
 670 729 l 1
 670 0 l 1
 440 0 l 1
EndSplineSet
Validated: 3073
Substitution2: "'c2sc' caps to small caps in Cyrillic-invariant-B" dzhecyr
EndChar

StartChar: Becyr
Encoding: 1041 1041 417
Width: 704
Flags: HMW
AnchorPoint: "cyr-above" 338 728 basechar 0
LayerCount: 2
Fore
SplineSet
664 222 m 0
 664 125 613 0 408 0 c 2
 80 0 l 1
 80 729 l 1
 592 729 l 1
 592 604 l 1
 230 604 l 1
 230 463 l 1
 393 463 l 2
 616 463 664 294 664 222 c 0
230 338 m 1
 230 125 l 1
 409 125 l 2
 482 125 520 170 520 231 c 0
 520 293 482 338 409 338 c 2
 230 338 l 1
EndSplineSet
Validated: 3073
Substitution2: "'c2sc' caps to small caps in Cyrillic-1" sc.cyr_be
EndChar

StartChar: Gecyr
Encoding: 1043 1043 419
Width: 612
Flags: HMW
AnchorPoint: "cyr-above" 321 728 basechar 0
LayerCount: 2
Fore
SplineSet
230 0 m 1
 80 0 l 1
 80 729 l 1
 592 729 l 1
 592 604 l 1
 230 604 l 1
 230 0 l 1
EndSplineSet
Validated: 3073
Substitution2: "'c2sc' caps to small caps in Cyrillic-invariant" gecyr
EndChar

StartChar: Decyr
Encoding: 1044 1044 420
Width: 900
Flags: MW
AnchorPoint: "cyr-above" 484 728 basechar 0
LayerCount: 2
Fore
SplineSet
139 108 m 2
 192 108 230 255 230 461 c 2
 230 729 l 1
 750 729 l 1
 750 108 l 1
 865 108 l 1
 865 -150 l 1
 735 -150 l 1
 735 0 l 1
 165 0 l 1
 165 -150 l 1
 35 -150 l 1
 35 108 l 1
 139 108 l 2
333 125 m 1
 600 125 l 1
 600 604 l 1
 380 604 l 1
 380 414 l 2
 380 319 373 209 333 125 c 1
EndSplineSet
Validated: 3073
Substitution2: "'c2sc' caps to small caps in Cyrillic-invariant" decyr
EndChar

StartChar: Zhecyr
Encoding: 1046 1046 422
Width: 1076
Flags: HMW
AnchorPoint: "cyr-above" 531 728 basechar 0
LayerCount: 2
Fore
SplineSet
463 285 m 1
 194 0 l 1
 10 0 l 1
 367 378 l 1
 54 729 l 1
 218 729 l 1
 463 450 l 1
 463 729 l 1
 613 729 l 1
 613 450 l 1
 858 729 l 1
 1022 729 l 1
 709 378 l 1
 1066 0 l 1
 882 0 l 1
 613 285 l 1
 613 0 l 1
 463 0 l 1
 463 285 l 1
EndSplineSet
Validated: 3073
Substitution2: "'c2sc' caps to small caps in Cyrillic-invariant" zhecyr
EndChar

StartChar: Zecyr
Encoding: 1047 1047 423
Width: 681
Flags: HMW
AnchorPoint: "cyr-above" 339 728 basechar 0
LayerCount: 2
Fore
SplineSet
53 507 m 1
 53 706 225 741 339 741 c 0
 514 741 615 659 615 517 c 0
 615 453 595 409 552 377 c 1
 614 343 641 293 641 213 c 0
 641 65 530 -23 342 -23 c 0
 156 -23 49 62 40 218 c 1
 186 218 l 1
 191 140 248 97 350 97 c 0
 441 97 497 134 497 195 c 0
 497 254 462 308 360 308 c 2
 258 308 l 1
 258 428 l 1
 334 428 l 2
 443 428 472 478 472 531 c 0
 472 586 423 621 346 621 c 0
 251 621 198 581 193 507 c 1
 53 507 l 1
EndSplineSet
Validated: 3073
Substitution2: "'c2sc' caps to small caps in Cyrillic-invariant" zecyr
EndChar

StartChar: Iicyr
Encoding: 1048 1048 424
Width: 753
Flags: HMW
AnchorPoint: "cyr-above" 371 728 basechar 0
LayerCount: 2
Fore
SplineSet
230 0 m 1
 80 0 l 1
 80 729 l 1
 230 729 l 1
 230 233 l 1
 519 729 l 1
 673 729 l 1
 673 0 l 1
 523 0 l 1
 523 504 l 1
 230 0 l 1
EndSplineSet
Validated: 3073
Substitution2: "'c2sc' caps to small caps in Cyrillic-invariant" iicyr
EndChar

StartChar: Kacyr
Encoding: 1050 1050 426
Width: 728
Flags: HMW
AnchorPoint: "cyr-above" 341 728 basechar 0
LayerCount: 2
Fore
SplineSet
230 0 m 1
 80 0 l 1
 80 729 l 1
 230 729 l 1
 230 450 l 1
 515 729 l 1
 692 729 l 1
 326 378 l 1
 723 0 l 1
 523 0 l 1
 230 285 l 1
 230 0 l 1
EndSplineSet
Validated: 3073
Substitution2: "'c2sc' caps to small caps in Cyrillic-invariant" kacyr
EndChar

StartChar: Elcyr
Encoding: 1051 1051 427
Width: 711
Flags: HMW
AnchorPoint: "cyr-above" 351 728 basechar 0
LayerCount: 2
Fore
SplineSet
481 604 m 1
 259 604 l 1
 259 400 l 2
 259 223 232 -12 20 -12 c 1
 20 133 l 1
 90.5 133 109 226.546 109 447 c 2
 109 729 l 1
 631 729 l 1
 631 0 l 1
 481 0 l 1
 481 604 l 1
EndSplineSet
Validated: 3073
Substitution2: "'c2sc' caps to small caps in Cyrillic-invariant" elcyr
EndChar

StartChar: Pecyr
Encoding: 1055 1055 431
Width: 749
Flags: HMW
AnchorPoint: "cyr-above" 380 728 basechar 0
LayerCount: 2
Fore
SplineSet
519 604 m 1
 230 604 l 1
 230 0 l 1
 80 0 l 1
 80 729 l 1
 669 729 l 1
 669 0 l 1
 519 0 l 1
 519 604 l 1
EndSplineSet
Validated: 3073
Substitution2: "'c2sc' caps to small caps in Cyrillic-invariant" pecyr
EndChar

StartChar: Ucyr
Encoding: 1059 1059 435
Width: 701
Flags: HMW
AnchorPoint: "cyr-above" 350 728 basechar 0
LayerCount: 2
Fore
SplineSet
323 0 m 1
 149 0 l 1
 263 226 l 1
 10 729 l 1
 173 729 l 1
 345 384 l 1
 517 729 l 1
 691 729 l 1
 323 0 l 1
EndSplineSet
Validated: 3073
Substitution2: "'c2sc' caps to small caps in Cyrillic-1" sc.cyr_u
EndChar

StartChar: Efcyr
Encoding: 1060 1060 436
Width: 912
Flags: HMW
AnchorPoint: "cyr-above" 453 728 basechar 0
LayerCount: 2
Fore
SplineSet
381 0 m 1
 381 94 l 1
 373 94 361 94 347 94 c 0
 250 94 40 110 40 374 c 0
 40 627 248 638 353 638 c 0
 363 638 373 638 381 638 c 1
 381 729 l 1
 531 729 l 1
 531 638 l 1
 539 638 549 638 559 638 c 0
 664 638 872 627 872 374 c 0
 872 110 662 94 565 94 c 0
 551 94 539 94 531 94 c 1
 531 0 l 1
 381 0 l 1
381 188 m 1
 381 540 l 1
 376 540 371 540 365 540 c 0
 300 540 174 533 174 370 c 0
 174 201 278 188 348 188 c 0
 360 188 372 188 381 188 c 1
531 188 m 1
 540 188 552 188 564 188 c 0
 634 188 738 201 738 370 c 0
 738 533 612 540 547 540 c 0
 541 540 536 540 531 540 c 1
 531 188 l 1
EndSplineSet
Validated: 3073
Substitution2: "'c2sc' caps to small caps in Cyrillic-1" sc.phi
EndChar

StartChar: Tsecyr
Encoding: 1062 1062 438
Width: 809
Flags: HMW
AnchorPoint: "cyr-above" 378 728 basechar 0
LayerCount: 2
Fore
SplineSet
519 125 m 1
 519 729 l 1
 669 729 l 1
 669 108 l 1
 779 108 l 1
 779 -150 l 1
 649 -150 l 1
 649 0 l 1
 80 0 l 1
 80 729 l 1
 230 729 l 1
 230 125 l 1
 519 125 l 1
EndSplineSet
Validated: 3073
Substitution2: "'c2sc' caps to small caps in Cyrillic-invariant" tsecyr
EndChar

StartChar: Checyr
Encoding: 1063 1063 439
Width: 706
Flags: HMW
AnchorPoint: "cyr-above" 350 728 basechar 0
LayerCount: 2
Fore
SplineSet
476 225 m 1
 288 225 l 2
 170 225 70 306 70 406 c 2
 70 729 l 1
 220 729 l 1
 220 412 l 2
 220 366 264 350 300 350 c 2
 475 350 l 1
 475 729 l 1
 626 729 l 1
 626 0 l 1
 476 0 l 1
 476 225 l 1
EndSplineSet
Validated: 3073
Substitution2: "'c2sc' caps to small caps in Cyrillic-invariant" checyr
EndChar

StartChar: Shacyr
Encoding: 1064 1064 440
Width: 1059
Flags: HMW
AnchorPoint: "cyr-above" 523 728 basechar 0
LayerCount: 2
Fore
SplineSet
979 0 m 1
 80 0 l 1
 80 729 l 1
 230 729 l 1
 230 125 l 1
 449 125 l 1
 449 729 l 1
 599 729 l 1
 599 125 l 1
 829 125 l 1
 829 729 l 1
 979 729 l 1
 979 0 l 1
EndSplineSet
Validated: 3073
Substitution2: "'c2sc' caps to small caps in Cyrillic-invariant" shacyr
EndChar

StartChar: Shchacyr
Encoding: 1065 1065 441
Width: 1139
Flags: HMW
AnchorPoint: "cyr-above" 537 728 basechar 0
LayerCount: 2
Fore
SplineSet
974 0 m 1
 80 0 l 1
 80 729 l 1
 230 729 l 1
 230 125 l 1
 459 125 l 1
 459 729 l 1
 609 729 l 1
 609 125 l 1
 839 125 l 1
 839 729 l 1
 989 729 l 1
 989 108 l 1
 1109 108 l 1
 1109 -150 l 1
 974 -150 l 1
 974 0 l 1
EndSplineSet
Validated: 3073
Substitution2: "'c2sc' caps to small caps in Cyrillic-invariant" shchacyr
EndChar

StartChar: Hardsigncyr
Encoding: 1066 1066 442
Width: 847
Flags: HMW
AnchorPoint: "cyr-above" 512 728 basechar 0
LayerCount: 2
Fore
SplineSet
400 469 m 1
 587 469 l 2
 721 469 807 374 807 226 c 0
 807 80 724 0 572 0 c 2
 250 0 l 1
 250 604 l 1
 20 604 l 1
 20 729 l 1
 400 729 l 1
 400 469 l 1
400 344 m 1
 400 125 l 1
 540 125 l 2
 620 125 657 160 657 235 c 0
 657 309 620 344 540 344 c 2
 400 344 l 1
EndSplineSet
Validated: 3073
Substitution2: "'c2sc' caps to small caps in Cyrillic-invariant" hardsigncyr
EndChar

StartChar: Yericyr
Encoding: 1067 1067 443
Width: 976
Flags: HMW
AnchorPoint: "cyr-above" 501 728 basechar 0
LayerCount: 2
Fore
SplineSet
896 729 m 1
 896 0 l 1
 746 0 l 1
 746 729 l 1
 896 729 l 1
230 469 m 1
 417 469 l 2
 551 469 637 374 637 226 c 0
 637 80 554 0 402 0 c 2
 80 0 l 1
 80 729 l 1
 230 729 l 1
 230 469 l 1
230 344 m 1
 230 125 l 1
 370 125 l 2
 450 125 487 160 487 235 c 0
 487 309 450 344 370 344 c 2
 230 344 l 1
EndSplineSet
Validated: 3073
Substitution2: "'c2sc' caps to small caps in Cyrillic-invariant" yericyr
EndChar

StartChar: Softsigncyr
Encoding: 1068 1068 444
Width: 677
Flags: HMW
AnchorPoint: "cyr-above" 374 728 basechar 0
LayerCount: 2
Fore
SplineSet
230 469 m 1
 417 469 l 2
 551 469 637 374 637 226 c 0
 637 80 554 0 402 0 c 2
 80 0 l 1
 80 729 l 1
 230 729 l 1
 230 469 l 1
230 344 m 1
 230 125 l 1
 370 125 l 2
 450 125 487 160 487 235 c 0
 487 309 450 344 370 344 c 2
 230 344 l 1
EndSplineSet
Validated: 3073
Substitution2: "'c2sc' caps to small caps in Cyrillic-invariant" softsigncyr
EndChar

StartChar: Ereversedcyr
Encoding: 1069 1069 445
Width: 721
Flags: HMW
AnchorPoint: "cyr-above" 349 728 basechar 0
LayerCount: 2
Fore
SplineSet
43 482 m 1
 56 646 182 741 347 741 c 0
 553 741 681 594 681 358 c 0
 681 124 554 -23 351 -23 c 0
 170 -23 49 82 40 249 c 1
 186 249 l 1
 195 156 254 103 347 103 c 0
 452 103 517 179 529 311 c 1
 237 311 l 1
 237 436 l 1
 528 436 l 1
 508 548 439 613 342 613 c 0
 217 613 195 519 186 482 c 1
 43 482 l 1
EndSplineSet
Validated: 3073
Substitution2: "'c2sc' caps to small caps in Cyrillic-invariant" ereversedcyr
EndChar

StartChar: IUcyr
Encoding: 1070 1070 446
Width: 1095
Flags: HMW
AnchorPoint: "cyr-above" 459 728 basechar 0
LayerCount: 2
Fore
SplineSet
714 -23 m 0
 444 -23 384 226 376 311 c 1
 230 311 l 1
 230 0 l 1
 80 0 l 1
 80 729 l 1
 230 729 l 1
 230 436 l 1
 379 436 l 1
 391 506 454 741 713 741 c 0
 925 741 1055 572 1055 354 c 0
 1055 147 920 -23 714 -23 c 0
714 613 m 0
 593 613 523 512 523 359 c 0
 523 206 593 105 714 105 c 0
 834 105 905 206 905 355 c 0
 905 513 837 613 714 613 c 0
EndSplineSet
Validated: 3073
Substitution2: "'c2sc' caps to small caps in Cyrillic-invariant" iucyr
EndChar

StartChar: IAcyr
Encoding: 1071 1071 447
Width: 701
Flags: HMW
AnchorPoint: "cyr-above" 368 728 basechar 0
LayerCount: 2
Fore
SplineSet
410 260 m 1
 189 0 l 1
 10 0 l 1
 230 265 l 1
 142 282 64 364 64 503 c 0
 64 649 147 729 299 729 c 2
 621 729 l 1
 621 0 l 1
 471 0 l 1
 471 260 l 1
 410 260 l 1
471 385 m 1
 471 604 l 1
 331 604 l 2
 251 604 214 569 214 494 c 0
 214 420 251 385 331 385 c 2
 471 385 l 1
EndSplineSet
Validated: 3073
Substitution2: "'c2sc' caps to small caps in Cyrillic-invariant" iacyr
EndChar

StartChar: becyr
Encoding: 1073 1073 449
Width: 595
Flags: HMW
AnchorPoint: "cyr-above" 269 752 basechar 0
LayerCount: 2
Fore
SplineSet
328 549 m 0
 456 549 555 432 555 263 c 0
 555 100 466 -23 295 -23 c 0
 133 -23 40 50 40 292 c 0
 40 428 58 603 186 684 c 0
 231 712 312 716 376 724 c 0
 424 730 428 776 428 776 c 1
 532 777 l 1
 532 736 532 690 499 666 c 0
 416 606 324 642 243 592 c 0
 194 562 160 516 159 462 c 1
 194 532 261 549 328 549 c 0
297 432 m 0
 227 432 179 363 179 265 c 0
 179 162 226 94 297 94 c 0
 366 94 415 164 415 262 c 0
 415 362 366 432 297 432 c 0
EndSplineSet
Validated: 3073
Substitution2: "'smcp' lowercase to small caps in Cyrillic-1" sc.cyr_be
Substitution2: "'locl' local. forms for South Slavic-1" cyr_serb_be
EndChar

StartChar: vecyr
Encoding: 1074 1074 450
Width: 563
Flags: HMW
AnchorPoint: "cyr-above" 279 545 basechar 0
LayerCount: 2
Fore
SplineSet
523 155 m 0
 523 89 485 0 334 0 c 2
 65 0 l 1
 65 540 l 1
 331 540 l 2
 475 540 508 448 508 398 c 0
 508 352 479 300 434 286 c 1
 495 268 523 208 523 155 c 0
205 430 m 1
 205 333 l 1
 299 333 l 2
 350 333 373 341 373 380 c 0
 373 420 350 430 299 430 c 2
 205 430 l 1
205 223 m 1
 205 110 l 1
 305 110 l 2
 359 110 384 125 384 170 c 0
 384 216 359 223 305 223 c 2
 205 223 l 1
EndSplineSet
Validated: 3073
EndChar

StartChar: gecyr
Encoding: 1075 1075 451
Width: 428
Flags: HMW
AnchorPoint: "cyr-above" 247 545 basechar 0
LayerCount: 2
Fore
SplineSet
413 540 m 1
 413 427 l 1
 205 427 l 1
 205 0 l 1
 65 0 l 1
 65 540 l 1
 413 540 l 1
EndSplineSet
Validated: 3073
EndChar

StartChar: decyr
Encoding: 1076 1076 452
Width: 679
Flags: HMW
AnchorPoint: "cyr-above" 364 545 basechar 0
LayerCount: 2
Fore
SplineSet
577 101 m 1
 659 101 l 1
 659 -125 l 1
 549 -125 l 1
 549 0 l 1
 130 0 l 1
 130 -125 l 1
 20 -125 l 1
 20 101 l 1
 82 101 l 2
 135 102 159 252 159 388 c 2
 159 540 l 1
 577 540 l 1
 577 101 l 1
260 113 m 1
 437 113 l 1
 437 427 l 1
 299 427 l 1
 299 376 l 2
 299 259 287 174 260 113 c 1
EndSplineSet
Validated: 3073
EndChar

StartChar: zhecyr
Encoding: 1078 1078 454
Width: 782
Flags: HMW
AnchorPoint: "cyr-above" 385 545 basechar 0
LayerCount: 2
Fore
SplineSet
321 198 m 1
 184 0 l 1
 5 0 l 1
 218 296 l 1
 41 540 l 1
 189 540 l 1
 321 351 l 1
 321 540 l 1
 461 540 l 1
 461 351 l 1
 593 540 l 1
 741 540 l 1
 564 296 l 1
 777 0 l 1
 598 0 l 1
 461 198 l 1
 461 0 l 1
 321 0 l 1
 321 198 l 1
EndSplineSet
Validated: 3073
EndChar

StartChar: zecyr
Encoding: 1079 1079 455
Width: 571
Flags: HMW
AnchorPoint: "cyr-above" 295 545 basechar 0
LayerCount: 2
Fore
SplineSet
177 157 m 1
 185 120 199 87 287 87 c 0
 360 87 391 104 391 143 c 0
 391 182 376 208 309 208 c 2
 217 208 l 1
 217 318 l 1
 311 318 l 2
 354 318 376 344 376 389 c 0
 376 419 344 439 295 439 c 0
 228 439 195 415 194 366 c 1
 59 366 l 1
 61 480 149 549 294 549 c 0
 431 549 516 480 516 369 c 0
 516 349 514 303 472 271 c 1
 512 246 531 213 531 160 c 0
 531 85 484 -23 295 -23 c 0
 131 -23 44 39 40 157 c 1
 177 157 l 1
EndSplineSet
Validated: 3073
EndChar

StartChar: iicyr
Encoding: 1080 1080 456
Width: 625
Flags: HMW
AnchorPoint: "cyr-above" 323 545 basechar 0
LayerCount: 2
Fore
SplineSet
65 540 m 1
 205 540 l 1
 205 202 l 1
 400 540 l 1
 560 540 l 1
 560 0 l 1
 420 0 l 1
 420 338 l 1
 225 0 l 1
 65 0 l 1
 65 540 l 1
EndSplineSet
Validated: 3073
EndChar

StartChar: kacyr
Encoding: 1082 1082 458
Width: 559
Flags: HMW
AnchorPoint: "cyr-above" 277 545 basechar 0
LayerCount: 2
Fore
SplineSet
205 351 m 1
 367 540 l 1
 515 540 l 1
 301 296 l 1
 554 0 l 1
 372 0 l 1
 205 198 l 1
 205 0 l 1
 65 0 l 1
 65 540 l 1
 205 540 l 1
 205 351 l 1
EndSplineSet
Validated: 3073
EndChar

StartChar: elcyr
Encoding: 1083 1083 459
Width: 573
Flags: HMW
AnchorPoint: "cyr-above" 301 545 basechar 0
LayerCount: 2
Fore
SplineSet
95 540 m 1
 508 540 l 1
 508 0 l 1
 368 0 l 1
 368 427 l 1
 235 427 l 1
 235 366 l 2
 235 102 173 -10 20 -10 c 1
 20 125 l 1
 93 126 95 242 95 378 c 2
 95 540 l 1
EndSplineSet
Validated: 3073
EndChar

StartChar: emcyr
Encoding: 1084 1084 460
Width: 676
Flags: HMW
AnchorPoint: "cyr-above" 346 545 basechar 0
LayerCount: 2
Fore
SplineSet
374 0 m 1
 302 0 l 1
 205 297 l 1
 205 0 l 1
 65 0 l 1
 65 540 l 1
 240 540 l 1
 338 213 l 1
 436 540 l 1
 611 540 l 1
 611 0 l 1
 471 0 l 1
 471 297 l 1
 374 0 l 1
EndSplineSet
Validated: 3073
EndChar

StartChar: encyr
Encoding: 1085 1085 461
Width: 613
Flags: HMW
AnchorPoint: "cyr-above" 304 545 basechar 0
LayerCount: 2
Fore
SplineSet
65 540 m 1
 205 540 l 1
 205 320 l 1
 408 320 l 1
 408 540 l 1
 548 540 l 1
 548 0 l 1
 408 0 l 1
 408 207 l 1
 205 207 l 1
 205 0 l 1
 65 0 l 1
 65 540 l 1
EndSplineSet
Validated: 3073
Substitution2: "'sups' superscript-phonetic" encyrsup
EndChar

StartChar: pecyr
Encoding: 1087 1087 463
Width: 613
Flags: HMW
AnchorPoint: "cyr-above" 312 545 basechar 0
LayerCount: 2
Fore
SplineSet
65 540 m 1
 548 540 l 1
 548 0 l 1
 408 0 l 1
 408 427 l 1
 205 427 l 1
 205 0 l 1
 65 0 l 1
 65 540 l 1
EndSplineSet
Validated: 3073
EndChar

StartChar: tecyr
Encoding: 1090 1090 466
Width: 440
Flags: HMW
AnchorPoint: "cyr-above" 225 545 basechar 0
LayerCount: 2
Fore
SplineSet
425 540 m 1
 425 427 l 1
 290 427 l 1
 290 0 l 1
 150 0 l 1
 150 427 l 1
 15 427 l 1
 15 540 l 1
 425 540 l 1
EndSplineSet
Validated: 3073
EndChar

StartChar: efcyr
Encoding: 1092 1092 468
Width: 972
Flags: HMW
AnchorPoint: "cyr-above" 477 705 basechar 0
LayerCount: 2
Fore
SplineSet
706 549 m 0
 846 549 932 421 932 262 c 0
 932 98 836 -24 706 -24 c 0
 638 -24 590 4 556 64 c 1
 556 -218 l 1
 416 -218 l 1
 416 64 l 1
 382 4 334 -24 266 -24 c 0
 136 -24 40 98 40 262 c 0
 40 421 125 549 266 549 c 0
 334 549 382 520 416 460 c 1
 416 719 l 1
 556 719 l 1
 556 460 l 1
 590 520 638 549 706 549 c 0
298 432 m 0
 227 432 180 363 180 260 c 0
 180 162 229 93 298 93 c 0
 368 93 416 161 416 262 c 0
 416 363 368 432 298 432 c 0
674 432 m 0
 604 432 556 363 556 262 c 0
 556 161 604 93 674 93 c 0
 743 93 792 162 792 260 c 0
 792 363 745 432 674 432 c 0
EndSplineSet
Validated: 3073
Substitution2: "'smcp' lowercase to small caps in Cyrillic-1" sc.phi
EndChar

StartChar: tsecyr
Encoding: 1094 1094 470
Width: 654
Flags: HMW
AnchorPoint: "cyr-above" 302 545 basechar 0
LayerCount: 2
Fore
SplineSet
65 0 m 1
 65 540 l 1
 205 540 l 1
 205 113 l 1
 408 113 l 1
 408 540 l 1
 548 540 l 1
 548 101 l 1
 634 101 l 1
 634 -125 l 1
 524 -125 l 1
 524 0 l 1
 65 0 l 1
EndSplineSet
Validated: 3073
EndChar

StartChar: checyr
Encoding: 1095 1095 471
Width: 573
Flags: HMW
AnchorPoint: "cyr-above" 281 545 basechar 0
LayerCount: 2
Fore
SplineSet
50 540 m 1
 190 540 l 1
 190 326 l 2
 190 282 212 278 248 278 c 2
 368 278 l 1
 368 540 l 1
 508 540 l 1
 508 0 l 1
 368 0 l 1
 368 165 l 1
 250 165 l 2
 160 165 50 194 50 325 c 2
 50 540 l 1
EndSplineSet
Validated: 3073
EndChar

StartChar: shacyr
Encoding: 1096 1096 472
Width: 896
Flags: HMW
AnchorPoint: "cyr-above" 449 545 basechar 0
LayerCount: 2
Fore
SplineSet
831 0 m 1
 65 0 l 1
 65 540 l 1
 205 540 l 1
 205 113 l 1
 376 113 l 1
 376 540 l 1
 516 540 l 1
 516 113 l 1
 691 113 l 1
 691 540 l 1
 831 540 l 1
 831 0 l 1
EndSplineSet
Validated: 3073
EndChar

StartChar: shchacyr
Encoding: 1097 1097 473
Width: 970
Flags: HMW
AnchorPoint: "cyr-above" 448 545 basechar 0
LayerCount: 2
Fore
SplineSet
840 0 m 1
 65 0 l 1
 65 540 l 1
 205 540 l 1
 205 113 l 1
 376 113 l 1
 376 540 l 1
 516 540 l 1
 516 113 l 1
 690 113 l 1
 690 540 l 1
 830 540 l 1
 830 101 l 1
 950 101 l 1
 950 -125 l 1
 840 -125 l 1
 840 0 l 1
EndSplineSet
Validated: 3073
EndChar

StartChar: hardsigncyr
Encoding: 1098 1098 474
Width: 703
Flags: MW
AnchorPoint: "cyr-above" 448 545 basechar 0
LayerCount: 2
Fore
SplineSet
663 168 m 0
 663 103 635 0 474 0 c 2
 191 0 l 1
 191 427 l 1
 20 427 l 1
 20 540 l 1
 331 540 l 1
 331 359 l 1
 439 359 l 2
 586 359 663 278 663 168 c 0
331 249 m 1
 331 110 l 1
 440 110 l 2
 494 110 524 135 524 180 c 0
 524 226 489 249 435 249 c 2
 331 249 l 1
EndSplineSet
Validated: 3073
EndChar

StartChar: yericyr
Encoding: 1099 1099 475
Width: 788
Flags: HMW
AnchorPoint: "cyr-above" 392 545 basechar 0
LayerCount: 2
Fore
SplineSet
537 168 m 0
 537 103 509 0 348 0 c 2
 65 0 l 1
 65 540 l 1
 205 540 l 1
 205 359 l 1
 313 359 l 2
 460 359 537 278 537 168 c 0
205 249 m 1
 205 110 l 1
 314 110 l 2
 368 110 398 135 398 180 c 0
 398 226 363 249 309 249 c 2
 205 249 l 1
723 540 m 1
 723 0 l 1
 583 0 l 1
 583 540 l 1
 723 540 l 1
EndSplineSet
Validated: 3073
EndChar

StartChar: softsigncyr
Encoding: 1100 1100 476
Width: 577
Flags: HMW
AnchorPoint: "cyr-above" 309 545 basechar 0
LayerCount: 2
Fore
SplineSet
537 168 m 0
 537 103 509 0 348 0 c 2
 65 0 l 1
 65 540 l 1
 205 540 l 1
 205 359 l 1
 313 359 l 2
 460 359 537 278 537 168 c 0
205 249 m 1
 205 110 l 1
 314 110 l 2
 368 110 398 135 398 180 c 0
 398 226 363 249 309 249 c 2
 205 249 l 1
EndSplineSet
Validated: 3073
EndChar

StartChar: ereversedcyr
Encoding: 1101 1101 477
Width: 568
Flags: HMW
AnchorPoint: "cyr-above" 272 545 basechar 0
LayerCount: 2
Fore
SplineSet
383 320 m 1
 369 397 342 436 274 436 c 0
 217 436 190 409 174 338 c 1
 40 338 l 1
 50 470 138 549 273 549 c 0
 434 549 528 443 528 259 c 0
 528 81 435 -23 275 -23 c 0
 144 -23 53 58 40 187 c 1
 174 187 l 1
 192 117 220 90 274 90 c 0
 332 90 372 133 384 207 c 1
 209 207 l 1
 209 320 l 1
 383 320 l 1
EndSplineSet
Validated: 3073
EndChar

StartChar: iucyr
Encoding: 1102 1102 478
Width: 857
Flags: HMW
AnchorPoint: "cyr-above" 352 545 basechar 0
LayerCount: 2
Fore
SplineSet
307 207 m 1
 205 207 l 1
 205 0 l 1
 65 0 l 1
 65 540 l 1
 205 540 l 1
 205 320 l 1
 307 320 l 1
 327 463 413 549 559 549 c 0
 728 549 817 442 817 259 c 0
 817 86 724 -23 560 -23 c 0
 412 -23 326 63 307 207 c 1
560 436 m 0
 484 436 443 366 443 263 c 0
 443 160 484 90 560 90 c 0
 635 90 677 160 677 261 c 0
 677 367 637 436 560 436 c 0
EndSplineSet
Validated: 3073
EndChar

StartChar: iacyr
Encoding: 1103 1103 479
Width: 581
Flags: HMW
AnchorPoint: "cyr-above" 291 545 basechar 0
LayerCount: 2
Fore
SplineSet
36 385 m 0
 36 451 74 540 225 540 c 2
 516 540 l 1
 516 0 l 1
 376 0 l 1
 376 207 l 1
 332 207 l 1
 189 0 l 1
 10 0 l 1
 165 218 l 1
 82 241 36 305 36 382 c 0
 36 385 l 0
376 317 m 1
 376 430 l 1
 254 430 l 2
 200 430 175 415 175 370 c 0
 175 324 200 317 254 317 c 2
 376 317 l 1
EndSplineSet
Validated: 3073
EndChar

StartChar: djecyr
Encoding: 1106 1106 482
Width: 631
Flags: HMW
AnchorPoint: "cyr-above" 369 670 basechar 0
LayerCount: 2
Fore
SplineSet
339 421 m 0
 271 421 230 374 230 315 c 2
 230 0 l 1
 90 0 l 1
 90 578 l 1
 20 578 l 1
 20 671 l 1
 90 671 l 1
 90 729 l 1
 230 729 l 1
 230 671 l 1
 400 671 l 1
 400 578 l 1
 230 578 l 1
 230 453 l 1
 269 511 322 540 389 540 c 0
 467 540 566 503 566 354 c 2
 566 132 l 2
 566 -45 365 -173 293 -173 c 0
 283 -173 270.812 -171.875 266 -171 c 1
 266 -110 l 1
 322 -108 421 -25 426 112 c 2
 426 322 l 2
 426 406 374 421 339 421 c 0
EndSplineSet
Validated: 3073
Substitution2: "'smcp' lowercase to small caps in Cyrillic-1" sc.cyr_dje
EndChar

StartChar: ecyr
Encoding: 1108 1108 484
Width: 568
Flags: HMW
AnchorPoint: "cyr-above" 289 545 basechar 0
LayerCount: 2
Fore
SplineSet
359 207 m 1
 184 207 l 1
 196 133 236 90 294 90 c 0
 348 90 376 117 394 187 c 1
 528 187 l 1
 515 58 424 -23 293 -23 c 0
 133 -23 40 81 40 259 c 0
 40 443 134 549 295 549 c 0
 430 549 518 470 528 338 c 1
 394 338 l 1
 378 409 351 436 294 436 c 0
 226 436 199 397 185 320 c 1
 359 320 l 1
 359 207 l 1
EndSplineSet
Validated: 3073
EndChar

StartChar: ljecyr
Encoding: 1113 1113 489
Width: 893
Flags: HMW
AnchorPoint: "cyr-above" 450 545 basechar 0
LayerCount: 2
Fore
SplineSet
642 319 m 2
 769 319 853 257 853 178 c 2
 853 147 l 2
 853 85 818 0 677 0 c 2
 394 0 l 1
 394 427 l 1
 235 427 l 1
 235 376 l 2
 235 207 213 11 36 0 c 2
 20 0 l 1
 20 135 l 1
 87 136 95 241 95 387 c 2
 95 540 l 1
 534 540 l 1
 534 319 l 1
 642 319 l 2
638 209 m 2
 534 209 l 1
 534 110 l 1
 643 110 l 2
 694 110 730 110 730 157 c 0
 730 191 712 209 638 209 c 2
EndSplineSet
Validated: 3073
EndChar

StartChar: njecyr
Encoding: 1114 1114 490
Width: 907
Flags: HMW
AnchorPoint: "cyr-above" 471 545 basechar 0
LayerCount: 2
Fore
SplineSet
656 319 m 2
 783 319 867 257 867 178 c 2
 867 147 l 2
 867 85 832 0 691 0 c 2
 408 0 l 1
 408 207 l 1
 205 207 l 1
 205 0 l 1
 65 0 l 1
 65 540 l 1
 205 540 l 1
 205 320 l 1
 408 320 l 1
 408 540 l 1
 548 540 l 1
 548 319 l 1
 656 319 l 2
652 209 m 2
 548 209 l 1
 548 110 l 1
 657 110 l 2
 728 110 744 126 744 162 c 0
 744 189 725 209 652 209 c 2
EndSplineSet
Validated: 3073
EndChar

StartChar: tshecyr
Encoding: 1115 1115 491
Width: 629
Flags: HMW
AnchorPoint: "cyr-above" 369 670 basechar 0
LayerCount: 2
Fore
SplineSet
339 421 m 0
 271 421 230 373 230 315 c 2
 230 0 l 1
 90 0 l 1
 90 578 l 1
 20 578 l 1
 20 671 l 1
 90 671 l 1
 90 729 l 1
 230 729 l 1
 230 671 l 1
 400 671 l 1
 400 578 l 1
 230 578 l 1
 230 453 l 1
 269 511 322 540 389 540 c 0
 466 540 564 503 564 354 c 2
 564 0 l 1
 424 0 l 1
 425 321 l 2
 425 406 375 421 339 421 c 0
EndSplineSet
Validated: 3073
Substitution2: "'smcp' lowercase to small caps in Cyrillic-1" sc.cyr_tshe
EndChar

StartChar: dzhecyr
Encoding: 1119 1119 495
Width: 614
Flags: HMW
AnchorPoint: "cyr-above" 312 545 basechar 0
LayerCount: 2
Fore
SplineSet
362 0 m 1
 362 -125 l 1
 252 -125 l 1
 252 0 l 1
 65 0 l 1
 65 540 l 1
 205 540 l 1
 205 113 l 1
 409 113 l 1
 409 540 l 1
 549 540 l 1
 549 0 l 1
 362 0 l 1
EndSplineSet
Validated: 3073
EndChar

StartChar: Semisoftcyr
Encoding: 1164 1164 496
Width: 682
Flags: HMW
LayerCount: 2
Fore
SplineSet
235 344 m 1
 235 125 l 1
 375 125 l 2
 455 125 492 160 492 235 c 0
 492 309 455 344 375 344 c 2
 235 344 l 1
235 634 m 1
 314 634 l 1
 314 555 l 1
 235 555 l 1
 235 469 l 1
 422 469 l 2
 556 469 642 374 642 226 c 0
 642 80 559 0 407 0 c 2
 85 0 l 1
 85 555 l 1
 15 555 l 1
 15 634 l 1
 85 634 l 1
 85 729 l 1
 235 729 l 1
 235 634 l 1
EndSplineSet
Validated: 3073
Substitution2: "'c2sc' caps to small caps in Cyrillic-invariant-B" semisoftcry
EndChar

StartChar: semisoftcry
Encoding: 1165 1165 497
Width: 611
Flags: HMW
LayerCount: 2
Fore
SplineSet
235 223 m 1
 235 110 l 1
 357 110 l 2
 411 110 436 125 436 170 c 0
 436 216 411 223 357 223 c 2
 235 223 l 1
575 155 m 0
 575 89 537 0 386 0 c 2
 95 0 l 1
 95 392 l 1
 15 392 l 1
 15 471 l 1
 95 471 l 1
 95 540 l 1
 235 540 l 1
 235 471 l 1
 314 471 l 1
 314 392 l 1
 235 392 l 1
 235 333 l 1
 351 333 l 2
 498 333 572 267 575 155 c 0
EndSplineSet
Validated: 3073
EndChar

StartChar: Ertickcyr
Encoding: 1166 1166 498
Width: 677
Flags: HMW
LayerCount: 2
Fore
SplineSet
472 428 m 1
 482 445 487 467 487 494 c 0
 487 569 450 604 370 604 c 2
 230 604 l 1
 230 385 l 1
 370 385 l 2
 381 385 392 386 401 387 c 1
 356 432 l 1
 412 488 l 1
 472 428 l 1
576 324 m 1
 623 277 l 1
 567 221 l 1
 510 278 l 1
 483 266 451 260 417 260 c 2
 230 260 l 1
 230 0 l 1
 80 0 l 1
 80 729 l 1
 402 729 l 2
 554 729 637 649 637 503 c 0
 637 428 615 367 576 324 c 1
EndSplineSet
Validated: 3073
EndChar

StartChar: ertickcyr
Encoding: 1167 1167 499
Width: 612
Flags: HMW
LayerCount: 2
Fore
SplineSet
416 163 m 1
 429 189 436 223 436 260 c 0
 436 363 389 432 318 432 c 0
 248 432 200 363 200 262 c 0
 200 161 248 93 318 93 c 0
 334 93 349 97 363 104 c 1
 308 159 l 1
 364 215 l 1
 416 163 l 1
350 549 m 0
 490 549 576 421 576 262 c 0
 576 183 554 114 516 63 c 1
 575 4 l 1
 519 -52 l 1
 459 8 l 1
 427 -12 390 -24 350 -24 c 0
 282 -24 234 4 200 64 c 1
 200 -218 l 1
 60 -218 l 1
 60 540 l 1
 200 540 l 1
 200 460 l 1
 234 520 282 549 350 549 c 0
EndSplineSet
Validated: 3073
EndChar

StartChar: Gheupturncyr
Encoding: 1168 1168 500
Width: 636
Flags: HMW
LayerCount: 2
Fore
SplineSet
232 0 m 1
 82 0 l 1
 82 729 l 1
 444 728 l 1
 444 864 l 1
 594 864 l 1
 594 604 l 1
 232 604 l 1
 232 0 l 1
EndSplineSet
Validated: 3073
Substitution2: "'c2sc' caps to small caps in Cyrillic-invariant-B" gheupturncyr
EndChar

StartChar: gheupturncyr
Encoding: 1169 1169 501
Width: 440
Flags: HMW
LayerCount: 2
Fore
SplineSet
408 666 m 1
 408 427 l 1
 200 427 l 1
 200 0 l 1
 60 0 l 1
 60 540 l 1
 280 540 l 1
 280 666 l 1
 408 666 l 1
EndSplineSet
Validated: 3073
EndChar

StartChar: Ghestrokecyr
Encoding: 1170 1170 502
Width: 622
Flags: HMW
LayerCount: 2
Fore
SplineSet
243 439 m 1
 434 439 l 1
 434 314 l 1
 243 314 l 1
 243 0 l 1
 93 0 l 1
 93 314 l 1
 15 314 l 1
 15 439 l 1
 93 439 l 1
 93 729 l 1
 605 729 l 1
 605 604 l 1
 243 604 l 1
 243 439 l 1
EndSplineSet
Validated: 3073
Substitution2: "'c2sc' caps to small caps in Cyrillic-invariant-B" ghestrokecyr
EndChar

StartChar: ghestrokecyr
Encoding: 1171 1171 503
Width: 449
Flags: HMW
LayerCount: 2
Fore
SplineSet
81 329 m 1
 81 540 l 1
 429 540 l 1
 429 427 l 1
 221 427 l 1
 221 329 l 1
 325 329 l 1
 325 239 l 1
 221 239 l 1
 221 0 l 1
 81 0 l 1
 81 239 l 1
 15 239 l 1
 15 329 l 1
 81 329 l 1
EndSplineSet
Validated: 3073
EndChar

StartChar: Ghemidhookcyr
Encoding: 1172 1172 504
Width: 647
Flags: HMW
LayerCount: 2
Fore
SplineSet
232 0 m 1
 82 0 l 1
 82 729 l 1
 594 729 l 1
 594 604 l 1
 232 604 l 1
 232 504 l 1
 359 504 l 2
 507 504 607 408 607 282 c 2
 607 50 l 2
 607 -76 507 -172 359 -172 c 2
 322 -172 l 1
 322 -47 l 1
 347 -47 l 2
 405 -47 457 -10 457 56 c 2
 457 276 l 2
 457 342 405 379 347 379 c 2
 232 379 l 1
 232 0 l 1
EndSplineSet
Validated: 3073
Substitution2: "'c2sc' caps to small caps in Cyrillic-invariant-B" ghemidhookcyr
EndChar

StartChar: ghemidhookcyr
Encoding: 1173 1173 505
Width: 574
Flags: MW
LayerCount: 2
Fore
SplineSet
308 -68 m 1
 375 -68 394 -22 394 32 c 2
 394 111 l 2
 394 190 354 211 288 211 c 0
 225 211 200 168 200 125 c 2
 200 0 l 1
 60 0 l 1
 60 540 l 1
 408 540 l 1
 408 427 l 1
 200 427 l 1
 200 273 l 1
 228 318 269 330 338 330 c 0
 420 330 534 302 534 143 c 2
 534 0 l 2
 534 -150 434 -187 358 -187 c 2
 308 -187 l 1
 308 -68 l 1
EndSplineSet
Validated: 3073
EndChar

StartChar: Zhedesccyr
Encoding: 1174 1174 506
Width: 1096
Flags: HMW
LayerCount: 2
Fore
SplineSet
964 108 m 1
 1066 108 l 1
 1066 -150 l 1
 931 -150 l 1
 931 0 l 1
 887 0 l 1
 613 285 l 1
 613 0 l 1
 463 0 l 1
 463 285 l 1
 189 0 l 1
 10 0 l 1
 367 378 l 1
 54 729 l 1
 218 729 l 1
 463 450 l 1
 463 729 l 1
 613 729 l 1
 613 450 l 1
 858 729 l 1
 1022 729 l 1
 709 378 l 1
 964 108 l 1
EndSplineSet
Validated: 3073
Substitution2: "'c2sc' caps to small caps in Cyrillic-invariant-B" zhedesccyr
EndChar

StartChar: zhedesccyr
Encoding: 1175 1175 507
Width: 803
Flags: HMW
LayerCount: 2
Fore
SplineSet
704 101 m 1
 777 101 l 1
 777 -125 l 1
 667 -125 l 1
 667 0 l 1
 598 0 l 1
 461 198 l 1
 461 0 l 1
 321 0 l 1
 321 198 l 1
 184 0 l 1
 5 0 l 1
 218 296 l 1
 41 540 l 1
 189 540 l 1
 321 351 l 1
 321 540 l 1
 461 540 l 1
 461 351 l 1
 593 540 l 1
 741 540 l 1
 564 296 l 1
 704 101 l 1
EndSplineSet
Validated: 3073
EndChar

StartChar: Zedesccyr
Encoding: 1176 1176 508
Width: 683
Flags: HMW
LayerCount: 2
Fore
SplineSet
55 507 m 1
 55 706 227 741 341 741 c 0
 516 741 617 659 617 517 c 0
 617 453 597 409 554 377 c 1
 616 343 643 293 643 213 c 0
 643 75 546 -11 380 -22 c 1
 429 -51 458 -93 458 -139 c 0
 458 -197 403 -234 314 -234 c 0
 286 -234 262 -231 235 -224 c 1
 235 -177 l 1
 253 -181 272 -183 292 -183 c 0
 345 -183 368 -167 368 -133 c 0
 368 -89 350 -61 290 -20 c 1
 138 -5 50 78 42 218 c 1
 188 218 l 1
 193 140 250 97 352 97 c 0
 443 97 499 134 499 195 c 0
 499 254 464 308 362 308 c 2
 260 308 l 1
 260 428 l 1
 336 428 l 2
 445 428 474 478 474 531 c 0
 474 586 425 621 348 621 c 0
 253 621 200 581 195 507 c 1
 55 507 l 1
EndSplineSet
Validated: 3073
Substitution2: "'c2sc' caps to small caps in Cyrillic-invariant-B" zedesccyr
EndChar

StartChar: zedesccyr
Encoding: 1177 1177 509
Width: 555
Flags: HMW
LayerCount: 2
Fore
SplineSet
523 160 m 0
 523 6 369 -17 330 -21 c 1
 380 -51 409 -93 409 -139 c 0
 409 -197 354 -234 265 -234 c 0
 237 -234 213 -231 186 -224 c 1
 186 -177 l 1
 204 -181 223 -183 243 -183 c 0
 296 -183 319 -167 319 -133 c 0
 319 -89 301 -62 243 -21 c 1
 107 -11 36 50 32 157 c 1
 169 157 l 1
 177 120 191 87 279 87 c 0
 344 87 383 107 383 140 c 0
 383 143 l 0
 383 166 381 208 301 208 c 2
 209 208 l 1
 209 318 l 1
 303 318 l 2
 363 318 368 352 368 376 c 0
 368 381 368 385 368 389 c 0
 368 419 336 439 287 439 c 0
 220 439 187 415 186 366 c 1
 51 366 l 1
 53 480 141 549 286 549 c 0
 423 549 508 480 508 369 c 0
 508 349 506 303 464 271 c 1
 504 246 523 213 523 160 c 0
EndSplineSet
Validated: 3073
EndChar

StartChar: Kadesccyr
Encoding: 1178 1178 510
Width: 759
Flags: MW
LayerCount: 2
Fore
SplineSet
612 108 m 1
 725 108 l 1
 725 -150 l 1
 595 -150 l 1
 595 0 l 1
 525 0 l 1
 232 285 l 1
 232 0 l 1
 82 0 l 1
 82 729 l 1
 232 729 l 1
 232 450 l 1
 517 729 l 1
 694 729 l 1
 328 378 l 1
 612 108 l 1
EndSplineSet
Validated: 3073
Substitution2: "'c2sc' caps to small caps in Cyrillic-invariant-B" kadesccyr
EndChar

StartChar: kadesccyr
Encoding: 1179 1179 511
Width: 573
Flags: MW
LayerCount: 2
Fore
SplineSet
463 101 m 1
 549 101 l 1
 549 -125 l 1
 439 -125 l 1
 439 0 l 1
 367 0 l 1
 200 198 l 1
 200 0 l 1
 60 0 l 1
 60 540 l 1
 200 540 l 1
 200 351 l 1
 362 540 l 1
 510 540 l 1
 296 296 l 1
 463 101 l 1
EndSplineSet
Validated: 1
EndChar

StartChar: Kavertstrokecyr
Encoding: 1180 1180 512
Width: 730
Flags: MW
LayerCount: 2
Fore
SplineSet
276 242 m 1
 232 285 l 1
 232 0 l 1
 82 0 l 1
 82 729 l 1
 232 729 l 1
 232 450 l 1
 276 493 l 1
 276 639 l 1
 355 639 l 1
 355 570 l 1
 517 729 l 1
 694 729 l 1
 355 404 l 1
 355 352 l 1
 725 0 l 1
 525 0 l 1
 355 165 l 1
 355 100 l 1
 276 100 l 1
 276 242 l 1
EndSplineSet
Validated: 3073
Substitution2: "'c2sc' caps to small caps in Cyrillic-invariant-B" kavertstrokecyr
EndChar

StartChar: kavertstrokecyr
Encoding: 1181 1181 513
Width: 554
Flags: MW
LayerCount: 2
Fore
SplineSet
236 155 m 1
 200 198 l 1
 200 0 l 1
 60 0 l 1
 60 540 l 1
 200 540 l 1
 200 351 l 1
 236 393 l 1
 236 519 l 1
 315 519 l 1
 315 485 l 1
 362 540 l 1
 510 540 l 1
 315 318 l 1
 315 274 l 1
 549 0 l 1
 367 0 l 1
 315 62 l 1
 315 35 l 1
 236 35 l 1
 236 155 l 1
EndSplineSet
Validated: 3073
EndChar

StartChar: Kastrokecyr
Encoding: 1182 1182 514
Width: 737
Flags: HMW
LayerCount: 2
Fore
SplineSet
232 666 m 1
 309 666 l 1
 309 587 l 1
 232 587 l 1
 232 450 l 1
 517 729 l 1
 694 729 l 1
 328 378 l 1
 732 0 l 1
 546 0 l 1
 232 285 l 1
 232 0 l 1
 82 0 l 1
 82 587 l 1
 10 587 l 1
 10 666 l 1
 82 666 l 1
 82 729 l 1
 232 729 l 1
 232 666 l 1
EndSplineSet
Validated: 3073
Substitution2: "'c2sc' caps to small caps in Cyrillic-invariant-B" kastrokecyr
EndChar

StartChar: kastrokecyr
Encoding: 1183 1183 515
Width: 555
Flags: HMW
LayerCount: 2
Fore
SplineSet
201 501 m 1
 255 501 l 1
 255 442 l 1
 201 442 l 1
 201 351 l 1
 363 540 l 1
 511 540 l 1
 297 296 l 1
 550 0 l 1
 368 0 l 1
 201 198 l 1
 201 0 l 1
 61 0 l 1
 61 442 l 1
 10 442 l 1
 10 501 l 1
 61 501 l 1
 61 540 l 1
 201 540 l 1
 201 501 l 1
EndSplineSet
Validated: 3073
EndChar

StartChar: Kabashkircyr
Encoding: 1184 1184 516
Width: 892
Flags: MW
LayerCount: 2
Fore
SplineSet
394 729 m 1
 394 450 l 1
 679 729 l 1
 856 729 l 1
 490 378 l 1
 887 0 l 1
 687 0 l 1
 394 285 l 1
 394 0 l 1
 244 0 l 1
 244 604 l 1
 14 604 l 1
 14 729 l 1
 394 729 l 1
EndSplineSet
Validated: 3073
Substitution2: "'c2sc' caps to small caps in Cyrillic-invariant-B" kabashkircyr
EndChar

StartChar: kabashkircyr
Encoding: 1185 1185 517
Width: 680
Flags: HMW
LayerCount: 2
Fore
SplineSet
326 540 m 1
 326 351 l 1
 488 540 l 1
 636 540 l 1
 422 296 l 1
 675 0 l 1
 493 0 l 1
 326 198 l 1
 326 0 l 1
 186 0 l 1
 186 427 l 1
 15 427 l 1
 15 540 l 1
 326 540 l 1
EndSplineSet
Validated: 3073
EndChar

StartChar: Endesccyr
Encoding: 1186 1186 518
Width: 825
Flags: MW
LayerCount: 2
Fore
SplineSet
671 108 m 1
 791 108 l 1
 791 -150 l 1
 656 -150 l 1
 656 0 l 1
 521 0 l 1
 521 331 l 1
 232 331 l 1
 232 0 l 1
 82 0 l 1
 82 729 l 1
 232 729 l 1
 232 456 l 1
 520 456 l 1
 520 729 l 1
 671 729 l 1
 671 108 l 1
EndSplineSet
Validated: 3073
Substitution2: "'c2sc' caps to small caps in Cyrillic-invariant-B" entailcyr
EndChar

StartChar: endesccyr
Encoding: 1187 1187 519
Width: 653
Flags: MW
LayerCount: 2
Fore
SplineSet
543 101 m 1
 629 101 l 1
 629 -125 l 1
 519 -125 l 1
 519 0 l 1
 403 0 l 1
 403 207 l 1
 200 207 l 1
 200 0 l 1
 60 0 l 1
 60 540 l 1
 200 540 l 1
 200 320 l 1
 403 320 l 1
 403 540 l 1
 543 540 l 1
 543 101 l 1
EndSplineSet
Validated: 3073
EndChar

StartChar: Enghecyr
Encoding: 1188 1188 520
Width: 999
Flags: HMW
LayerCount: 2
Fore
SplineSet
670 0 m 1
 521 0 l 1
 521 331 l 1
 232 331 l 1
 232 0 l 1
 82 0 l 1
 82 729 l 1
 232 729 l 1
 232 456 l 1
 520 456 l 1
 520 729 l 1
 982 729 l 1
 982 604 l 1
 670 604 l 1
 670 0 l 1
EndSplineSet
Validated: 3073
Substitution2: "'c2sc' caps to small caps in Cyrillic-invariant-B" enghecyr
EndChar

StartChar: enghecyr
Encoding: 1189 1189 521
Width: 763
Flags: MW
LayerCount: 2
Fore
SplineSet
543 0 m 1
 403 0 l 1
 403 207 l 1
 200 207 l 1
 200 0 l 1
 60 0 l 1
 60 540 l 1
 200 540 l 1
 200 320 l 1
 403 320 l 1
 403 540 l 1
 741 540 l 1
 741 427 l 1
 543 427 l 1
 543 0 l 1
EndSplineSet
Validated: 3073
EndChar

StartChar: Pemidhookcyr
Encoding: 1190 1190 522
Width: 1105
Flags: HMW
LayerCount: 2
Fore
SplineSet
670 0 m 1
 520 0 l 1
 520 604 l 1
 231 604 l 1
 231 0 l 1
 81 0 l 1
 81 729 l 1
 670 729 l 1
 670 504 l 1
 797 504 l 2
 945 504 1045 408 1045 282 c 2
 1045 50 l 2
 1045 -76 945 -172 797 -172 c 2
 760 -172 l 1
 760 -47 l 1
 785 -47 l 2
 843 -47 895 -10 895 56 c 2
 895 276 l 2
 895 342 843 379 785 379 c 2
 670 379 l 1
 670 0 l 1
EndSplineSet
Validated: 3073
Substitution2: "'c2sc' caps to small caps in Cyrillic-invariant-B" pemidhookcyr
EndChar

StartChar: pemidhookcyr
Encoding: 1191 1191 523
Width: 925
Flags: MW
LayerCount: 2
Fore
SplineSet
651 -68 m 1
 718 -68 737 -22 737 32 c 2
 737 111 l 2
 737 190 697 211 631 211 c 0
 568 211 543 168 543 125 c 2
 543 0 l 1
 403 0 l 1
 403 427 l 1
 200 427 l 1
 200 0 l 1
 60 0 l 1
 60 540 l 1
 543 540 l 1
 543 273 l 1
 571 318 612 330 681 330 c 0
 763 330 877 302 877 143 c 2
 877 0 l 2
 877 -150 777 -187 701 -187 c 2
 651 -187 l 1
 651 -68 l 1
EndSplineSet
Validated: 1
EndChar

StartChar: Esdesccyr
Encoding: 1194 1194 524
Width: 722
Flags: MW
LayerCount: 2
Fore
SplineSet
539 482 m 1
 531 519 508 613 383 613 c 0
 265 613 194 517 194 356 c 0
 194 197 262 103 378 103 c 0
 471 103 530 156 539 249 c 1
 685 249 l 1
 677 94 572 -8 412 -21 c 1
 461 -51 490 -93 490 -139 c 0
 490 -197 435 -234 346 -234 c 0
 318 -234 294 -231 267 -224 c 1
 267 -177 l 1
 285 -181 304 -183 324 -183 c 0
 377 -183 400 -167 400 -133 c 0
 400 -89 382 -61 321 -19 c 1
 149 4 44 145 44 358 c 0
 44 594 172 741 378 741 c 0
 548 741 669 646 682 482 c 1
 539 482 l 1
EndSplineSet
Validated: 1
Substitution2: "'c2sc' caps to small caps in Cyrillic-invariant-B" esdesccyr
EndChar

StartChar: esdesccyr
Encoding: 1195 1195 525
Width: 558
Flags: HMW
LayerCount: 2
Fore
SplineSet
290 436 m 0
 193 436 176 334 176 259 c 0
 176 154 219 90 290 90 c 0
 344 90 372 117 390 187 c 1
 524 187 l 1
 512 71 438 -6 328 -20 c 1
 379 -50 408 -92 408 -139 c 0
 408 -197 353 -234 264 -234 c 0
 236 -234 212 -231 185 -224 c 1
 185 -177 l 1
 203 -181 222 -183 242 -183 c 0
 295 -183 318 -167 318 -133 c 0
 318 -89 300 -61 239 -19 c 1
 110 1 36 101 36 259 c 0
 36 443 130 549 291 549 c 0
 426 549 514 470 524 338 c 1
 390 338 l 1
 374 409 347 436 290 436 c 0
EndSplineSet
Validated: 3073
EndChar

StartChar: Tedesccyr
Encoding: 1196 1196 526
Width: 614
Flags: HMW
LayerCount: 2
Fore
SplineSet
386 108 m 1
 506 108 l 1
 506 -150 l 1
 371 -150 l 1
 371 0 l 1
 236 0 l 1
 236 604 l 1
 15 604 l 1
 15 729 l 1
 599 729 l 1
 599 604 l 1
 386 604 l 1
 386 108 l 1
EndSplineSet
Validated: 3073
Substitution2: "'c2sc' caps to small caps in Cyrillic-invariant-B" tedesccyr
EndChar

StartChar: tedesccyr
Encoding: 1197 1197 527
Width: 438
Flags: HMW
LayerCount: 2
Fore
SplineSet
288 101 m 1
 374 101 l 1
 374 -125 l 1
 264 -125 l 1
 264 0 l 1
 148 0 l 1
 148 427 l 1
 13 427 l 1
 13 540 l 1
 423 540 l 1
 423 427 l 1
 288 427 l 1
 288 101 l 1
EndSplineSet
Validated: 3073
EndChar

StartChar: Ustraightcyr
Encoding: 1198 1198 528
Width: 643
Flags: HMW
LayerCount: 2
Fore
SplineSet
402 270 m 1
 402 0 l 1
 252 0 l 1
 252 270 l 1
 10 729 l 1
 177 729 l 1
 326 407 l 1
 465 729 l 1
 633 729 l 1
 402 270 l 1
EndSplineSet
Validated: 3073
Substitution2: "'c2sc' caps to small caps in Cyrillic-1" sc.y
EndChar

StartChar: ustraightcyr
Encoding: 1199 1199 529
Width: 573
Flags: HMW
LayerCount: 2
Fore
SplineSet
367 81 m 1
 367 -189 l 1
 217 -189 l 1
 217 81 l 1
 5 540 l 1
 172 540 l 1
 291 218 l 1
 400 540 l 1
 568 540 l 1
 367 81 l 1
EndSplineSet
Validated: 3073
Substitution2: "'smcp' lowercase to small caps in Cyrillic-1" sc.y
EndChar

StartChar: Ustraightstrokecyr
Encoding: 1200 1200 530
Width: 643
Flags: HMW
LayerCount: 2
Fore
SplineSet
252 145 m 1
 52 145 l 1
 52 269 l 1
 252 269 l 1
 10 729 l 1
 177 729 l 1
 326 407 l 1
 465 729 l 1
 633 729 l 1
 402 269 l 1
 602 269 l 1
 602 145 l 1
 402 145 l 1
 402 0 l 1
 252 0 l 1
 252 145 l 1
EndSplineSet
Validated: 3073
Substitution2: "'c2sc' caps to small caps in Cyrillic-1" sc.uk_precherknuty
EndChar

StartChar: ustraightstrokecyr
Encoding: 1201 1201 531
Width: 603
Flags: HMW
LayerCount: 2
Fore
SplineSet
382 -12 m 1
 382 -189 l 1
 232 -189 l 1
 232 -12 l 1
 32 -12 l 1
 32 81 l 1
 232 81 l 1
 20 540 l 1
 187 540 l 1
 306 218 l 1
 415 540 l 1
 583 540 l 1
 382 81 l 1
 582 81 l 1
 582 -12 l 1
 382 -12 l 1
EndSplineSet
Validated: 3073
Substitution2: "'smcp' lowercase to small caps in Cyrillic-1" sc.uk_precherknuty
EndChar

StartChar: Hadesccyr
Encoding: 1202 1202 532
Width: 670
Flags: HMW
LayerCount: 2
Fore
SplineSet
568 108 m 1
 636 108 l 1
 636 -150 l 1
 506 -150 l 1
 506 0 l 1
 458 0 l 1
 318 253 l 1
 179 0 l 1
 5 0 l 1
 235 367 l 1
 13 729 l 1
 191 729 l 1
 319 489 l 1
 453 729 l 1
 627 729 l 1
 402 372 l 1
 568 108 l 1
EndSplineSet
Validated: 3073
Substitution2: "'c2sc' caps to small caps in Cyrillic-invariant-B" hadesccyr
EndChar

StartChar: hadesccyr
Encoding: 1203 1203 533
Width: 548
Flags: HMW
LayerCount: 2
Fore
SplineSet
457 101 m 1
 524 101 l 1
 524 -125 l 1
 414 -125 l 1
 414 0 l 1
 356 0 l 1
 265 168 l 1
 173 0 l 1
 5 0 l 1
 185 272 l 1
 9 540 l 1
 177 540 l 1
 265 377 l 1
 352 540 l 1
 520 540 l 1
 344 272 l 1
 457 101 l 1
EndSplineSet
Validated: 3073
EndChar

StartChar: Tetsecyr
Encoding: 1204 1204 534
Width: 952
Flags: HMW
LayerCount: 2
Fore
SplineSet
206 604 m 1
 15 604 l 1
 15 729 l 1
 539 729 l 1
 539 604 l 1
 356 604 l 1
 356 125 l 1
 645 125 l 1
 645 729 l 1
 795 729 l 1
 795 108 l 1
 905 108 l 1
 905 -150 l 1
 775 -150 l 1
 775 0 l 1
 206 0 l 1
 206 604 l 1
EndSplineSet
Validated: 3073
Substitution2: "'c2sc' caps to small caps in Cyrillic-invariant-B" tetsecyr
EndChar

StartChar: tetsecyr
Encoding: 1205 1205 535
Width: 738
Flags: MW
LayerCount: 2
Fore
SplineSet
136 427 m 1
 21 427 l 1
 21 540 l 1
 391 540 l 1
 391 427 l 1
 276 427 l 1
 276 113 l 1
 479 113 l 1
 479 540 l 1
 619 540 l 1
 619 101 l 1
 715 101 l 1
 715 -125 l 1
 605 -125 l 1
 605 0 l 1
 136 0 l 1
 136 427 l 1
EndSplineSet
Validated: 1
EndChar

StartChar: Chedesccyr
Encoding: 1206 1206 536
Width: 781
Flags: MW
LayerCount: 2
Fore
SplineSet
604 0 m 1
 474 0 l 1
 474 225 l 1
 316 225 l 2
 168 225 68 321 68 447 c 2
 68 729 l 1
 218 729 l 1
 218 453 l 2
 218 387 270 350 328 350 c 2
 473 350 l 1
 473 729 l 1
 624 729 l 1
 624 108 l 1
 734 108 l 1
 734 -150 l 1
 604 -150 l 1
 604 0 l 1
EndSplineSet
Validated: 1
Substitution2: "'c2sc' caps to small caps in Cyrillic-invariant-B" chedesccyr
EndChar

StartChar: chedesccyr
Encoding: 1207 1207 537
Width: 615
Flags: HMW
LayerCount: 2
Fore
SplineSet
482 0 m 1
 366 0 l 1
 366 163 l 1
 268 163 l 2
 158 163 48 212 48 345 c 2
 48 540 l 1
 188 540 l 1
 188 346 l 2
 188 298 220 276 266 276 c 2
 366 276 l 1
 366 540 l 1
 506 540 l 1
 506 101 l 1
 592 101 l 1
 592 -125 l 1
 482 -125 l 1
 482 0 l 1
EndSplineSet
Validated: 3073
EndChar

StartChar: Chevertstrokecyr
Encoding: 1208 1208 538
Width: 698
Flags: HMW
LayerCount: 2
Fore
SplineSet
300 352 m 1
 300 439 l 1
 379 439 l 1
 379 350 l 1
 465 350 l 1
 465 729 l 1
 616 729 l 1
 616 0 l 1
 466 0 l 1
 466 225 l 1
 379 225 l 1
 379 140 l 1
 300 140 l 1
 300 225 l 1
 160 225 60 323 60 447 c 2
 60 729 l 1
 210 729 l 1
 210 453 l 2
 210 395 251 359 300 352 c 1
EndSplineSet
Validated: 3073
Substitution2: "'c2sc' caps to small caps in Cyrillic-invariant-B" chevertstrokecyr
EndChar

StartChar: chevertstrokecyr
Encoding: 1209 1209 539
Width: 588
Flags: MW
LayerCount: 2
Fore
SplineSet
248 164 m 1
 150 173 60 225 60 345 c 2
 60 540 l 1
 200 540 l 1
 200 346 l 2
 200 309 219 288 248 280 c 1
 248 379 l 1
 327 379 l 1
 327 276 l 1
 378 276 l 1
 378 540 l 1
 518 540 l 1
 518 0 l 1
 378 0 l 1
 378 163 l 1
 327 163 l 1
 327 80 l 1
 248 80 l 1
 248 164 l 1
EndSplineSet
Validated: 3073
EndChar

StartChar: Shhacyr
Encoding: 1210 1210 540
Width: 687
Flags: HMW
LayerCount: 2
Fore
SplineSet
220 504 m 1
 378 504 l 2
 526 504 626 408 626 282 c 2
 626 0 l 1
 476 0 l 1
 476 276 l 2
 476 342 424 379 366 379 c 2
 221 379 l 1
 221 0 l 1
 70 0 l 1
 70 729 l 1
 220 729 l 1
 220 504 l 1
EndSplineSet
Validated: 3073
Substitution2: "'c2sc' caps to small caps in Cyrillic-invariant-B" shhacyr
EndChar

StartChar: shhacyr
Encoding: 1211 1211 541
Width: 588
Flags: HMW
LayerCount: 2
Fore
SplineSet
528 0 m 1
 388 0 l 1
 388 194 l 2
 388 242 356 264 310 264 c 2
 210 264 l 1
 210 0 l 1
 70 0 l 1
 70 540 l 1
 210 540 l 1
 210 377 l 1
 308 377 l 2
 418 377 528 328 528 195 c 2
 528 0 l 1
EndSplineSet
Validated: 3073
EndChar

StartChar: Cheabkhazcyr
Encoding: 1212 1212 542
Width: 993
Flags: HMW
LayerCount: 2
Fore
SplineSet
479 469 m 1
 811 469 l 1
 802 562 743 615 650 615 c 0
 563 615 503 562 479 469 c 1
954 236 m 1
 941 72 815 -23 650 -23 c 0
 444 -23 316 123 316 363 c 1
 106 363 42 412 42 571 c 0
 42 680 108 745 205 745 c 0
 286 745 354 705 354 618 c 1
 244 618 l 1
 244 639 230 656 204 656 c 0
 164 656 162 628 162 571 c 0
 162 508 188 469 232 469 c 2
 326 469 l 1
 360 639 477 741 646 741 c 0
 827 741 957 620 957 363 c 1
 466 363 l 1
 466 197 536 105 655 105 c 0
 780 105 802 199 811 236 c 1
 954 236 l 1
EndSplineSet
Validated: 3073
Substitution2: "'c2sc' caps to small caps in Cyrillic-invariant-B" cheabkhazcyr
EndChar

StartChar: cheabkhazcyr
Encoding: 1213 1213 543
Width: 761
Flags: HMW
LayerCount: 2
Fore
SplineSet
390 356 m 1
 586 356 l 1
 570 414 543 436 491 436 c 0
 412 436 396 375 390 356 c 1
154 474 m 0
 135.75 474 118 464 118 413 c 0
 118 371 147 356 175 356 c 2
 247 356 l 1
 275 480 362 549 492 549 c 0
 627 549 715 470 725 338 c 2
 725 260 l 1
 377 260 l 1
 377 151 419 90 491 90 c 0
 545 90 573 117 591 187 c 1
 725 187 l 1
 712 58 621 -23 490 -23 c 0
 329.7 -23 237 81.3867 237 260 c 1
 87 260 32 300 32 423 c 0
 32 497 90 549 154 549 c 0
 208 549 268 510 268 445 c 1
 184 445 l 1
 184 462.5 171.75 474 154 474 c 0
EndSplineSet
Validated: 3073
EndChar

StartChar: Chedescabkhazcyr
Encoding: 1214 1214 544
Width: 993
Flags: MW
LayerCount: 2
Fore
SplineSet
479 469 m 1
 811 469 l 1
 802 562 743 615 650 615 c 0
 563 615 503 562 479 469 c 1
691 -197 m 1
 599 -197 l 1
 599 -20 l 1
 423 2 316 143 316 363 c 1
 106 363 42 412 42 571 c 0
 42 680 108 745 205 745 c 0
 286 745 354 705 354 618 c 1
 244 618 l 1
 244 639 230 656 204 656 c 0
 164 656 162 628 162 571 c 0
 162 508 188 469 232 469 c 2
 326 469 l 1
 360 639 477 741 646 741 c 0
 827 741 957 620 957 363 c 1
 466 363 l 1
 466 197 536 105 655 105 c 0
 780 105 802 199 811 236 c 1
 954 236 l 1
 942 86 836 -6 691 -21 c 1
 691 -197 l 1
EndSplineSet
Validated: 3073
Substitution2: "'c2sc' caps to small caps in Cyrillic-invariant-B" chedescabkhazcyr
EndChar

StartChar: chedescabkhazcyr
Encoding: 1215 1215 545
Width: 761
Flags: MW
LayerCount: 2
Fore
SplineSet
154 474 m 0
 136 474 118 464 118 413 c 0
 118 371 147 356 175 356 c 2
 247 356 l 1
 275 480 362 549 492 549 c 0
 627 549 715 470 725 338 c 1
 725 260 l 1
 377 260 l 1
 377 151 419 90 491 90 c 0
 545 90 573 117 591 187 c 1
 725 187 l 1
 714 75 643 -1 539 -19 c 1
 539 -197 l 1
 447 -197 l 1
 447 -20 l 1
 313 -3 237 98 237 260 c 1
 87 260 32 300 32 423 c 0
 32 497 90 549 154 549 c 0
 208 549 268 510 268 445 c 1
 184 445 l 1
 184 463 172 474 154 474 c 0
390 356 m 1
 586 356 l 1
 570 414 543 436 491 436 c 0
 412 436 396 375 390 356 c 1
EndSplineSet
Validated: 3073
EndChar

StartChar: Palochkacyr
Encoding: 1216 1216 546
Width: 314
Flags: HMW
LayerCount: 2
Fore
SplineSet
232 729 m 1
 232 0 l 1
 82 0 l 1
 82 729 l 1
 232 729 l 1
EndSplineSet
Validated: 3073
Substitution2: "'c2sc' caps to small caps in Cyrillic-invariant-B" sc.i
EndChar

StartChar: Kahookcyr
Encoding: 1219 1219 549
Width: 697
Flags: HMW
LayerCount: 2
Fore
SplineSet
382 378 m 2
 530 378 630 282 630 156 c 2
 630 50 l 2
 630 -76 530 -172 382 -172 c 2
 345 -172 l 1
 345 -47 l 1
 370 -47 l 2
 428 -47 480 -10 480 56 c 2
 480 150 l 2
 480 216 428 253 370 253 c 2
 230 253 l 1
 230 0 l 1
 80 0 l 1
 80 729 l 1
 230 729 l 1
 230 450 l 1
 515 729 l 1
 692 729 l 1
 326 378 l 1
 382 378 l 2
EndSplineSet
Validated: 3073
Substitution2: "'c2sc' caps to small caps in Cyrillic-invariant-B" kahookcyr
EndChar

StartChar: kahookcyr
Encoding: 1220 1220 550
Width: 543
Flags: HMW
LayerCount: 2
Fore
SplineSet
315 297 m 2
 422 297 491 232 491 110 c 2
 491 -1 l 2
 491 -123 422 -188 315 -188 c 2
 265 -188 l 1
 265 -69 l 1
 319 -69 351 -44.8 351 1 c 2
 351 78 l 2
 351 149 319 178 265 178 c 2
 200 178 l 1
 200 0 l 1
 60 0 l 1
 60 540 l 1
 200 540 l 1
 200 351 l 1
 362 540 l 1
 510 540 l 1
 296 296 l 1
 315 297 l 2
EndSplineSet
Validated: 3073
EndChar

StartChar: Enhookcyr
Encoding: 1223 1223 551
Width: 753
Flags: HMW
LayerCount: 2
Fore
SplineSet
521 56 m 2
 521 331 l 1
 232 331 l 1
 232 0 l 1
 82 0 l 1
 82 729 l 1
 232 729 l 1
 232 456 l 1
 520 456 l 1
 520 729 l 1
 671 729 l 1
 671 50 l 2
 671 -76 571 -172 423 -172 c 2
 386 -172 l 1
 386 -47 l 1
 411 -47 l 2
 469 -47 521 -10 521 56 c 2
EndSplineSet
Validated: 3073
Substitution2: "'c2sc' caps to small caps in Cyrillic-invariant-B" enhookcyr
EndChar

StartChar: enhookcyr
Encoding: 1224 1224 552
Width: 603
Flags: MW
LayerCount: 2
Fore
SplineSet
403 32 m 2
 403 207 l 1
 200 207 l 1
 200 0 l 1
 60 0 l 1
 60 540 l 1
 200 540 l 1
 200 320 l 1
 403 320 l 1
 403 540 l 1
 543 540 l 1
 543 0 l 2
 543 -122 474 -187 367 -187 c 2
 317 -187 l 1
 317 -68 l 1
 371 -68 403 -39 403 32 c 2
EndSplineSet
Validated: 3073
EndChar

StartChar: Chekhakasscyr
Encoding: 1227 1227 553
Width: 706
Flags: MW
LayerCount: 2
Fore
SplineSet
494 0 m 1
 494 -150 l 1
 364 -150 l 1
 364 108 l 1
 474 108 l 1
 474 225 l 1
 316 225 l 2
 168 225 68 321 68 447 c 2
 68 729 l 1
 218 729 l 1
 218 453 l 2
 218 387 270 350 328 350 c 2
 473 350 l 1
 473 729 l 1
 624 729 l 1
 624 0 l 1
 494 0 l 1
EndSplineSet
Validated: 3073
Substitution2: "'c2sc' caps to small caps in Cyrillic-invariant-B" chekhakasscyr
EndChar

StartChar: chekhakasscyr
Encoding: 1228 1228 554
Width: 588
Flags: MW
LayerCount: 2
Fore
SplineSet
402 0 m 1
 402 -125 l 1
 292 -125 l 1
 292 101 l 1
 378 101 l 1
 378 163 l 1
 280 163 l 2
 170 163 60 212 60 345 c 2
 60 540 l 1
 200 540 l 1
 200 346 l 2
 200 298 232 276 278 276 c 2
 378 276 l 1
 378 540 l 1
 518 540 l 1
 518 0 l 1
 402 0 l 1
EndSplineSet
Validated: 3073
EndChar

StartChar: A_iecyr
Encoding: 1236 1236 559
Width: 1004
Flags: HMW
LayerCount: 2
Fore
SplineSet
434 152 m 1
 211 152 l 1
 158 0 l 1
 5 0 l 1
 268 729 l 1
 950 729 l 1
 950 604 l 1
 584 604 l 1
 584 439 l 1
 923 439 l 1
 923 314 l 1
 584 314 l 1
 584 125 l 1
 970 125 l 1
 970 0 l 1
 434 0 l 1
 434 152 l 1
434 277 m 1
 434 604 l 1
 367 604 l 1
 253 277 l 1
 434 277 l 1
EndSplineSet
Validated: 3073
Substitution2: "'c2sc' caps to small caps in Cyrillic-1" sc.ae
EndChar

StartChar: Schwacyr
Encoding: 1240 1240 563
Width: 722
Flags: HMW
AnchorPoint: "cyr-above" 359 728 basechar 0
LayerCount: 2
Fore
SplineSet
522 249 m 1
 190 249 l 1
 199 156 258 103 351 103 c 0
 438 103 498 156 522 249 c 1
47 482 m 1
 60 646 186 741 351 741 c 0
 557 741 685 594 685 358 c 0
 685 124 558 -23 355 -23 c 0
 174 -23 44 98 44 355 c 1
 535 355 l 1
 535 518 464.266 613 346 613 c 0
 221 613 199 519 190 482 c 1
 47 482 l 1
EndSplineSet
Validated: 3073
Substitution2: "'c2sc' caps to small caps in Cyrillic-invariant-B" schwacyr
EndChar

StartChar: hiriqhebrew
Encoding: 1460 1460 597
Width: 0
Flags: HMW
AnchorPoint: "heb-vowel-low" 340 0 mark 0
AnchorPoint: "vowel_below_yiddish" 341 0 mark 0
LayerCount: 2
Fore
SplineSet
299 -60 m 1
 381 -60 l 1
 381 -142 l 1
 299 -142 l 1
 299 -60 l 1
EndSplineSet
Validated: 3073
EndChar

StartChar: patahhebrew
Encoding: 1463 1463 600
Width: 0
Flags: HMW
AnchorPoint: "heb-vowel-low" 297 -0.166667 mark 0
AnchorPoint: "vowel_below_yiddish" 298 -0.333333 mark 0
LayerCount: 2
Fore
SplineSet
198 -60 m 1
 398 -60 l 1
 398 -142 l 1
 198 -142 l 1
 198 -60 l 1
EndSplineSet
Validated: 3073
EndChar

StartChar: qamatshebrew
Encoding: 1464 1464 601
Width: 0
Flags: HMW
AnchorPoint: "heb-vowel-low" 310 0 mark 0
AnchorPoint: "vowel_below_yiddish" 311 0 mark 0
LayerCount: 2
Fore
SplineSet
349 -142 m 1
 349 -206 l 1
 267 -206 l 1
 267 -142 l 1
 208 -142 l 1
 208 -60 l 1
 408 -60 l 1
 408 -142 l 1
 349 -142 l 1
EndSplineSet
Validated: 3073
EndChar

StartChar: holamhebrew
Encoding: 1465 1465 602
Width: 0
Flags: HMW
AnchorPoint: "heb-vowel-left" 160 600 mark 0
LayerCount: 2
Fore
SplineSet
120 742 m 1
 202 742 l 1
 202 660 l 1
 120 660 l 1
 120 742 l 1
EndSplineSet
Validated: 3073
EndChar

StartChar: dageshhebrew
Encoding: 1468 1468 604
Width: 0
Flags: HMW
AnchorPoint: "heb-dagesh" 300 300 mark 0
LayerCount: 2
Fore
SplineSet
258 341 m 1
 340 341 l 1
 340 259 l 1
 258 259 l 1
 258 341 l 1
EndSplineSet
Validated: 3073
EndChar

StartChar: siluqhebrew
Encoding: 1469 1469 605
Width: 0
Flags: HMW
LayerCount: 2
Fore
SplineSet
300 -60 m 1
 300 -248 l 1
 218 -248 l 1
 218 -60 l 1
 300 -60 l 1
EndSplineSet
Validated: 3073
EndChar

StartChar: maqafhebrew
Encoding: 1470 1470 606
Width: 516
Flags: HMW
AnchorPoint: "heb-point-abv" 260 600 basechar 0
LayerCount: 2
Fore
SplineSet
63 485 m 1
 63 600 l 1
 444 600 l 1
 444 485 l 1
 63 485 l 1
EndSplineSet
Validated: 3073
EndChar

StartChar: paseqhebrew
Encoding: 1472 1472 608
Width: 297
Flags: MW
LayerCount: 2
Fore
SplineSet
79 -100 m 1
 79 700 l 1
 218 700 l 1
 218 -100 l 1
 79 -100 l 1
EndSplineSet
Validated: 1
EndChar

StartChar: shindothebrew
Encoding: 1473 1473 609
Width: 0
Flags: MW
LayerCount: 2
Fore
SplineSet
650 721 m 1
 732 721 l 1
 732 639 l 1
 650 639 l 1
 650 721 l 1
EndSplineSet
Validated: 3073
EndChar

StartChar: alefhebrew
Encoding: 1488 1488 613
Width: 714
Flags: HMW
AnchorPoint: "heb-dagesh" 340 -50 basechar 0
AnchorPoint: "heb-vowel-left" 147 600 basechar 0
AnchorPoint: "heb-point-abv" 370 600 basechar 0
AnchorPoint: "heb-vowel-low" 350 0 basechar 0
LayerCount: 2
Fore
SplineSet
621 433 m 2
 621 348 538 240 498 212 c 1
 650 0 l 1
 487 0 l 1
 286 285 l 1
 247 237 228 192 228 148 c 2
 228 0 l 1
 89 0 l 1
 89 158 l 2
 89 207 132 331 212 388 c 1
 61 600 l 1
 222 600 l 1
 425 315 l 1
 463 362 482 408 482 444 c 2
 482 600 l 1
 621 600 l 1
 621 433 l 2
EndSplineSet
Validated: 3073
EndChar

StartChar: bethebrew
Encoding: 1489 1489 614
Width: 651
Flags: MW
AnchorPoint: "heb-dagesh" 222 306 basechar 0
AnchorPoint: "heb-vowel-left" 120 600 basechar 0
AnchorPoint: "heb-point-abv" 300 600 basechar 0
AnchorPoint: "heb-vowel-low" 310 0 basechar 0
LayerCount: 2
Fore
SplineSet
259 600 m 2
 324 593 487 579 519 374 c 2
 519 115 l 1
 610 115 l 1
 610 0 l 1
 77 0 l 1
 77 115 l 1
 380 115 l 1
 380 365 l 2
 355 476 316 472 247 485 c 2
 77 485 l 1
 77 600 l 1
 259 600 l 2
EndSplineSet
Validated: 3073
EndChar

StartChar: gimelhebrew
Encoding: 1490 1490 615
Width: 557
Flags: MW
AnchorPoint: "heb-dagesh" 114 306 basechar 0
AnchorPoint: "heb-vowel-left" 135 600 basechar 0
AnchorPoint: "heb-point-abv" 270 600 basechar 0
AnchorPoint: "heb-vowel-low" 276 0 basechar 0
LayerCount: 2
Fore
SplineSet
347 138 m 1
 220 0 l 1
 47 0 l 1
 224 194 l 1
 341 194 l 1
 322 361 l 2
 298 456 294 465 188 485 c 2
 115 485 l 1
 115 600 l 1
 200 600 l 2
 437 573 446 434 460 378 c 2
 503 0 l 1
 363 0 l 1
 347 138 l 1
EndSplineSet
Validated: 3073
EndChar

StartChar: dalethebrew
Encoding: 1491 1491 616
Width: 638
Flags: MW
AnchorPoint: "heb-dagesh" 222 306 basechar 0
AnchorPoint: "heb-vowel-left" 108 600 basechar 0
AnchorPoint: "heb-point-abv" 310 600 basechar 0
AnchorPoint: "heb-vowel-low" 214 0 basechar 0
LayerCount: 2
Fore
SplineSet
344 485 m 1
 63 485 l 1
 63 600 l 1
 566 600 l 1
 566 485 l 1
 483 485 l 1
 483 0 l 1
 344 0 l 1
 344 485 l 1
EndSplineSet
Validated: 3073
EndChar

StartChar: hehebrew
Encoding: 1492 1492 617
Width: 682
Flags: HMW
AnchorPoint: "heb-dagesh" 337 306 basechar 0
AnchorPoint: "heb-vowel-left" 140 600 basechar 0
AnchorPoint: "heb-point-abv" 340 600 basechar 0
AnchorPoint: "heb-vowel-low" 341 0 basechar 0
LayerCount: 2
Fore
SplineSet
473 365 m 2
 448 476 409 472 340 485 c 2
 79 485 l 1
 79 600 l 1
 352 600 l 2
 419 593 580 579 612 374 c 1
 612 0 l 1
 473 0 l 1
 473 365 l 2
79 0 m 1
 79 349 l 1
 218 349 l 1
 218 0 l 1
 79 0 l 1
EndSplineSet
Validated: 3073
EndChar

StartChar: vavhebrew
Encoding: 1493 1493 618
Width: 297
Flags: MW
AnchorPoint: "heb-dagesh" 20 306 basechar 0
AnchorPoint: "heb-vowel-left" 84 600 basechar 0
AnchorPoint: "heb-point-abv" 157 600 basechar 0
AnchorPoint: "heb-vowel-low" 22 0 basechar 0
LayerCount: 2
Fore
SplineSet
79 0 m 1
 79 600 l 1
 218 600 l 1
 218 0 l 1
 79 0 l 1
EndSplineSet
Validated: 3073
EndChar

StartChar: zayinhebrew
Encoding: 1494 1494 619
Width: 443
Flags: MW
AnchorPoint: "heb-dagesh" 91 306 basechar 0
AnchorPoint: "heb-vowel-left" 109 600 basechar 0
AnchorPoint: "heb-point-abv" 220 600 basechar 0
AnchorPoint: "heb-vowel-low" 90 0 basechar 0
LayerCount: 2
Fore
SplineSet
149 485 m 1
 63 485 l 1
 63 600 l 1
 371 600 l 1
 371 485 l 1
 288 485 l 1
 288 0 l 1
 149 0 l 1
 149 485 l 1
EndSplineSet
Validated: 3073
EndChar

StartChar: hethebrew
Encoding: 1495 1495 620
Width: 682
Flags: MW
AnchorPoint: "heb-dagesh" 343 306 basechar 0
AnchorPoint: "heb-vowel-left" 142 600 basechar 0
AnchorPoint: "heb-point-abv" 340 600 basechar 0
AnchorPoint: "heb-vowel-low" 345 0 basechar 0
LayerCount: 2
Fore
SplineSet
473 365 m 2
 448 476 409 472 340 485 c 2
 218 485 l 1
 218 0 l 1
 79 0 l 1
 79 600 l 1
 352 600 l 2
 408 597 579 582 612 374 c 2
 612 0 l 1
 473 0 l 1
 473 365 l 2
EndSplineSet
Validated: 3073
EndChar

StartChar: tethebrew
Encoding: 1496 1496 621
Width: 670
Flags: HMW
AnchorPoint: "heb-dagesh" 349 306 basechar 0
AnchorPoint: "heb-vowel-left" 143 600 basechar 0
AnchorPoint: "heb-point-abv" 360 600 basechar 0
AnchorPoint: "heb-vowel-low" 336 0 basechar 0
LayerCount: 2
Fore
SplineSet
340 485 m 0
 313 485 294 473 294 473 c 1
 294 595 l 1
 307 597 311 600 345 600 c 0
 461.917 600 609 515.754 609 374 c 2
 609 226 l 1
 609 84 459 0 342 0 c 0
 225.4 0 76 82.743 76 226 c 2
 76 600 l 1
 215 600 l 1
 215 235 l 1
 215 204 246 115 342 115 c 0
 441 115 470 207 470 235 c 2
 470 365 l 1
 470 387 457.968 485 340 485 c 0
EndSplineSet
Validated: 3073
EndChar

StartChar: yodhebrew
Encoding: 1497 1497 622
Width: 284
Flags: HMW
AnchorPoint: "heb-vowel-left" 76 600 basechar 0
AnchorPoint: "heb-point-abv" 145 600 basechar 0
AnchorPoint: "heb-vowel-low" 146 0 basechar 0
AnchorPoint: "vowel_below_yiddish" 141 221 basechar 0
LayerCount: 2
Fore
SplineSet
212 333 m 1
 73 276 l 1
 73 600 l 1
 212 600 l 1
 212 333 l 1
EndSplineSet
Validated: 3073
EndChar

StartChar: finalkafhebrew
Encoding: 1498 1498 623
Width: 590
Flags: HMW
AnchorPoint: "heb-dagesh" 246 306 basechar 0
AnchorPoint: "heb-vowel-left" 121 600 basechar 0
AnchorPoint: "heb-point-abv" 270 600 basechar 0
AnchorPoint: "heb-vowel-low" 250 0 basechar 0
LayerCount: 2
Fore
SplineSet
381 365 m 2
 381 426 318 485 248 485 c 2
 62 485 l 1
 62 600 l 1
 259 600 l 2
 465 600 520 447 520 374 c 2
 520 -200 l 1
 381 -200 l 1
 381 365 l 2
EndSplineSet
Validated: 3073
EndChar

StartChar: kafhebrew
Encoding: 1499 1499 624
Width: 595
Flags: HMW
AnchorPoint: "heb-dagesh" 252 306 basechar 0
AnchorPoint: "heb-vowel-left" 133 600 basechar 0
AnchorPoint: "heb-point-abv" 280 600 basechar 0
AnchorPoint: "heb-vowel-low" 286 0 basechar 0
LayerCount: 2
Fore
SplineSet
395 365 m 2
 395 417 339 485 262 485 c 2
 76 485 l 1
 76 600 l 1
 273 600 l 2
 483 600 534 438 534 374 c 2
 534 226 l 2
 534 156 474 1.7572e-05 273 0 c 2
 76 0 l 1
 76 115 l 1
 262 115 l 2
 336 115 395 183 395 235 c 2
 395 365 l 2
EndSplineSet
Validated: 3073
EndChar

StartChar: lamedhebrew
Encoding: 1500 1500 625
Width: 667
Flags: HMW
AnchorPoint: "heb-dagesh" 210 306 basechar 0
AnchorPoint: "heb-vowel-left" -5 600 basechar 0
AnchorPoint: "heb-point-abv" 350 600 basechar 0
AnchorPoint: "heb-vowel-low" 204 0 basechar 0
LayerCount: 2
Fore
SplineSet
410 101 m 2
 410 0 l 1
 271 0 l 1
 271 107 l 2
 271 342.158 456 242.525 456 419 c 2
 456 485 l 1
 62 485 l 1
 62 750 l 1
 201 750 l 1
 201 600 l 1
 595 600 l 1
 595 412 l 2
 595 165 410 273 410 101 c 2
EndSplineSet
Validated: 3073
EndChar

StartChar: finalmemhebrew
Encoding: 1501 1501 626
Width: 683
Flags: MW
AnchorPoint: "heb-dagesh" 349 306 basechar 0
AnchorPoint: "heb-vowel-left" 153 600 basechar 0
AnchorPoint: "heb-point-abv" 350 600 basechar 0
AnchorPoint: "heb-vowel-low" 355 0 basechar 0
LayerCount: 2
Fore
SplineSet
346 600 m 2
 565 600 613 419 613 369 c 2
 613 0 l 1
 80 0 l 1
 80 600 l 1
 346 600 l 2
474 369 m 2
 469 467 374 484 346 485 c 2
 219 485 l 1
 219 115 l 1
 474 115 l 1
 474 369 l 2
EndSplineSet
Validated: 3073
EndChar

StartChar: memhebrew
Encoding: 1502 1502 627
Width: 704
Flags: MW
AnchorPoint: "heb-dagesh" 377 306 basechar 0
AnchorPoint: "heb-vowel-left" 142 600 basechar 0
AnchorPoint: "heb-point-abv" 360 600 basechar 0
AnchorPoint: "heb-vowel-low" 350 0 basechar 0
LayerCount: 2
Fore
SplineSet
494 369 m 2
 494 434 442 485 367 485 c 2
 298 485 l 1
 226 0 l 1
 86 0 l 1
 158 485 l 1
 67 485 l 1
 67 600 l 1
 367 600 l 2
 514 600 633 504 633 369 c 2
 633 0 l 1
 363 0 l 1
 363 115 l 1
 494 115 l 1
 494 369 l 2
EndSplineSet
Validated: 3073
EndChar

StartChar: finalnunhebrew
Encoding: 1503 1503 628
Width: 297
Flags: HMW
AnchorPoint: "heb-vowel-low" 0 0 basechar 0
AnchorPoint: "heb-dagesh" 1 306 basechar 0
AnchorPoint: "heb-point-abv" 148 600 basechar 0
LayerCount: 2
Fore
SplineSet
79 -200 m 1
 79 600 l 1
 218 600 l 1
 218 -200 l 1
 79 -200 l 1
EndSplineSet
Validated: 3073
EndChar

StartChar: nunhebrew
Encoding: 1504 1504 629
Width: 429
Flags: MW
AnchorPoint: "heb-dagesh" 121 306 basechar 0
AnchorPoint: "heb-vowel-left" 137 600 basechar 0
AnchorPoint: "heb-point-abv" 250 600 basechar 0
AnchorPoint: "heb-vowel-low" 221 0 basechar 0
LayerCount: 2
Fore
SplineSet
220 365 m 2
 210 410 195 485 84 485 c 1
 84 600 l 1
 148 600 348 567 359 374 c 2
 359 0 l 1
 73 0 l 1
 73 115 l 1
 220 115 l 1
 220 365 l 2
EndSplineSet
Validated: 3073
EndChar

StartChar: samekhhebrew
Encoding: 1505 1505 630
Width: 670
Flags: HMW
AnchorPoint: "heb-dagesh" 344 306 basechar 0
AnchorPoint: "heb-vowel-left" 154 600 basechar 0
AnchorPoint: "heb-point-abv" 370 600 basechar 0
AnchorPoint: "heb-vowel-low" 345 0 basechar 0
LayerCount: 2
Fore
SplineSet
76 226 m 2
 76 600 l 1
 348 600 l 2
 468 600 609 537 609 374 c 2
 609 226 l 1
 609 72 480 0 346 0 c 0
 248.588 0 76 57 76 226 c 2
470 365 m 2
 470 423 405 485 337 485 c 2
 215 485 l 1
 215 235 l 1
 215 210 228.831 118.233 342 115 c 0
 454 118 470 204 470 235 c 2
 470 365 l 2
EndSplineSet
Validated: 3073
EndChar

StartChar: ayinhebrew
Encoding: 1506 1506 631
Width: 653
Flags: HMW
AnchorPoint: "heb-dagesh" 378 306 basechar 0
AnchorPoint: "heb-vowel-left" 170 600 basechar 0
AnchorPoint: "heb-point-abv" 355 600 basechar 0
AnchorPoint: "heb-vowel-low" 340 0 basechar 0
LayerCount: 2
Fore
SplineSet
346 136 m 1
 424 167 440 213 440 262 c 2
 440 600 l 1
 579 600 l 1
 579 252 l 2
 579 196.777 540.119 60.2693 377 21 c 2
 60 -55 l 1
 60 65 l 1
 212 101 l 1
 99 600 l 1
 241 600 l 1
 346 136 l 1
EndSplineSet
Validated: 3073
EndChar

StartChar: finalpehebrew
Encoding: 1507 1507 632
Width: 661
Flags: HMW
AnchorPoint: "heb-dagesh" 320 170 basechar 0
AnchorPoint: "heb-vowel-left" 143 600 basechar 0
AnchorPoint: "heb-point-abv" 310 600 basechar 0
AnchorPoint: "heb-vowel-low" 308 0 basechar 0
LayerCount: 2
Fore
SplineSet
211 407 m 2
 211 358 221 356 266 356 c 2
 319 356 l 1
 319 241 l 1
 254 241 l 2
 191 241 72 244.126 72 398 c 2
 72 601 l 1
 328 601 l 2
 493.824 597.144 590 490.94 590 373 c 2
 590 -200 l 1
 451 -200 l 1
 451 367 l 2
 439.794 448.241 438.343 486 211 486 c 1
 211 407 l 2
EndSplineSet
Validated: 3073
EndChar

StartChar: pehebrew
Encoding: 1508 1508 633
Width: 660
Flags: HMW
AnchorPoint: "heb-dagesh" 330 420 basechar 0
AnchorPoint: "heb-vowel-left" 144 600 basechar 0
AnchorPoint: "heb-point-abv" 320 600 basechar 0
AnchorPoint: "heb-vowel-low" 318 0 basechar 0
LayerCount: 2
Fore
SplineSet
218 406 m 2
 218 358 229 355 273 355 c 2
 326 355 l 1
 326 240 l 1
 261 240 l 2
 201 240 79 255 79 397 c 2
 79 600 l 1
 335 600 l 2
 540 600 597 477 597 372 c 2
 597 228 l 2
 597 30 405.329 0 335 0 c 2
 79 0 l 1
 79 115 l 1
 327 115 l 2
 393 115 458 135 458 234 c 2
 458 366 l 2
 458 468 418.886 485 218 485 c 1
 218 406 l 2
EndSplineSet
Validated: 3073
EndChar

StartChar: finaltsadihebrew
Encoding: 1509 1509 634
Width: 616
Flags: HMW
AnchorPoint: "heb-vowel-low" 90 0 basechar 0
AnchorPoint: "heb-dagesh" 91 306 basechar 0
AnchorPoint: "heb-vowel-left" 110 600 basechar 0
AnchorPoint: "heb-point-abv" 317 600 basechar 0
LayerCount: 2
Fore
SplineSet
544 433 m 2
 523 316 450 262 367 249 c 1
 367 -200 l 1
 228 -200 l 1
 228 286 l 1
 27 600 l 1
 185 600 l 1
 337 362 l 1
 385 366 399 408 405 444 c 2
 405 600 l 1
 544 600 l 1
 544 433 l 2
EndSplineSet
Validated: 3073
EndChar

StartChar: tsadihebrew
Encoding: 1510 1510 635
Width: 671
Flags: HMW
AnchorPoint: "heb-dagesh" 137 306 basechar 0
AnchorPoint: "heb-vowel-left" 147 600 basechar 0
AnchorPoint: "heb-point-abv" 340 600 basechar 0
AnchorPoint: "heb-vowel-low" 330 0 basechar 0
LayerCount: 2
Fore
SplineSet
579 433 m 2
 579 381 542 290 440 258 c 1
 606 0 l 1
 86 0 l 1
 86 115 l 1
 374 115 l 1
 61 600 l 1
 219 600 l 1
 373 362 l 1
 417 366 440 411 440 444 c 2
 440 600 l 1
 579 600 l 1
 579 433 l 2
EndSplineSet
Validated: 3073
EndChar

StartChar: qofhebrew
Encoding: 1511 1511 636
Width: 672
Flags: HMW
AnchorPoint: "heb-dagesh" 342 306 basechar 0
AnchorPoint: "heb-vowel-left" 141 600 basechar 0
AnchorPoint: "heb-point-abv" 340 600 basechar 0
AnchorPoint: "heb-vowel-low" 366 0 basechar 0
LayerCount: 2
Fore
SplineSet
460 285 m 1
 460 485 l 1
 80 485 l 1
 80 600 l 1
 599 600 l 1
 599 276 l 1
 580.306 140.045 484.607 53.4002 335 49 c 1
 335 165 l 1
 406 165 444.987 218.628 460 285 c 1
219 371 m 1
 219 -200 l 1
 80 -200 l 1
 80 371 l 1
 219 371 l 1
EndSplineSet
Validated: 3073
EndChar

StartChar: reshhebrew
Encoding: 1512 1512 637
Width: 600
Flags: HMW
AnchorPoint: "heb-dagesh" 232 306 basechar 0
AnchorPoint: "heb-vowel-left" 118 600 basechar 0
AnchorPoint: "heb-point-abv" 280 600 basechar 0
AnchorPoint: "heb-vowel-low" 220 0 basechar 0
LayerCount: 2
Fore
SplineSet
391 365 m 2
 391 435 327 485 258 485 c 2
 63 485 l 1
 63 600 l 1
 270 600 l 2
 462 600 530 495 530 374 c 1
 530 0 l 1
 391 0 l 1
 391 365 l 2
EndSplineSet
Validated: 3073
EndChar

StartChar: shinhebrew
Encoding: 1513 1513 638
Width: 840
Flags: HMW
AnchorPoint: "heb-dagesh" 551 306 basechar 0
AnchorPoint: "heb-vowel-left" 139 600 basechar 0
AnchorPoint: "heb-point-abv" 420 600 basechar 0
AnchorPoint: "heb-vowel-low" 419 0 basechar 0
LayerCount: 2
Fore
SplineSet
766 260 m 2
 766 154 654 0 461 0 c 2
 382 0 l 2
 212.87 0 76 127.85 76 265 c 2
 76 600 l 1
 215 600 l 1
 215 323 l 1
 283 323 l 2
 324 323 351 349 351 387 c 2
 351 600 l 1
 490 600 l 1
 490 387 l 2
 490 236 336 208 294 208 c 2
 294 208 251.333 208 230 208 c 1
 263.483 152.194 321.2 115 382 115 c 2
 461 115 l 2
 529 115 627 176 627 265 c 2
 627 600 l 1
 766 600 l 1
 766 260 l 2
EndSplineSet
Validated: 3073
EndChar

StartChar: tavhebrew
Encoding: 1514 1514 639
Width: 756
Flags: HMW
AnchorPoint: "heb-dagesh" 443 306 basechar 0
AnchorPoint: "heb-vowel-left" 190 600 basechar 0
AnchorPoint: "heb-point-abv" 410 600 basechar 0
AnchorPoint: "heb-vowel-low" 379 0 basechar 0
LayerCount: 2
Fore
SplineSet
546 366 m 2
 546 435 486 485 413 485 c 2
 328 485 l 1
 328 229 l 2
 328 12.2859 183.832 0 87 0 c 0
 76 0 62 5 62 5 c 1
 62 121 l 1
 79 116.5 70 115 102 115 c 1
 184 115 189 201 189 233 c 1
 189 485 l 1
 123 485 l 1
 123 600 l 1
 425 600 l 2
 591 600 685 513 685 374 c 2
 685 0 l 1
 546 0 l 1
 546 366 l 2
EndSplineSet
Validated: 3073
EndChar

StartChar: gereshhebrew
Encoding: 1523 1523 643
Width: 238
Flags: MW
LayerCount: 2
Fore
SplineSet
188 729 m 1
 188 599 l 1
 146 470 l 1
 90 470 l 1
 50 599 l 1
 50 729 l 1
 188 729 l 1
EndSplineSet
Validated: 1
EndChar

StartChar: psili
Encoding: 8127 8127 821
Width: 150
Flags: HMW
LayerCount: 2
Fore
SplineSet
10 753 m 1
 140 753 l 1
 140 679 l 2
 140 644 129 576 8 563 c 1
 8 610 l 1
 70.5 622 74 658 74 673 c 1
 10 673 l 1
 10 753 l 1
EndSplineSet
Validated: 3073
EndChar

StartChar: dialytikavaria
Encoding: 8173 8173 863
Width: 333
Flags: HMW
LayerCount: 2
Fore
SplineSet
82 780 m 1
 196 780 l 1
 218 600 l 1
 148 600 l 1
 82 780 l 1
88 698 m 1
 88 600 l 1
 -0 600 l 1
 -0 698 l 1
 88 698 l 1
332 698 m 1
 332 600 l 1
 244 600 l 1
 244 698 l 1
 332 698 l 1
EndSplineSet
Validated: 3073
EndChar

StartChar: varia
Encoding: 8175 8175 865
Width: 210
Flags: HMW
LayerCount: 2
Fore
SplineSet
2 745 m 1
 128 745 l 1
 202 579 l 1
 132 579 l 1
 2 745 l 1
EndSplineSet
Validated: 3073
EndChar

StartChar: oxia
Encoding: 8189 8189 876
Width: 210
Flags: HMW
LayerCount: 2
Fore
SplineSet
205 744 m 1
 75 578 l 1
 5 578 l 1
 79 744 l 1
 205 744 l 1
EndSplineSet
Validated: 3073
EndChar

StartChar: dasia
Encoding: 8190 8190 877
Width: 278
Flags: HMW
LayerCount: 2
Fore
SplineSet
211 753 m 1
 211 673 l 1
 150 673 l 1
 150 658 152 614 213 610 c 1
 213 563 l 1
 102 566 81 632 81 679 c 2
 81 753 l 1
 211 753 l 1
EndSplineSet
Validated: 3073
EndChar

StartChar: circumflex
Encoding: 710 710 897
Width: 333
Flags: MW
LayerCount: 2
Fore
SplineSet
116 757 m 1
 223 757 l 1
 326 607 l 1
 248 607 l 1
 166 707 l 1
 84 607 l 1
 8 607 l 1
 116 757 l 1
EndSplineSet
Validated: 1
EndChar

StartChar: caron
Encoding: 711 711 898
Width: 333
Flags: MW
LayerCount: 2
Fore
SplineSet
219 607 m 1
 112 607 l 1
 9 757 l 1
 87 757 l 1
 169 660 l 1
 251 757 l 1
 327 757 l 1
 219 607 l 1
EndSplineSet
Validated: 1
EndChar

StartChar: breve
Encoding: 728 728 899
Width: 333
Flags: HMW
LayerCount: 2
Fore
SplineSet
299 748 m 1
 299 737 l 2
 299 662 242 605 167 605 c 0
 92 605 35 662 35 738 c 2
 35 748 l 1
 91 748 l 1
 97 704 122 682 168 682 c 0
 212 682 235 702 243 748 c 1
 299 748 l 1
EndSplineSet
Validated: 3073
EndChar

StartChar: dotaccent
Encoding: 729 729 900
Width: 333
Flags: HMW
LayerCount: 2
Fore
SplineSet
222 743 m 1
 222 621 l 1
 112 621 l 1
 112 743 l 1
 222 743 l 1
EndSplineSet
Validated: 3073
EndChar

StartChar: ring
Encoding: 730 730 901
Width: 333
Flags: HMW
LayerCount: 2
Fore
SplineSet
167 786 m 0
 226 786 273 739 273 680 c 0
 273 622 225 576 167 576 c 0
 109 576 61 623 61 681 c 0
 61 737 109 786 167 786 c 0
168 722 m 0
 144 722 125 703 125 680 c 0
 125 657 144 638 168 638 c 0
 190 638 209 657 209 680 c 0
 209 703 191 722 168 722 c 0
EndSplineSet
Validated: 3073
EndChar

StartChar: ogonek
Encoding: 731 731 902
Width: 333
Flags: HMW
LayerCount: 2
Fore
SplineSet
169 0 m 1
 244 0 l 1
 159 -53 135 -82 135 -133 c 0
 135 -167 158 -183 211 -183 c 0
 231 -183 250 -181 268 -177 c 1
 268 -224 l 1
 241 -231 217 -234 189 -234 c 0
 100 -234 45 -197 45 -139 c 0
 45 -80 92 -28 169 0 c 1
EndSplineSet
Validated: 3073
EndChar

StartChar: tilde
Encoding: 732 732 903
Width: 333
Flags: HMW
LayerCount: 2
Fore
SplineSet
262 749 m 1
 325 749 l 1
 321 664 289 622 230 622 c 0
 183.5 622 150.471 656 99 656 c 0
 83.5 656 70 650 63 621 c 1
 0 621 l 1
 4 699 33 745 88 745 c 0
 133.247 745 170.974 711 224 711 c 0
 240 711 251.5 716.5 262 749 c 1
EndSplineSet
Validated: 3073
EndChar

StartChar: hungarumlaut
Encoding: 733 733 904
Width: 333
Flags: HMW
LayerCount: 2
Fore
SplineSet
152 757 m 1
 26 610 l 1
 -44 610 l 1
 26 757 l 1
 152 757 l 1
340 757 m 1
 214 610 l 1
 144 610 l 1
 214 757 l 1
 340 757 l 1
EndSplineSet
Validated: 3073
EndChar

StartChar: gravedbl.cmb
Encoding: 783 783 915
Width: 0
Flags: MW
AnchorPoint: "cyr-above" -125 550 mark 0
AnchorPoint: "above" -127 580 mark 0
LayerCount: 2
Fore
SplineSet
-189 757 m 1
 -63 757 l 1
 7 610 l 1
 -63 610 l 1
 -189 757 l 1
-377 757 m 1
 -251 757 l 1
 -181 610 l 1
 -251 610 l 1
 -377 757 l 1
EndSplineSet
Validated: 3073
EndChar

StartChar: uni0374
Encoding: 884 884 918
Width: 379
Flags: MW
LayerCount: 2
Fore
SplineSet
329 789 m 1
 120 603 l 1
 56 603 l 1
 147 789 l 1
 329 789 l 1
EndSplineSet
Validated: 1
EndChar

StartChar: uni0375
Encoding: 885 885 919
Width: 379
Flags: MW
LayerCount: 2
Fore
SplineSet
58 -186 m 1
 267 0 l 1
 331 0 l 1
 240 -186 l 1
 58 -186 l 1
EndSplineSet
Validated: 1
EndChar

StartChar: ypogegrammeni
Encoding: 890 890 920
Width: 333
Flags: HMW
LayerCount: 2
Fore
SplineSet
221 -111 m 2
 221 -146 227.333 -163 252 -163 c 0
 281 -163 283 -151 287 -139 c 1
 316 -139 l 1
 316 -199 288 -200 218 -200 c 0
 155 -200 130 -181 130 -91 c 2
 130 -47 l 1
 221 -47 l 1
 221 -111 l 2
EndSplineSet
Validated: 3073
EndChar

StartChar: dieresistonos
Encoding: 901 901 923
Width: 333
Flags: HMW
LayerCount: 2
Fore
SplineSet
254 780 m 1
 188 600 l 1
 118 600 l 1
 140 780 l 1
 254 780 l 1
87.5996 697.8 m 1
 87.5996 600.2 l 1
 -0.400391 600.2 l 1
 -0.400391 697.8 l 1
 87.5996 697.8 l 1
332.4 697.8 m 1
 332.4 600.2 l 1
 244.4 600.2 l 1
 244.4 697.8 l 1
 332.4 697.8 l 1
EndSplineSet
Validated: 3073
EndChar

StartChar: anoteleia
Encoding: 903 903 925
Width: 333
Flags: HMW
LayerCount: 2
Fore
SplineSet
263 520 m 1
 263 374 l 1
 113 374 l 1
 113 520 l 1
 263 520 l 1
EndSplineSet
Validated: 3073
EndChar

StartChar: Gamma
Encoding: 915 915 934
Width: 634
Flags: HMW
AnchorPoint: "above" 351 730 basechar 0
LayerCount: 2
Fore
SplineSet
614 595 m 1
 226 595 l 1
 226 0 l 1
 80 0 l 1
 80 729 l 1
 614 729 l 1
 614 595 l 1
EndSplineSet
Validated: 3073
Substitution2: "'c2sc' caps to small caps in Greek-1" sc.gamma
EndChar

StartChar: Delta
Encoding: 916 916 935
Width: 744
Flags: HMW
AnchorPoint: "above" 371 730 basechar 0
LayerCount: 2
Fore
SplineSet
10 0 m 1
 291 729 l 1
 436 729 l 1
 734 0 l 1
 10 0 l 1
527 125 m 1
 365 549 l 1
 213 125 l 1
 527 125 l 1
EndSplineSet
Validated: 3073
Substitution2: "'c2sc' caps to small caps in Greek-1" sc.delta
EndChar

StartChar: Theta
Encoding: 920 920 939
Width: 796
Flags: HMW
AnchorPoint: "above" 401 730 basechar 0
LayerCount: 2
Fore
SplineSet
398 726 m 0
 613 726 756 585 756 364 c 0
 756 141 598 3 398 3 c 0
 260 3 40 74 40 356 c 0
 40 585 187 726 398 726 c 0
183 355 m 0
 183 217 264 124 396 124 c 0
 488 124 612 172 612 364 c 0
 612 557 484 606 398 606 c 0
 247 606 183 498 183 355 c 0
584 314 m 1
 208 314 l 1
 208 436 l 1
 584 436 l 1
 584 314 l 1
EndSplineSet
Validated: 3073
Substitution2: "'c2sc' caps to small caps in Greek-1" sc.theta
EndChar

StartChar: Lambda
Encoding: 923 923 942
Width: 713
Flags: HMW
AnchorPoint: "above" 351 730 basechar 0
LayerCount: 2
Fore
SplineSet
349 539 m 1
 154 0 l 1
 10 0 l 1
 285 729 l 1
 411 729 l 1
 703 0 l 1
 554 0 l 1
 349 539 l 1
EndSplineSet
Validated: 3073
Substitution2: "'c2sc' caps to small caps in Greek-1" sc.lambda
EndChar

StartChar: Xi
Encoding: 926 926 945
Width: 684
Flags: HMW
AnchorPoint: "above" 341 730 basechar 0
LayerCount: 2
Fore
SplineSet
618 602 m 1
 50 602 l 1
 50 729 l 1
 618 729 l 1
 618 602 l 1
562 310 m 1
 112 310 l 1
 112 437 l 1
 562 437 l 1
 562 310 l 1
634 0 m 1
 50 0 l 1
 50 127 l 1
 634 127 l 1
 634 0 l 1
EndSplineSet
Validated: 3073
Substitution2: "'c2sc' caps to small caps in Greek-1" sc.xi
EndChar

StartChar: Pi
Encoding: 928 928 947
Width: 770
Flags: HMW
AnchorPoint: "above" 391 730 basechar 0
LayerCount: 2
Fore
SplineSet
690 1 m 1
 546 1 l 1
 546 596 l 1
 224 596 l 1
 224 1 l 1
 80 1 l 1
 80 724 l 1
 690 724 l 1
 690 1 l 1
EndSplineSet
Validated: 3073
Substitution2: "'c2sc' caps to small caps in Greek-1" sc.pi
EndChar

StartChar: Sigma
Encoding: 931 931 949
Width: 676
Flags: HMW
AnchorPoint: "above" 351 730 basechar 0
LayerCount: 2
Fore
SplineSet
440 390 m 1
 217 128 l 1
 646 128 l 1
 646 0 l 1
 30 0 l 1
 30 117 l 1
 259 390 l 1
 64 616 l 1
 64 729 l 1
 626 729 l 1
 626 601 l 1
 258 601 l 1
 259 600 440 390 440 390 c 1
EndSplineSet
Validated: 3073
Substitution2: "'c2sc' caps to small caps in Greek-1" sc.sigma
EndChar

StartChar: Tau
Encoding: 932 932 950
Width: 658
Flags: HMW
AnchorPoint: "above" 341 730 basechar 0
LayerCount: 2
Fore
SplineSet
638 604 m 1
 400 604 l 1
 400 1 l 1
 256 1 l 1
 256 604 l 1
 20 604 l 1
 20 732 l 1
 638 732 l 1
 638 604 l 1
EndSplineSet
Validated: 3073
Substitution2: "'c2sc' caps to small caps in Greek-1" sc.t
EndChar

StartChar: Upsilon
Encoding: 933 933 951
Width: 761
Flags: HMW
AnchorPoint: "above" 391 730 basechar 0
AnchorPoint: "above_gk" 385.5 716 basechar 0
LayerCount: 2
Fore
SplineSet
381 434 m 1
 584 729 l 1
 756 729 l 1
 447 307 l 1
 447 0 l 1
 303 0 l 1
 303 307 l 1
 5 729 l 1
 180 729 l 1
 381 434 l 1
EndSplineSet
Validated: 3073
Substitution2: "'c2sc' caps to small caps in Greek-1" sc.upsilon
Substitution2: "'locl' local. forms in Greek-1" Upsilonhook
EndChar

StartChar: Phi
Encoding: 934 934 952
Width: 789
Flags: HMW
AnchorPoint: "above" 391 730 basechar 0
LayerCount: 2
Fore
SplineSet
40 348 m 0
 40 596 269 640 329 644 c 1
 329 723 l 1
 460 723 l 1
 460 644 l 1
 631.005 633.177 749 507.254 749 348 c 0
 749 103 521 62 461 58 c 1
 461 -13 l 1
 328 -13 l 1
 328 58 l 1
 158.899 68.5684 40 185.707 40 348 c 0
608 353 m 0
 608 446 543 505 461 523 c 1
 461 175 l 1
 547 194 608 257 608 353 c 0
328 175 m 1
 328 523 l 1
 245 505 181 447 181 353 c 0
 181 246 254 191 328 175 c 1
EndSplineSet
Validated: 3073
Substitution2: "'c2sc' caps to small caps in Greek-1" sc.phi
EndChar

StartChar: Psi
Encoding: 936 936 954
Width: 832
Flags: HMW
AnchorPoint: "above" 421 730 basechar 0
LayerCount: 2
Fore
SplineSet
762 369 m 2
 762 167.841 631 132 488 132 c 1
 488 -10 l 1
 344 -10 l 1
 344 132 l 1
 208 132 70 150 70 369 c 2
 70 732 l 1
 210 728 l 1
 210 381 l 2
 210 301 232 260 348 260 c 1
 348 729 l 1
 484 729 l 1
 484 260 l 1
 573 260 622 279 622 381 c 2
 622 728 l 1
 762 732 l 1
 762 369 l 2
EndSplineSet
Validated: 3073
Substitution2: "'c2sc' caps to small caps in Greek-1" sc.psi
EndChar

StartChar: Omega
Encoding: 937 937 955
Width: 799
Flags: HMW
AnchorPoint: "above" 391 730 basechar 0
AnchorPoint: "above_gk" 395.5 716 basechar 0
AnchorPoint: "below_gk" 395 -24 basechar 0
LayerCount: 2
Fore
SplineSet
616 381 m 0
 616 517 532 627 394 627 c 0
 267 627 183 518 183 378 c 0
 183 235 263 157 357 118 c 1
 357 0 l 1
 40 0 l 1
 40 122 l 1
 163 122 l 1
 92 181 45 264 45 379 c 0
 45 572 177 749 392 749 c 0
 621 749 759 585 759 383 c 0
 759 263 711 179 637 122 c 1
 757 122 l 1
 757 0 l 1
 429 0 l 1
 429 117 l 1
 581 178 616 282 616 381 c 0
EndSplineSet
Validated: 3073
Substitution2: "'c2sc' caps to small caps in Greek-1" sc.omega
EndChar

StartChar: alpha
Encoding: 945 945 963
Width: 632
Flags: HMW
AnchorPoint: "above" 296 550 basechar 0
AnchorPoint: "below_gk" 295 -24 basechar 0
AnchorPoint: "above_gk" 291 578 basechar 0
LayerCount: 2
Fore
SplineSet
409 267 m 0
 409 336 386 424 291 424 c 0
 200 424 171 354 171 263 c 0
 171 174 199 106 289 106 c 0
 369 106 409 160 409 267 c 0
40 267 m 0
 40 487 184 542 291 542 c 0
 360 540 400 525 438 492 c 1
 438 533 l 1
 561 533 l 1
 561 108 l 1
 595 130 l 1
 632 16 l 1
 586 -5 549 -15 520 -15 c 0
 485 -15 450 7 437 27 c 1
 397 0 349 -14 291 -14 c 0
 112 -14 40 92 40 267 c 0
EndSplineSet
Validated: 3073
Substitution2: "'smcp' lowercase to small caps in Greek-1" sc.a
EndChar

StartChar: beta
Encoding: 946 946 964
Width: 600
Flags: HMW
AnchorPoint: "above" 291 730 basechar 0
LayerCount: 2
Fore
SplineSet
60 473 m 2
 60 610 103 721 283 721 c 0
 425 721 506 645 506 524 c 0
 502 441 463 403 441 386 c 1
 514 357 560 297 560 204 c 0
 560 75 470 -18 331 -18 c 0
 272 -18 228 -7 195 15 c 1
 195 -190 l 1
 60 -190 l 1
 60 473 l 2
296 608 m 0
 213 608 195 566 195 472 c 2
 196 155 l 1
 209 121 243 97 313 97 c 0
 360 97 421 119 421 206 c 0
 421 263 394 309 285 309 c 2
 211 309 l 1
 211 424 l 1
 277 424 l 2
 369 424 385 486 385 526 c 0
 385 576 348 608 296 608 c 0
EndSplineSet
Validated: 3073
Substitution2: "'smcp' lowercase to small caps in Greek-1" sc.b
Substitution2: "'subs' subscript-phonetic" betasub
Substitution2: "'sups' superscript-phonetic" betasup
EndChar

StartChar: gamma
Encoding: 947 947 965
Width: 573
Flags: HMW
AnchorPoint: "above" 306 550 basechar 0
LayerCount: 2
Fore
SplineSet
563 536 m 1
 367 42 l 1
 367 -199 l 1
 232 -199 l 1
 232 41 l 1
 90 373 l 2
 82 397 71 427 66 427 c 0
 61 427 45 422 19 411 c 1
 10 511 l 2
 10 540 64 548 76 548 c 0
 147 548 173 526 204 446 c 2
 298 212 l 1
 424 536 l 1
 563 536 l 1
EndSplineSet
Validated: 3073
Substitution2: "'smcp' lowercase to small caps in Greek-1" sc.gamma
Substitution2: "'subs' subscript-phonetic" gammasub
Substitution2: "'sups' superscript-phonetic" gammasup
EndChar

StartChar: delta
Encoding: 948 948 966
Width: 622
Flags: HMW
AnchorPoint: "above" 311 730 basechar 0
LayerCount: 2
Fore
SplineSet
303 120 m 0
 423 120 444 208 444 269 c 0
 444 325 424 414 309 414 c 0
 232 414 180 350 180 268 c 0
 180 169 221 120 303 120 c 0
40 260 m 0
 40 467 188 510 235 519 c 1
 76 624 l 1
 76 727 l 1
 524 727 l 1
 524 613 l 1
 307 613 l 1
 420 537 l 2
 469 504 582 439 582 268 c 0
 582 51 457 -3 303 -3 c 0
 204 -3 40 36 40 260 c 0
EndSplineSet
Validated: 3073
Substitution2: "'smcp' lowercase to small caps in Greek-1" sc.delta
Substitution2: "'sups' superscript-phonetic" deltasup
EndChar

StartChar: epsilon
Encoding: 949 949 967
Width: 571
Flags: HMW
AnchorPoint: "above" 286 550 basechar 0
AnchorPoint: "below_gk" 275 -24 basechar 0
AnchorPoint: "above_gk" 282 572 basechar 0
LayerCount: 2
Fore
SplineSet
531 174 m 1
 516 79 481 -10 279 -10 c 0
 120 -10 40 44 40 151 c 0
 40 213 65 243 105 268 c 1
 63 294 40 328 40 386 c 0
 40 507 137 545 279 547 c 2
 288 547 l 2
 482 547 517 454 531 362 c 1
 404 362 l 1
 399 398 378 434 276 434 c 0
 208 434 172 416 172 380 c 0
 172 331 210 319 275 319 c 2
 346 319 l 1
 346 217 l 1
 275 217 l 2
 209 217 172 206 172 156 c 0
 172 121 208 103 276 103 c 0
 378 103 399 139 404 174 c 1
 531 174 l 1
EndSplineSet
Validated: 3073
Substitution2: "'smcp' lowercase to small caps in Greek-1" sc.e
EndChar

StartChar: zeta
Encoding: 950 950 968
Width: 512
Flags: HMW
AnchorPoint: "above" 271 730 basechar 0
LayerCount: 2
Fore
SplineSet
182 239 m 0
 182 18 492 193 492 -33 c 0
 492 -74 476 -133 443 -214 c 1
 319 -169 l 1
 348 -109 362 -72 362 -55 c 0
 362 -24 356 -21 321 -21 c 0
 262.512 -21 40 13.5303 40 223 c 0
 40 380 115 521 229 616 c 1
 56 616 l 1
 56 736 l 1
 462 736 l 1
 462 638 l 1
 330 564 182 423 182 239 c 0
EndSplineSet
Validated: 3073
Substitution2: "'smcp' lowercase to small caps in Greek-1" sc.z
EndChar

StartChar: eta
Encoding: 951 951 969
Width: 598
Flags: HMW
AnchorPoint: "above" 306 550 basechar 0
AnchorPoint: "below_gk" 135 -24 basechar 0
AnchorPoint: "above_gk" 303 568 basechar 0
LayerCount: 2
Fore
SplineSet
33 414 m 1
 10 528 l 1
 46 541 76 548 100 548 c 0
 155 548 179 505 186 488 c 1
 214 529 283 547 335 547 c 0
 487 547 538 468 538 319 c 2
 538 -200 l 1
 400 -163 l 1
 400 315 l 2
 400 380 389 424 317 424 c 0
 242 424 204 378 204 284 c 2
 204 -16 l 1
 66 -16 l 1
 66 410 l 2
 66 416.728 61.1709 418.829 55.0332 418.829 c 0
 47.4873 418.829 37.9629 415.654 33 414 c 1
EndSplineSet
Validated: 3073
Substitution2: "'smcp' lowercase to small caps in Greek-1" sc.h
EndChar

StartChar: theta
Encoding: 952 952 970
Width: 595
Flags: HMW
AnchorPoint: "above" 299 730 basechar 0
AnchorPoint: "below" 298 0 basechar 0
LayerCount: 2
Fore
SplineSet
298 729 m 0
 407 729 555 673 555 357 c 0
 555 137 503 -16 298 -16 c 0
 143 -16 40 68 40 357 c 0
 40 673 188 729 298 729 c 0
415 420 m 1
 409.833 562.089 368.2 614 298 614 c 0
 204 614 184 509 181 420 c 1
 415 420 l 1
181 305 m 1
 186 149 228 101 298 101 c 0
 399 101 411 204 415 305 c 1
 181 305 l 1
EndSplineSet
Validated: 3073
Substitution2: "'smcp' lowercase to small caps in Greek-1" sc.theta
Substitution2: "'sups' superscript-phonetic" thetasup
EndChar

StartChar: endash
Encoding: 8211 8211 971
Width: 500
Flags: HMW
LayerCount: 2
Fore
SplineSet
474 342 m 1
 474 206 l 1
 26 206 l 1
 26 342 l 1
 474 342 l 1
EndSplineSet
Validated: 3073
EndChar

StartChar: emdash
Encoding: 8212 8212 972
Width: 1000
Flags: HMW
LayerCount: 2
Fore
SplineSet
974 342 m 1
 974 207 l 1
 26 207 l 1
 26 342 l 1
 974 342 l 1
EndSplineSet
Validated: 3073
EndChar

StartChar: dagger
Encoding: 8224 8224 979
Width: 556
Flags: MW
LayerCount: 2
Fore
SplineSet
523 485 m 1
 523 369 l 1
 344 369 l 1
 344 -194 l 1
 210 -194 l 1
 210 369 l 1
 31 369 l 1
 31 485 l 1
 210 485 l 1
 210 709 l 1
 344 709 l 1
 344 485 l 1
 523 485 l 1
EndSplineSet
Validated: 1
EndChar

StartChar: daggerdbl
Encoding: 8225 8225 980
Width: 556
Flags: MW
LayerCount: 2
Fore
SplineSet
520 485 m 1
 520 369 l 1
 341 369 l 1
 341 146 l 1
 520 146 l 1
 520 30 l 1
 341 30 l 1
 341 -194 l 1
 207 -194 l 1
 207 30 l 1
 28 30 l 1
 28 146 l 1
 207 146 l 1
 207 369 l 1
 28 369 l 1
 28 485 l 1
 207 485 l 1
 207 709 l 1
 341 709 l 1
 341 485 l 1
 520 485 l 1
EndSplineSet
Validated: 1
EndChar

StartChar: bullet
Encoding: 8226 8226 981
Width: 400
Flags: HMW
LayerCount: 2
Fore
SplineSet
200 435 m 0
 300.8 435 380 354.359 380 252.119 c 0
 380 155.641 297.92 75 200 75 c 0
 100.641 75 20 155.641 20 255 c 0
 20 354.359 100.641 435 200 435 c 0
EndSplineSet
Validated: 3073
EndChar

StartChar: perthousand
Encoding: 8240 8240 983
Width: 1000
Flags: MW
LayerCount: 2
Fore
SplineSet
160 739 m 0
 244 739 310 673 310 589 c 0
 310 510 242 443 161 443 c 0
 78 443 11 510 11 591 c 0
 11 672 78 739 160 739 c 0
160 659 m 0
 122 659 90 628 90 590 c 0
 90 551 122 520 160 520 c 0
 199 520 231 551 231 589 c 0
 231 628 200 659 160 659 c 0
496 738 m 1
 563 738 l 1
 142 -21 l 1
 76 -21 l 1
 496 738 l 1
471 274 m 0
 555 274 621 208 621 124 c 0
 621 44 553 -22 472 -22 c 0
 389 -22 322 44 322 126 c 0
 322 207 389 274 471 274 c 0
471 194 m 0
 433 194 401 163 401 125 c 0
 401 86 433 55 472 55 c 0
 510 55 542 86 542 124 c 0
 542 163 511 194 471 194 c 0
840 274 m 0
 924 274 990 208 990 124 c 0
 990 44 922 -22 841 -22 c 0
 758 -22 691 44 691 126 c 0
 691 207 758 274 840 274 c 0
840 194 m 0
 802 194 770 163 770 125 c 0
 770 86 802 55 841 55 c 0
 879 55 911 86 911 124 c 0
 911 163 880 194 840 194 c 0
EndSplineSet
Validated: 1
EndChar

StartChar: guilsinglleft
Encoding: 8249 8249 984
Width: 333
Flags: MW
LayerCount: 2
Fore
SplineSet
83 218 m 1
 83 332 l 1
 250 481 l 1
 250 364 l 1
 149 275 l 1
 250 186 l 1
 250 72 l 1
 83 218 l 1
EndSplineSet
Validated: 1
EndChar

StartChar: guilsinglright
Encoding: 8250 8250 985
Width: 333
Flags: MW
LayerCount: 2
Fore
SplineSet
247 335 m 1
 247 220 l 1
 80 72 l 1
 80 189 l 1
 181 278 l 1
 80 367 l 1
 80 481 l 1
 247 335 l 1
EndSplineSet
Validated: 1
EndChar

StartChar: fraction
Encoding: 8260 8260 986
Width: 167
Flags: MW
LayerCount: 2
Fore
SplineSet
250 715 m 1
 337 715 l 1
 -86 -20 l 1
 -173 -20 l 1
 250 715 l 1
EndSplineSet
Validated: 1
EndChar

StartChar: foursuperior
Encoding: 8308 8308 987
Width: 351
Flags: HMW
LayerCount: 2
Fore
SplineSet
334 543 m 1
 334 468 l 1
 288 468 l 1
 288 375 l 1
 193 375 l 1
 193 468 l 1
 14 468 l 1
 14 542 l 1
 179 800 l 1
 288 800 l 1
 288 543 l 1
 334 543 l 1
193 543 m 1
 193 707 l 1
 87 543 l 1
 193 543 l 1
EndSplineSet
Validated: 3073
EndChar

StartChar: sheqel
Encoding: 8362 8362 992
Width: 1049
Flags: MW
LayerCount: 2
Fore
SplineSet
713 115 m 2
 794 122 832 152 840 231 c 2
 840 600 l 1
 979 600 l 1
 979 231 l 2
 979 36 775 0 722 0 c 0
 713 0 l 2
 336 0 l 1
 336 378 l 1
 475 378 l 1
 475 115 l 1
 713 115 l 2
540 600 m 2
 644 600 727 538 727 438 c 2
 727 218 l 1
 588 218 l 1
 588 438 l 2
 588 464 578 485 540 485 c 2
 219 485 l 1
 219 0 l 1
 80 0 l 1
 80 600 l 1
 540 600 l 2
EndSplineSet
Validated: 1
EndChar

StartChar: Euro
Encoding: 8364 8364 993
Width: 640
Flags: HMW
LayerCount: 2
Fore
SplineSet
423 -23 m 0
 330 -23 157 22 113 250 c 1
 36 250 l 1
 60 318 l 1
 104 318 l 1
 102 332 102 341 102 353 c 0
 102 365 102 374 103 386 c 1
 36 386 l 1
 60 454 l 1
 108 454 l 1
 145 625 244 739 438 739 c 0
 503 739 542 736 604 693 c 1
 559 569 l 1
 514 611 476 613 436 613 c 0
 344 613 285 546 261 454 c 1
 518 454 l 1
 493 386 l 1
 254 386 l 1
 252 370 251 359 251 345 c 0
 251 335 251 328 253 318 c 1
 468 318 l 1
 444 250 l 1
 264 250 l 1
 290 159 347 103 429 103 c 0
 469 103 510 105 575 160 c 1
 575 11 l 1
 497 -23 462 -23 423 -23 c 0
EndSplineSet
Validated: 3073
EndChar

StartChar: trademark
Encoding: 8482 8482 994
Width: 940
Flags: HMW
LayerCount: 2
Fore
SplineSet
253 651 m 1
 253 273 l 1
 158 273 l 1
 158 651 l 1
 21 651 l 1
 21 729 l 1
 386 729 l 1
 386 651 l 1
 253 651 l 1
705 273 m 1
 611 273 l 1
 526 622 l 1
 526 273 l 1
 435 273 l 1
 435 729 l 1
 572 729 l 1
 658 379 l 1
 742 729 l 1
 879 729 l 1
 879 273 l 1
 788 273 l 1
 788 622 l 1
 705 273 l 1
EndSplineSet
Validated: 3073
EndChar

StartChar: partialdiff
Encoding: 8706 8706 996
Width: 556
Flags: HMW
AnchorPoint: "middle" 281 339 basechar 0
LayerCount: 2
Fore
SplineSet
519 337 m 0
 519 215 504 139 468 82 c 0
 427 16 353 -23 269 -23 c 0
 128 -23 32 83 32 237 c 0
 32 373 116 467 238 467 c 0
 296 467 335 450 379 404 c 1
 376 479 376 479 370 509 c 0
 357 573 317 611 261 611 c 0
 216 611 192 593 174 548 c 1
 44 548 l 1
 70 716 214 724 257 724 c 0
 457 724 519 555 519 337 c 0
272 357 m 0
 207 357 165 306 165 228 c 0
 165 152 211 97 273 97 c 0
 337 97 381 150 381 225 c 0
 381 303 337 357 272 357 c 0
EndSplineSet
Validated: 3073
EndChar

StartChar: Delta.math
Encoding: 8710 8710 997
Width: 729
Flags: HMW
AnchorPoint: "middle" 361 329 basechar 0
LayerCount: 2
Fore
SplineSet
8 0 m 1
 268 729 l 1
 461 729 l 1
 721 0 l 1
 8 0 l 1
205 125 m 1
 524 125 l 1
 364 614 l 1
 205 125 l 1
EndSplineSet
Validated: 3073
EndChar

StartChar: summation
Encoding: 8721 8721 998
Width: 806
VWidth: 2048
Flags: HMW
LayerCount: 2
Fore
SplineSet
56 730 m 1
 731 730 l 1
 731 608 l 1
 252.197 608 l 1
 541.896 313.691 l 1
 239.779 21 l 1
 744 21 l 1
 744 -100 l 1
 41 -100 l 1
 41 -7.99414 l 1
 367.249 311.944 l 1
 56 627.057 l 1
 56 730 l 1
EndSplineSet
Validated: 3073
EndChar

StartChar: minus
Encoding: 8722 8722 999
Width: 584
Flags: HMW
AnchorPoint: "middle" 291 229 basechar 0
LayerCount: 2
Fore
SplineSet
533 291 m 1
 533 172 l 1
 50 172 l 1
 50 291 l 1
 533 291 l 1
EndSplineSet
Validated: 3073
Substitution2: "'dnom' denominators-1" minusinferior
Substitution2: "'numr' numerators-1" minussuperior
Substitution2: "'subs' subscript-numeric" minusinferior
Substitution2: "'sups' superscript-numeric" minussuperior
EndChar

StartChar: radical
Encoding: 8730 8730 1000
Width: 594
Flags: HMW
LayerCount: 2
Fore
SplineSet
495 900 m 1
 570 888 l 1
 406 -73 l 1
 140 431 l 1
 43 384 l 1
 7 454 l 1
 183 539 l 1
 368 180 l 1
 495 900 l 1
EndSplineSet
Validated: 3073
EndChar

StartChar: notequal
Encoding: 8800 8800 1001
Width: 584
Flags: HMW
LayerCount: 2
Fore
SplineSet
431 545 m 1
 520 545 l 1
 443.365 411 l 1
 534 411 l 1
 534 292 l 1
 375.309 292 l 1
 306.109 171 l 1
 534 171 l 1
 534 52 l 1
 238.053 52 l 1
 174 -60 l 1
 85 -60 l 1
 149.053 52 l 1
 50 52 l 1
 50 171 l 1
 217.109 171 l 1
 286.309 292 l 1
 50 292 l 1
 50 411 l 1
 354.365 411 l 1
 431 545 l 1
EndSplineSet
Validated: 3073
EndChar

StartChar: lozenge
Encoding: 9674 9674 1004
Width: 541
Flags: HMW
LayerCount: 2
Fore
SplineSet
314 748 m 1
 521 363 l 1
 314 -22 l 1
 227 -22 l 1
 20 363 l 1
 227 748 l 1
 314 748 l 1
112 376 m 1
 272 92 l 1
 430 376 l 1
 272 660 l 1
 112 376 l 1
EndSplineSet
Validated: 3073
EndChar

StartChar: uniFB1E
Encoding: 64286 64286 1006
Width: 0
Flags: HMW
AnchorPoint: "heb-point-abv" 298 600 mark 0
LayerCount: 2
Fore
SplineSet
303 760 m 0
 335 760 353 779 356 813 c 1
 456 813 l 1
 444 714.7 390 660 303 660 c 0
 210 660 161 714 150 813 c 1
 250 813 l 1
 251.333 775.667 273 760 303 760 c 0
EndSplineSet
Validated: 3073
EndChar

StartChar: ayinaltonehebrew
Encoding: 64288 64288 1008
Width: 653
Flags: MW
AnchorPoint: "heb-dagesh" 370 340 basechar 0
AnchorPoint: "heb-vowel-left" 117 600 basechar 0
AnchorPoint: "heb-point-abv" 300 600 basechar 0
AnchorPoint: "heb-vowel-low" 300 0 basechar 0
LayerCount: 2
Fore
SplineSet
579 224 m 0
 579 95 449 0 336 0 c 0
 335 0 333 0 332 0 c 2
 86 0 l 1
 86 115 l 1
 209 115 l 1
 99 600 l 1
 241 600 l 1
 350 118 l 1
 371 122 440 155 440 231 c 2
 440 600 l 1
 579 600 l 1
 579 231 l 1
 579 229 579 227 579 224 c 0
EndSplineSet
Validated: 1
EndChar

StartChar: uniFB21
Encoding: 64289 64289 1009
Width: 964
Flags: HMW
AnchorPoint: "heb-point-abv" 510 600 basechar 0
AnchorPoint: "heb-vowel-left" 167 600 basechar 0
AnchorPoint: "heb-dagesh" 500 0 basechar 0
AnchorPoint: "heb-vowel-low" 490 0 basechar 0
LayerCount: 2
Fore
SplineSet
871 433 m 2
 841 270 757 209 704 183 c 1
 900 0 l 1
 700 0 l 1
 342 337 l 1
 284 287 228 257 228 148 c 0
 228 0 l 1
 89 0 l 1
 89 158 l 2
 101 223 114 322 252 421 c 1
 61 600 l 1
 256 600 l 1
 623 258 l 1
 693 324 732 368 732 444 c 0
 732 600 l 1
 871 600 l 1
 871 433 l 2
EndSplineSet
Validated: 3073
EndChar

StartChar: uniFB22
Encoding: 64290 64290 1010
Width: 888
Flags: HMW
AnchorPoint: "heb-point-abv" 410 600 basechar 0
AnchorPoint: "heb-vowel-left" 147 600 basechar 0
AnchorPoint: "heb-dagesh" 390 280 basechar 0
AnchorPoint: "heb-vowel-low" 390 0 basechar 0
LayerCount: 2
Fore
SplineSet
594 485 m 1
 63 485 l 1
 63 600 l 1
 816 600 l 1
 816 485 l 1
 733 485 l 1
 733 0 l 1
 594 0 l 1
 594 485 l 1
EndSplineSet
Validated: 3073
EndChar

StartChar: uniFB23
Encoding: 64291 64291 1011
Width: 932
Flags: HMW
AnchorPoint: "heb-vowel-low" 470 0 basechar 0
AnchorPoint: "heb-dagesh" 470 280 basechar 0
AnchorPoint: "heb-vowel-left" 147 600 basechar 0
AnchorPoint: "heb-point-abv" 490 600 basechar 0
LayerCount: 2
Fore
SplineSet
723 365 m 2
 698 476 659 472 590 485 c 2
 79 485 l 1
 79 600 l 1
 602 600 l 2
 734 585 792 536 814 502 c 0
 846 456 862 426 862 374 c 0
 862 0 l 1
 723 0 l 1
 723 365 l 2
79 0 m 1
 79 349 l 1
 218 349 l 1
 218 0 l 1
 79 0 l 1
EndSplineSet
Validated: 3073
EndChar

StartChar: uniFB24
Encoding: 64292 64292 1012
Width: 845
Flags: HMW
AnchorPoint: "heb-vowel-low" 390 0 basechar 0
AnchorPoint: "heb-dagesh" 390 280 basechar 0
AnchorPoint: "heb-vowel-left" 147 600 basechar 0
AnchorPoint: "heb-point-abv" 410 600 basechar 0
LayerCount: 2
Fore
SplineSet
645 365 m 2
 620 474 583 472 512 485 c 2
 76 485 l 1
 76 600 l 1
 523 600 l 2
 655 585 712 538 735 502 c 0
 767 456 784 426 784 374 c 0
 784 226 l 2
 772 148 738 75 674 44 c 0
 621 16 585 0 523 0 c 0
 76 0 l 1
 76 115 l 1
 512 115 l 2
 585 129 620 126 645 235 c 2
 645 365 l 2
EndSplineSet
Validated: 3073
EndChar

StartChar: uniFB25
Encoding: 64293 64293 1013
Width: 917
Flags: HMW
AnchorPoint: "heb-vowel-low" 460 0 basechar 0
AnchorPoint: "heb-dagesh" 330 280 basechar 0
AnchorPoint: "heb-vowel-left" 0 600 basechar 0
AnchorPoint: "heb-point-abv" 490 600 basechar 0
LayerCount: 2
Fore
SplineSet
845 412 m 2
 842 230 535 261 535 107 c 2
 535 0 l 1
 396 0 l 1
 396 107 l 2
 396 244 590 318 638 340 c 0
 668 354 706 380 706 419 c 0
 706 485 l 1
 82 485 l 1
 82 750 l 1
 221 750 l 1
 221 600 l 1
 845 600 l 1
 845 412 l 2
EndSplineSet
Validated: 3073
EndChar

StartChar: uniFB26
Encoding: 64294 64294 1014
Width: 933
Flags: HMW
AnchorPoint: "heb-vowel-low" 480 0 basechar 0
AnchorPoint: "heb-dagesh" 480 280 basechar 0
AnchorPoint: "heb-vowel-left" 147 600 basechar 0
AnchorPoint: "heb-point-abv" 480 600 basechar 0
LayerCount: 2
Fore
SplineSet
596 600 m 2
 815 600 863 419 863 369 c 2
 863 0 l 1
 80 0 l 1
 80 600 l 1
 596 600 l 2
724 369 m 2
 719 467 624 484 596 485 c 2
 219 485 l 1
 219 115 l 1
 724 115 l 1
 724 369 l 2
EndSplineSet
Validated: 3073
EndChar

StartChar: uniFB27
Encoding: 64295 64295 1015
Width: 850
Flags: HMW
AnchorPoint: "heb-vowel-low" 390 0 basechar 0
AnchorPoint: "heb-dagesh" 390 280 basechar 0
AnchorPoint: "heb-vowel-left" 147 600 basechar 0
AnchorPoint: "heb-point-abv" 410 600 basechar 0
LayerCount: 2
Fore
SplineSet
641 365 m 2
 616 476 577 472 508 485 c 2
 63 485 l 1
 63 600 l 1
 520 600 l 2
 652 585 710 536 732 502 c 0
 764 456 780 426 780 374 c 0
 780 0 l 1
 641 0 l 1
 641 365 l 2
EndSplineSet
Validated: 3073
EndChar

StartChar: uniFB28
Encoding: 64296 64296 1016
Width: 1006
Flags: HMW
AnchorPoint: "heb-vowel-low" 570 0 basechar 0
AnchorPoint: "heb-dagesh" 570 280 basechar 0
AnchorPoint: "heb-vowel-left" 257 600 basechar 0
AnchorPoint: "heb-point-abv" 550 600 basechar 0
LayerCount: 2
Fore
SplineSet
796 366 m 2
 774 458 767 465 663 485 c 2
 328 485 l 1
 328 229 l 2
 321 164 329 90 237 44 c 0
 208 29 151 0 87 0 c 0
 76 0 62 5 62 5 c 1
 62 121 l 1
 73.8058 118.47 70 115 102 115 c 0
 177.5 115 189 187 189 233 c 2
 189 485 l 1
 123 485 l 1
 123 600 l 1
 675 600 l 2
 740 593 903 582 935 374 c 2
 935 0 l 1
 796 0 l 1
 796 366 l 2
EndSplineSet
Validated: 3073
EndChar

StartChar: uniFB29
Encoding: 64297 64297 1017
Width: 584
Flags: MW
LayerCount: 2
Fore
SplineSet
533 291 m 1
 533 172 l 1
 50 172 l 1
 50 291 l 1
 232 291 l 1
 232 473 l 1
 351 473 l 1
 351 291 l 1
 533 291 l 1
EndSplineSet
Validated: 1
EndChar

